<svg width="140" height="140" viewBox="0 0 140 140" fill="none" xmlns="http://www.w3.org/2000/svg">
<circle cx="70" cy="70" r="70" fill="#52B884"/>
<path d="M76.3061 20.7554C75.4118 20.6466 74.6626 20.3997 74.0586 20.0146C73.4557 19.6204 72.9817 19.1457 72.6367 18.5904C72.2928 18.0261 72.0572 17.4383 71.9299 16.827C71.8127 16.2077 71.7881 15.6181 71.8562 15.058L71.8925 14.7599C71.9672 14.1457 72.1402 13.5525 72.4114 12.9805C72.6838 12.3995 73.0528 11.8898 73.5187 11.4514C73.9936 11.0142 74.5602 10.6889 75.2187 10.4757C75.8873 10.2545 76.6507 10.1961 77.5089 10.3004C78.4033 10.4092 79.1734 10.6724 79.8193 11.0901C80.4652 11.5078 80.9552 12.0395 81.2892 12.6851C81.6333 13.3228 81.7932 14.0435 81.7688 14.8472L79.5329 14.5753C79.518 14.1701 79.4147 13.8138 79.2229 13.5063C79.0311 13.1988 78.7639 12.9464 78.4212 12.7488C78.0876 12.5524 77.6994 12.4273 77.2568 12.3735C76.8141 12.3197 76.4118 12.3487 76.0499 12.4605C75.6879 12.5723 75.3725 12.7539 75.1036 13.0054C74.8437 13.258 74.6269 13.5708 74.4531 13.9438C74.2896 14.3089 74.1792 14.7263 74.1221 15.196C74.0661 15.6567 74.0731 16.0884 74.1433 16.4911C74.2237 16.8859 74.3637 17.2421 74.5634 17.5597C74.7733 17.8694 75.045 18.1224 75.3786 18.3188C75.7134 18.5062 76.1066 18.6274 76.5583 18.6823C77.2448 18.7658 77.8433 18.669 78.3537 18.3919C78.8731 18.1159 79.2183 17.6903 79.389 17.1153L81.6113 17.3855C81.4421 18.0983 81.1175 18.7325 80.6373 19.2883C80.1674 19.8362 79.5626 20.2485 78.8231 20.5252C78.0937 20.794 77.2547 20.8707 76.3061 20.7554Z" fill="white"/>
<path d="M87.0873 23.2582C86.4713 23.035 85.9579 22.7424 85.547 22.3806C85.1392 22.0101 84.8289 21.5977 84.6162 21.1431C84.412 20.6916 84.3019 20.221 84.2858 19.7312C84.2729 19.2329 84.3532 18.7442 84.5269 18.2651L84.6338 17.97C84.8106 17.4823 85.0636 17.0514 85.3929 16.6771C85.7338 16.2973 86.1315 16.0011 86.5861 15.7884C87.0493 15.5788 87.5546 15.4667 88.1019 15.4521C88.6523 15.429 89.2227 15.5244 89.813 15.7384C90.4205 15.9585 90.9238 16.2522 91.3231 16.6195C91.734 16.9814 92.0458 17.3896 92.2585 17.8442C92.4712 18.2988 92.5868 18.781 92.6052 19.291C92.6268 19.7924 92.5491 20.287 92.3724 20.7746L92.2654 21.0697C92.0917 21.5488 91.8403 21.9755 91.511 22.3498C91.1849 22.7155 90.7945 23.0048 90.3399 23.2175C89.8938 23.4333 89.3956 23.5528 88.8452 23.5759C88.2978 23.5905 87.7119 23.4846 87.0873 23.2582ZM87.7153 21.5258C88.1174 21.6716 88.482 21.7069 88.8093 21.632C89.1365 21.557 89.4244 21.3903 89.6729 21.1319C89.93 20.8767 90.1268 20.5608 90.2632 20.1844C90.409 19.7823 90.4634 19.4052 90.4265 19.0531C90.3927 18.6924 90.2714 18.3726 90.0628 18.0937C89.8627 17.8179 89.5701 17.6103 89.1851 17.4707C88.8087 17.3343 88.451 17.3063 88.1121 17.3867C87.7732 17.4672 87.4752 17.635 87.2181 17.8903C86.9727 18.1401 86.7771 18.4661 86.6314 18.8681C86.4949 19.2446 86.4393 19.6116 86.4646 19.9692C86.4898 20.3268 86.6084 20.6407 86.8201 20.911C87.0319 21.1814 87.3303 21.3863 87.7153 21.5258Z" fill="white"/>
<path d="M93.5746 25.6253L97.4993 19.2576L98.9752 20.1671L97.2921 22.8978L97.1875 22.8333C97.5886 22.1826 98.0042 21.6905 98.4342 21.3569C98.872 21.0281 99.3282 20.8603 99.8028 20.8535C100.277 20.8467 100.759 20.9936 101.247 21.2944L101.328 21.3445C102.072 21.8029 102.487 22.3954 102.573 23.1222C102.673 23.8459 102.419 24.6997 101.813 25.6835L99.5709 29.3205L97.7116 28.1747L100.018 24.4331C100.228 24.0923 100.299 23.7513 100.231 23.4103C100.163 23.0693 99.9592 22.7937 99.6183 22.5837C99.2697 22.3688 98.9177 22.3069 98.5623 22.3978C98.2195 22.4858 97.9382 22.708 97.7186 23.0644L95.4339 26.7711L93.5746 25.6253Z" fill="white"/>
<path d="M104.382 33.4408C103.814 32.9427 103.415 32.4723 103.187 32.0294C102.964 31.5797 102.914 31.1187 103.038 30.6463C103.175 30.1731 103.492 29.6526 103.99 29.0849L108.329 24.1392L109.858 25.4804L105.465 30.4876C105.231 30.7544 105.12 31.0196 105.13 31.2833C105.154 31.5461 105.296 31.7916 105.556 32.0196L106.387 32.7487L105.172 34.1339L104.382 33.4408ZM105.092 26.1112L106.145 24.9107L110.168 28.4392L109.115 29.6397L105.092 26.1112Z" fill="white"/>
<path d="M109.98 39.3085L111.682 37.8968L111.447 37.6132L113.296 36.0795C113.59 35.8355 113.753 35.5825 113.784 35.3204C113.815 35.0584 113.702 34.7732 113.447 34.4651C113.319 34.311 113.147 34.1108 112.931 33.8644C112.715 33.6181 112.489 33.3677 112.254 33.1131C112.02 32.8586 111.805 32.6286 111.611 32.4231L113.03 31.2467C113.177 31.3962 113.348 31.5737 113.542 31.7792C113.736 31.9847 113.933 32.2001 114.131 32.4254C114.33 32.6507 114.514 32.8649 114.682 33.0681C115.17 33.6564 115.496 34.2199 115.659 34.7585C115.828 35.3042 115.828 35.8244 115.659 36.3192C115.497 36.8081 115.15 37.2734 114.617 37.7149L111.087 40.6427L109.98 39.3085ZM108.308 37.5919C107.965 37.1787 107.737 36.7535 107.623 36.3163C107.514 35.8862 107.524 35.4703 107.652 35.0686C107.787 34.6611 108.047 34.2976 108.432 33.9781C108.852 33.6296 109.285 33.4535 109.732 33.4498C110.185 33.4404 110.637 33.5795 111.089 33.8672C111.547 34.149 111.988 34.5456 112.413 35.0569L113.432 36.2861L112.497 37.0616L111.469 35.8219C111.225 35.5277 110.962 35.3611 110.682 35.322C110.414 35.2841 110.157 35.3668 109.912 35.5701C109.681 35.7618 109.556 35.9957 109.536 36.2718C109.53 36.5491 109.649 36.8348 109.893 37.129C110.05 37.3181 110.221 37.46 110.406 37.5548C110.603 37.6508 110.824 37.6811 111.066 37.6455C111.308 37.6099 111.579 37.4801 111.878 37.2559L111.789 38.0037C111.36 38.2998 110.943 38.4806 110.536 38.546C110.135 38.6185 109.745 38.5757 109.365 38.4175C108.992 38.2664 108.639 37.9912 108.308 37.5919Z" fill="white"/>
<path d="M114.178 46.0479C113.864 45.4834 113.681 44.9396 113.629 44.4164C113.589 43.8967 113.651 43.4092 113.814 42.9539C113.978 42.4986 114.22 42.0927 114.543 41.7362C114.873 41.3753 115.253 41.0753 115.682 40.8363L115.909 40.7102C116.354 40.4623 116.819 40.297 117.304 40.2144C117.797 40.1273 118.28 40.1344 118.753 40.2356C119.226 40.3368 119.669 40.5432 120.082 40.8548C120.5 41.1744 120.859 41.6045 121.16 42.1451C121.488 42.7335 121.662 43.3184 121.684 43.8999C121.714 44.4771 121.601 45.0136 121.346 45.5097C121.091 46.0058 120.71 46.4158 120.203 46.7397L119.161 44.8674C119.437 44.6718 119.617 44.4153 119.701 44.098C119.797 43.7841 119.739 43.4364 119.526 43.0548C119.349 42.7367 119.121 42.5147 118.843 42.3885C118.569 42.2703 118.264 42.237 117.928 42.2886C117.592 42.3402 117.233 42.4722 116.852 42.6847C116.502 42.8794 116.21 43.1042 115.977 43.3589C115.752 43.6093 115.618 43.8821 115.574 44.1773C115.542 44.4761 115.621 44.7964 115.812 45.1382C115.953 45.3927 116.117 45.583 116.302 45.7092C116.499 45.8389 116.706 45.9112 116.922 45.926C117.151 45.9444 117.38 45.9057 117.608 45.8101L118.643 47.6705C118.09 47.9476 117.528 48.0622 116.96 48.0141C116.4 47.9615 115.876 47.7689 115.388 47.4361C114.909 47.099 114.505 46.6362 114.178 46.0479Z" fill="white"/>
<path d="M118.188 54.6574C117.934 53.9462 117.814 53.3415 117.83 52.8433C117.853 52.3419 118.034 51.9149 118.372 51.5622C118.721 51.215 119.251 50.9142 119.963 50.6599L126.158 48.4447L126.843 50.3597L120.57 52.6025C120.236 52.722 120.01 52.8996 119.891 53.1353C119.784 53.3765 119.789 53.6599 119.905 53.9855L120.277 55.0266L118.542 55.647L118.188 54.6574ZM122.37 48.5959L123.874 48.0581L125.676 53.0963L124.172 53.634L122.37 48.5959Z" fill="white"/>
<path d="M120.3 64.7181C120.22 63.8574 120.435 63.1702 120.944 62.6566C121.463 62.1421 122.284 61.8324 123.407 61.7276L127.729 61.3242L127.932 63.4987L123.502 63.9122C123.103 63.9494 122.796 64.0922 122.582 64.3407C122.368 64.5892 122.278 64.9037 122.314 65.2842C122.35 65.6738 122.502 65.9795 122.769 66.2013C123.037 66.4231 123.379 66.5146 123.796 66.4757L128.172 66.0672L128.375 68.2417L120.927 68.9368L120.766 67.2108L123.906 66.9178L123.92 67.0673C123.168 67.1375 122.528 67.0966 122.002 66.9446C121.486 66.8008 121.088 66.5501 120.808 66.1924C120.528 65.8347 120.362 65.375 120.309 64.8133L120.3 64.7181Z" fill="white"/>
<path d="M120.454 74.9165C120.549 73.8561 120.841 73.0463 121.329 72.487C121.818 71.9277 122.458 71.6651 123.25 71.6994L123.077 73.6299C122.838 73.6451 122.613 73.7665 122.401 73.9942C122.197 74.2318 122.072 74.5998 122.028 75.0983C121.994 75.479 122.029 75.7973 122.134 76.0534C122.248 76.3193 122.427 76.4632 122.671 76.4851C122.889 76.5045 123.07 76.4248 123.213 76.2458C123.366 76.0676 123.492 75.7362 123.59 75.2517L123.697 74.6719C123.868 73.7828 124.177 73.1298 124.626 72.7131C125.073 72.3055 125.614 72.13 126.249 72.1867C126.774 72.2337 127.202 72.4044 127.532 72.6989C127.862 72.9933 128.097 73.3798 128.237 73.8582C128.376 74.3457 128.419 74.8885 128.366 75.4867C128.28 76.4475 127.998 77.2033 127.519 77.7544C127.049 78.3062 126.414 78.5601 125.614 78.516L125.787 76.5855C126.035 76.5711 126.25 76.4624 126.433 76.2595C126.624 76.0574 126.739 75.7433 126.777 75.3173C126.807 74.982 126.768 74.7089 126.659 74.4982C126.55 74.2875 126.386 74.1724 126.169 74.1529C125.96 74.1343 125.794 74.2062 125.67 74.3687C125.546 74.5312 125.444 74.8053 125.363 75.1909L125.257 75.7707C125.075 76.6772 124.758 77.366 124.305 77.837C123.851 78.3081 123.28 78.5129 122.591 78.4513C122.093 78.4068 121.67 78.2319 121.323 77.9268C120.984 77.6225 120.738 77.2122 120.583 76.6958C120.437 76.1803 120.394 75.5872 120.454 74.9165Z" fill="white"/>
<path d="M121.813 91.4852L123.943 90.0483L125.407 90.5767L126.127 93.0426L124.488 93.3216L124.412 91.5236L124.104 91.4123L122.909 92.7515L121.813 91.4852ZM127.882 91.6007L125.573 90.4772L125.3 88.942L127.073 87.0861L128.121 88.3641L126.612 89.3285L126.669 89.6537L128.421 90.0252L127.882 91.6007ZM124.904 86.3028L125.082 88.8632L123.891 89.87L121.398 89.26L121.976 87.6984L123.562 88.532L123.813 88.318L123.264 86.6249L124.904 86.3028Z" fill="white"/>
<path d="M110.793 100.483C111.331 99.7599 111.917 99.2319 112.551 98.8985C113.192 98.5704 113.839 98.3943 114.493 98.3702C115.153 98.3515 115.781 98.4385 116.375 98.6311C116.971 98.8365 117.495 99.1076 117.947 99.4445L118.188 99.6239C118.685 99.9934 119.114 100.438 119.476 100.957C119.846 101.482 120.105 102.055 120.255 102.677C120.399 103.306 120.4 103.959 120.259 104.637C120.119 105.327 119.792 106.019 119.275 106.712C118.737 107.435 118.127 107.973 117.444 108.327C116.76 108.68 116.056 108.842 115.329 108.812C114.605 108.794 113.9 108.576 113.214 108.156L114.559 106.349C114.918 106.537 115.279 106.624 115.641 106.61C116.003 106.596 116.355 106.49 116.697 106.29C117.033 106.098 117.334 105.823 117.6 105.465C117.866 105.108 118.041 104.744 118.123 104.374C118.206 104.004 118.204 103.64 118.119 103.282C118.029 102.931 117.865 102.588 117.627 102.252C117.391 101.929 117.083 101.626 116.704 101.343C116.331 101.066 115.953 100.858 115.569 100.72C115.186 100.594 114.807 100.538 114.432 100.554C114.059 100.583 113.705 100.693 113.369 100.886C113.04 101.083 112.74 101.365 112.468 101.73C112.055 102.284 111.842 102.852 111.83 103.433C111.812 104.021 112.01 104.531 112.425 104.965L111.088 106.76C110.553 106.26 110.163 105.663 109.919 104.971C109.676 104.291 109.618 103.561 109.744 102.782C109.873 102.015 110.222 101.249 110.793 100.483Z" fill="white"/>
<path d="M103.272 108.618C103.771 108.193 104.279 107.891 104.796 107.712C105.32 107.541 105.832 107.475 106.332 107.515C106.826 107.56 107.289 107.697 107.723 107.925C108.163 108.16 108.548 108.471 108.879 108.859L109.083 109.098C109.419 109.492 109.669 109.925 109.832 110.396C109.993 110.88 110.055 111.372 110.015 111.873C109.968 112.379 109.816 112.873 109.558 113.357C109.307 113.846 108.942 114.295 108.464 114.703C107.973 115.122 107.469 115.415 106.952 115.58C106.434 115.759 105.925 115.828 105.425 115.788C104.925 115.749 104.448 115.611 103.996 115.375C103.549 115.146 103.157 114.834 102.821 114.44L102.617 114.201C102.286 113.813 102.039 113.384 101.877 112.913C101.72 112.448 101.661 111.966 101.701 111.466C101.734 110.971 101.876 110.479 102.128 109.989C102.385 109.506 102.767 109.049 103.272 108.618ZM104.468 110.02C104.143 110.297 103.932 110.597 103.836 110.918C103.739 111.24 103.742 111.573 103.844 111.916C103.939 112.266 104.116 112.593 104.376 112.898C104.654 113.223 104.955 113.456 105.279 113.598C105.609 113.747 105.947 113.8 106.293 113.756C106.631 113.718 106.957 113.567 107.268 113.301C107.573 113.041 107.774 112.744 107.871 112.41C107.969 112.075 107.97 111.733 107.875 111.384C107.779 111.047 107.592 110.716 107.315 110.39C107.055 110.086 106.763 109.856 106.44 109.701C106.116 109.547 105.785 109.495 105.445 109.545C105.106 109.596 104.78 109.754 104.468 110.02Z" fill="white"/>
<path d="M98.0108 113.088L101.617 119.642L100.098 120.478L98.5515 117.667L98.6591 117.608C99.0276 118.278 99.2509 118.882 99.3292 119.42C99.3994 119.963 99.3205 120.443 99.0925 120.859C98.8645 121.275 98.4994 121.622 97.9971 121.898L97.9134 121.944C97.1479 122.365 96.4277 122.434 95.7527 122.151C95.0741 121.881 94.4562 121.239 93.8991 120.227L91.8396 116.483L93.7532 115.431L95.8719 119.281C96.0649 119.632 96.3265 119.862 96.6566 119.971C96.9867 120.081 97.3272 120.039 97.678 119.846C98.0368 119.648 98.2643 119.373 98.3603 119.019C98.4527 118.677 98.3981 118.323 98.1963 117.956L96.0973 114.141L98.0108 113.088Z" fill="white"/>
<path d="M85.8841 118.633C86.5977 118.386 87.2036 118.272 87.7017 118.292C88.2028 118.32 88.6281 118.505 88.9776 118.846C89.3214 119.199 89.6171 119.732 89.8646 120.445L92.0204 126.661L90.0988 127.328L87.9161 121.034C87.7998 120.699 87.6244 120.471 87.3898 120.35C87.1496 120.241 86.8662 120.243 86.5395 120.356L85.4948 120.718L84.891 118.977L85.8841 118.633ZM91.9056 122.873L92.4289 124.381L87.3733 126.135L86.85 124.626L91.9056 122.873Z" fill="white"/>
<path d="M77.9978 120.592L78.3791 122.77L78.7422 122.706L79.1565 125.073C79.2224 125.449 79.3614 125.716 79.5737 125.873C79.7859 126.029 80.0892 126.073 80.4836 126.004C80.6808 125.97 80.94 125.92 81.2611 125.854C81.5823 125.789 81.9116 125.717 82.2491 125.64C82.5866 125.562 82.8927 125.49 83.1674 125.424L83.4852 127.239C83.2822 127.293 83.0433 127.353 82.7685 127.42C82.4938 127.486 82.2093 127.55 81.9151 127.611C81.6208 127.671 81.3437 127.724 81.0838 127.77C80.3308 127.902 79.68 127.905 79.1314 127.779C78.5738 127.655 78.1222 127.397 77.7763 127.005C77.4321 126.622 77.2003 126.089 77.0811 125.408L76.2902 120.891L77.9978 120.592ZM80.3179 119.992C80.8468 119.899 81.3294 119.912 81.7657 120.029C82.193 120.148 82.5494 120.363 82.8347 120.673C83.1215 120.993 83.3081 121.399 83.3944 121.892C83.4886 122.43 83.4265 122.893 83.2083 123.282C82.9916 123.681 82.6464 124.004 82.1727 124.254C81.7005 124.512 81.1373 124.698 80.4829 124.813L78.9097 125.088L78.7002 123.891L80.2868 123.614C80.6633 123.548 80.9382 123.403 81.1114 123.178C81.2772 122.965 81.3327 122.701 81.2777 122.387C81.2259 122.091 81.085 121.867 80.8548 121.713C80.6173 121.57 80.3102 121.531 79.9338 121.597C79.6917 121.639 79.4837 121.717 79.3095 121.831C79.128 121.955 78.9926 122.131 78.9032 122.359C78.8138 122.588 78.7923 122.887 78.8387 123.258L78.2336 122.809C78.189 122.29 78.2391 121.838 78.3841 121.453C78.5201 121.068 78.7509 120.751 79.0765 120.5C79.3931 120.25 79.8069 120.081 80.3179 119.992Z" fill="white"/>
<path d="M70.0197 120.893C70.6657 120.9 71.2288 121.011 71.7088 121.226C72.1796 121.449 72.5722 121.745 72.8867 122.112C73.2012 122.48 73.4333 122.892 73.583 123.348C73.7326 123.814 73.8048 124.293 73.7994 124.784L73.7965 125.043C73.7909 125.553 73.7037 126.039 73.5348 126.501C73.3659 126.972 73.1201 127.388 72.7977 127.749C72.4752 128.109 72.0762 128.391 71.6007 128.596C71.1161 128.8 70.5645 128.898 69.9457 128.891C69.2723 128.884 68.6777 128.746 68.1619 128.476C67.646 128.216 67.236 127.852 66.9316 127.384C66.6273 126.917 66.4603 126.383 66.4305 125.782L68.5734 125.805C68.6061 126.142 68.7395 126.426 68.9736 126.656C69.1985 126.895 69.5294 127.017 69.9662 127.022C70.3302 127.026 70.636 126.938 70.8837 126.759C71.1223 126.579 71.3025 126.331 71.4242 126.014C71.546 125.697 71.6093 125.32 71.6141 124.883C71.6185 124.482 71.5679 124.118 71.4623 123.789C71.3566 123.47 71.1864 123.217 70.9518 123.033C70.708 122.857 70.3905 122.767 69.9992 122.763C69.708 122.76 69.4618 122.807 69.2605 122.905C69.05 123.012 68.8846 123.156 68.7643 123.336C68.6348 123.526 68.5551 123.744 68.5251 123.989L66.3958 123.966C66.4298 123.347 66.6087 122.803 66.9324 122.334C67.256 121.873 67.6831 121.514 68.2137 121.256C68.7443 121.007 69.3463 120.886 70.0197 120.893Z" fill="white"/>
<path d="M60.5364 120.112C61.2803 120.243 61.865 120.438 62.2905 120.698C62.7145 120.967 62.9962 121.335 63.1356 121.803C63.2645 122.278 63.2635 122.888 63.1326 123.632L61.9926 130.111L59.9894 129.759L61.1437 123.199C61.2052 122.849 61.1629 122.565 61.0167 122.345C60.86 122.133 60.6114 121.996 60.2708 121.936L59.1819 121.745L59.5012 119.93L60.5364 120.112ZM63.7352 126.745L63.4585 128.318L58.1885 127.391L58.4652 125.818L63.7352 126.745Z" fill="white"/>
<path d="M50.7374 116.964C51.5249 117.321 52.0155 117.848 52.2093 118.545C52.3992 119.25 52.2614 120.117 51.7959 121.145L50.0049 125.099L48.0154 124.198L49.8514 120.144C50.0166 119.78 50.0444 119.443 49.9348 119.133C49.8252 118.824 49.5963 118.59 49.2481 118.433C48.8917 118.271 48.5509 118.252 48.2257 118.374C47.9005 118.496 47.6515 118.748 47.4788 119.13L45.6653 123.133L43.6758 122.232L46.7621 115.419L48.3413 116.134L47.0403 119.006L46.9035 118.944C47.2152 118.256 47.5673 117.721 47.9599 117.34C48.3405 116.963 48.7556 116.741 49.2051 116.675C49.6547 116.609 50.1364 116.692 50.6504 116.925L50.7374 116.964Z" fill="white"/>
<path d="M41.8913 112.092C42.7652 112.7 43.3238 113.355 43.5673 114.056C43.8107 114.758 43.7212 115.444 43.2988 116.114L41.7079 115.007C41.8132 114.792 41.8196 114.536 41.7271 114.239C41.6219 113.944 41.3639 113.654 40.9531 113.368C40.6394 113.149 40.3453 113.022 40.0709 112.987C39.7838 112.953 39.57 113.037 39.4297 113.239C39.3049 113.418 39.2846 113.614 39.3686 113.828C39.4475 114.049 39.673 114.323 40.0452 114.648L40.4957 115.028C41.1832 115.618 41.5967 116.21 41.7362 116.806C41.8683 117.397 41.7524 117.954 41.3885 118.477C41.087 118.91 40.7265 119.197 40.3072 119.337C39.8878 119.478 39.4357 119.49 38.9508 119.375C38.4584 119.254 37.9657 119.022 37.4728 118.679C36.681 118.127 36.1646 117.508 35.9234 116.819C35.6771 116.137 35.7714 115.46 36.2065 114.787L37.7974 115.894C37.6869 116.117 37.6745 116.358 37.7602 116.617C37.8407 116.884 38.0565 117.139 38.4075 117.383C38.6839 117.576 38.9406 117.677 39.1777 117.687C39.4148 117.696 39.5958 117.612 39.7205 117.432C39.8401 117.261 39.8601 117.08 39.7806 116.892C39.701 116.704 39.5137 116.479 39.2185 116.218L38.7679 115.838C38.0707 115.231 37.63 114.614 37.4456 113.987C37.2613 113.359 37.3666 112.762 37.7617 112.194C38.0477 111.784 38.4092 111.503 38.8464 111.353C39.2785 111.21 39.7571 111.199 40.2822 111.321C40.8022 111.45 41.3386 111.707 41.8913 112.092Z" fill="white"/>
<path d="M26.8134 105.064L27.0105 107.625L25.828 108.637L23.3279 108.045L23.8951 106.482L25.4962 107.304L25.7452 107.091L25.171 105.391L26.8134 105.064ZM23.7149 110.282L25.8322 108.831L27.3019 109.352L28.0396 111.81L26.4107 112.09L26.3178 110.301L26.007 110.19L24.8181 111.53L23.7149 110.282ZM29.7927 110.311L27.4782 109.201L27.1911 107.668L28.9535 105.802L30.0256 107.076L28.5173 108.043L28.5792 108.367L30.323 108.726L29.7927 110.311Z" fill="white"/>
<path d="M24.416 91.0301C24.7788 91.8547 24.9487 92.6249 24.9257 93.3409C24.8944 94.0605 24.728 94.7103 24.4265 95.2904C24.1166 95.8741 23.7313 96.3766 23.2705 96.7981C22.7977 97.2149 22.3031 97.5369 21.7866 97.7641L21.5118 97.885C20.9454 98.1342 20.347 98.2881 19.7166 98.3468C19.0779 98.4091 18.4511 98.3518 17.8364 98.1748C17.218 97.9896 16.6491 97.6683 16.1297 97.2108C15.5983 96.7487 15.1585 96.1221 14.8103 95.3308C14.4475 94.5062 14.2809 93.7097 14.3105 92.9411C14.3402 92.1725 14.5474 91.4798 14.9323 90.8631C15.3051 90.2418 15.8433 89.7366 16.547 89.3474L17.4541 91.4089C17.1133 91.6284 16.8596 91.8991 16.693 92.2209C16.5264 92.5428 16.4456 92.9014 16.4506 93.2969C16.4519 93.684 16.5424 94.0816 16.7219 94.4898C16.9015 94.8979 17.1318 95.229 17.4126 95.4832C17.6935 95.7374 18.0107 95.916 18.3642 96.019C18.714 96.1136 19.0937 96.1404 19.5032 96.0994C19.9007 96.0538 20.316 95.9357 20.7491 95.7451C21.1739 95.5582 21.5416 95.3318 21.8521 95.066C22.1507 94.7954 22.3855 94.4933 22.5568 94.1594C22.7161 93.821 22.795 93.4581 22.7937 93.071C22.784 92.6875 22.6876 92.2876 22.5043 91.8711C22.2258 91.2381 21.8371 90.7729 21.3384 90.4754C20.8359 90.1695 20.2938 90.0899 19.7121 90.2365L18.8105 88.1875C19.5099 87.9693 20.221 87.9248 20.9441 88.0541C21.6551 88.1787 22.3183 88.4884 22.9337 88.9831C23.537 89.4732 24.0312 90.1555 24.416 91.0301Z" fill="white"/>
<path d="M21.0676 80.4643C21.1895 81.1081 21.1995 81.6989 21.0976 82.2368C20.9868 82.7765 20.7901 83.2536 20.5074 83.6683C20.223 84.0741 19.8742 84.4087 19.461 84.6722C19.0389 84.9374 18.5774 85.1173 18.0767 85.2122L17.7683 85.2706C17.2586 85.3671 16.7588 85.3691 16.269 85.2766C15.7685 85.1769 15.3108 84.9857 14.8961 84.703C14.4796 84.4114 14.1257 84.0339 13.8341 83.5705C13.5337 83.1088 13.325 82.5694 13.2082 81.9525C13.088 81.3177 13.0841 80.735 13.1967 80.2043C13.2986 79.6664 13.4908 79.1901 13.7735 78.7754C14.0562 78.3606 14.4122 78.0154 14.8416 77.7396C15.2621 77.4655 15.7271 77.2802 16.2368 77.1837L16.5453 77.1253C17.046 77.0305 17.5413 77.0293 18.0311 77.1218C18.5121 77.2159 18.9599 77.4043 19.3747 77.687C19.7877 77.9607 20.1445 78.3284 20.4449 78.7902C20.7365 79.2536 20.944 79.8117 21.0676 80.4643ZM19.257 80.8072C19.1774 80.387 19.022 80.0552 18.7907 79.8119C18.5594 79.5686 18.2692 79.4059 17.9202 79.3238C17.5696 79.2328 17.1975 79.2245 16.8041 79.299C16.3838 79.3786 16.0316 79.524 15.7475 79.7352C15.4544 79.9482 15.241 80.2155 15.1074 80.5371C14.9722 80.8498 14.9426 81.2074 15.0188 81.6097C15.0933 82.0031 15.2515 82.325 15.4935 82.5756C15.7354 82.8261 16.0317 82.9969 16.3824 83.088C16.7225 83.1718 17.1026 83.1739 17.5228 83.0943C17.9163 83.0198 18.2604 82.8806 18.5552 82.6766C18.85 82.4726 19.0597 82.2106 19.1843 81.8906C19.309 81.5707 19.3332 81.2095 19.257 80.8072Z" fill="white"/>
<path d="M19.7964 73.6413L12.317 73.5218L12.3447 71.7885L15.5521 71.8398L15.5501 71.9626C14.7858 71.9504 14.1504 71.8447 13.6439 71.6455C13.1376 71.4372 12.7602 71.1308 12.5118 70.7264C12.2635 70.322 12.1438 69.8332 12.153 69.26L12.1545 69.1645C12.1685 68.291 12.4657 67.6314 13.0462 67.1856C13.6178 66.7306 14.4814 66.5124 15.6369 66.5308L19.909 66.5991L19.8741 68.7827L15.4792 68.7125C15.0789 68.7061 14.7494 68.8191 14.4908 69.0516C14.2323 69.2841 14.0998 69.6005 14.0934 70.0009C14.0869 70.4103 14.2135 70.7445 14.4733 71.0035C14.7242 71.2532 15.0589 71.3814 15.4774 71.3881L19.8313 71.4577L19.7964 73.6413Z" fill="white"/>
<path d="M20.9895 60.352C20.8516 61.0946 20.6508 61.6774 20.3871 62.1005C20.1145 62.5218 19.7435 62.8 19.2741 62.935C18.7975 63.0593 18.1879 63.0525 17.4453 62.9146L10.9764 61.7133L11.3478 59.7137L17.8972 60.93C18.2461 60.9948 18.5312 60.9552 18.7523 60.8112C18.9661 60.6565 19.1046 60.4092 19.1678 60.0692L19.3697 58.9822L21.1815 59.3187L20.9895 60.352ZM14.3261 63.4876L12.7558 63.196L13.7329 57.9354L15.3031 58.227L14.3261 63.4876Z" fill="white"/>
<path d="M23.1881 52.5261L21.1065 51.7797L20.9821 52.1266L18.7206 51.3158C18.3608 51.1868 18.0603 51.1757 17.819 51.2825C17.5776 51.3894 17.3894 51.6312 17.2543 52.0081C17.1867 52.1965 17.1019 52.4465 16.9999 52.7579C16.8979 53.0693 16.7971 53.3909 16.6975 53.7225C16.5979 54.0542 16.5091 54.3558 16.431 54.6275L14.6963 54.0055C14.7499 53.8024 14.8157 53.565 14.8937 53.2933C14.9718 53.0216 15.0573 52.7429 15.1501 52.4572C15.2428 52.1714 15.3338 51.9044 15.4229 51.656C15.6809 50.9365 16.0002 50.3694 16.3809 49.9549C16.7646 49.5318 17.2124 49.267 17.7243 49.1606C18.2276 49.051 18.8048 49.113 19.4558 49.3464L23.7732 50.8943L23.1881 52.5261ZM22.5617 54.839C22.3805 55.3444 22.1308 55.7576 21.8127 56.0785C21.4977 56.3909 21.1347 56.5943 20.7238 56.6886C20.3044 56.7799 19.8591 56.7411 19.388 56.5722C18.874 56.3879 18.5019 56.1047 18.2716 55.7224C18.0327 55.3371 17.9222 54.877 17.94 54.342C17.9492 53.804 18.066 53.2223 18.2902 52.597L18.8293 51.0938L19.9728 51.5038L19.4292 53.0199C19.3002 53.3796 19.2903 53.6903 19.3995 53.9518C19.5033 54.2017 19.7051 54.3803 20.0049 54.4878C20.2876 54.5892 20.5527 54.5779 20.8001 54.4539C21.0421 54.3184 21.2276 54.0707 21.3566 53.7109C21.4395 53.4797 21.4747 53.2603 21.4621 53.0527C21.444 52.8336 21.3579 52.6287 21.2039 52.4382C21.0499 52.2476 20.8003 52.0808 20.4553 51.9378L21.1443 51.6338C21.6172 51.8517 21.9854 52.119 22.2489 52.4358C22.5154 52.744 22.6771 53.1017 22.7342 53.5088C22.7943 53.9074 22.7368 54.3508 22.5617 54.839Z" fill="white"/>
<path d="M26.8593 45.4828C26.5327 46.0402 26.1572 46.4741 25.7328 46.7845C25.3052 47.0824 24.8538 47.2767 24.3787 47.3675C23.9037 47.4583 23.4307 47.4555 22.9599 47.359C22.4813 47.2579 22.0299 47.0831 21.6059 46.8348L21.3821 46.7037C20.9424 46.4461 20.5637 46.1293 20.2461 45.7534C19.9206 45.3729 19.6813 44.9533 19.5282 44.4945C19.3751 44.0357 19.3279 43.5493 19.3865 43.0352C19.4497 42.5133 19.6377 41.9854 19.9505 41.4515C20.2909 40.8704 20.706 40.4229 21.1959 40.1087C21.678 39.79 22.1975 39.6144 22.7543 39.5821C23.3112 39.5497 23.8579 39.6696 24.3945 39.9418L23.3112 41.7908C23.0023 41.652 22.6899 41.6272 22.374 41.7163C22.0548 41.793 21.7849 42.0198 21.5641 42.3967C21.3801 42.7107 21.3045 43.0198 21.3373 43.3238C21.3748 43.6199 21.501 43.8995 21.716 44.1625C21.9311 44.4256 22.227 44.6675 22.6039 44.8883C22.9494 45.0907 23.2911 45.2276 23.629 45.2989C23.959 45.3657 24.2623 45.343 24.5389 45.2309C24.8123 45.1063 25.0479 44.8752 25.2457 44.5376C25.3929 44.2863 25.4739 44.049 25.4888 43.8257C25.5003 43.5899 25.4575 43.375 25.3603 43.1809C25.2598 42.9744 25.1104 42.7973 24.9122 42.6495L25.9886 40.8123C26.5088 41.1486 26.8925 41.5738 27.1398 42.0878C27.3792 42.5971 27.4794 43.1462 27.4403 43.735C27.3934 44.3192 27.1997 44.9018 26.8593 45.4828Z" fill="white"/>
<path d="M32.2343 37.6533C31.7516 38.2342 31.292 38.645 30.8554 38.8856C30.4118 39.1204 29.9522 39.1823 29.4767 39.0711C28.9999 38.9471 28.4711 38.6438 27.8901 38.1612L22.8295 33.9568L24.1293 32.3925L29.2529 36.6492C29.5259 36.876 29.794 36.9805 30.0573 36.9626C30.3195 36.932 30.561 36.7836 30.782 36.5177L31.4886 35.6673L32.906 36.8449L32.2343 37.6533ZM24.8878 37.1397L23.6594 36.1191L27.0789 32.0037L28.3073 33.0243L24.8878 37.1397Z" fill="white"/>
<path d="M39.817 30.6962C39.1181 31.2051 38.4177 31.3717 37.7157 31.1961C37.0084 31.0132 36.3227 30.4656 35.6585 29.5534L33.1035 26.0444L34.8692 24.759L37.4884 28.3562C37.7241 28.6799 38.0035 28.8704 38.3267 28.9278C38.6499 28.9852 38.966 28.9014 39.275 28.6764C39.5913 28.4461 39.7765 28.1593 39.8305 27.8161C39.8845 27.4729 39.7884 27.1321 39.542 26.7937L36.9548 23.2406L38.7205 21.9551L43.1234 28.002L41.7219 29.0224L39.866 26.4734L39.9873 26.385C40.4319 26.9956 40.7233 27.5658 40.8614 28.0956C41.0015 28.6126 40.9893 29.083 40.825 29.5065C40.6606 29.9301 40.3504 30.3079 39.8942 30.64L39.817 30.6962Z" fill="white"/>
<path d="M48.4192 25.4053C47.459 25.8653 46.6137 26.0281 45.8833 25.8937C45.1529 25.7593 44.6003 25.343 44.2254 24.6448L45.9734 23.8073C46.1085 24.0049 46.3281 24.1369 46.6323 24.203C46.9407 24.2571 47.3206 24.176 47.772 23.9597C48.1167 23.7946 48.3723 23.6015 48.5388 23.3804C48.7096 23.1473 48.742 22.9199 48.6358 22.6983C48.5414 22.5014 48.3805 22.3867 48.1532 22.3544C47.9218 22.3139 47.5728 22.3751 47.106 22.5382L46.5531 22.7426C45.7013 23.0498 44.9817 23.117 44.3944 22.9443C43.8154 22.7677 43.3882 22.3922 43.113 21.8177C42.8849 21.3417 42.8132 20.8867 42.8978 20.4527C42.9825 20.0186 43.1948 19.6192 43.5347 19.2546C43.8828 18.886 44.3277 18.572 44.8693 18.3125C45.7393 17.8957 46.5334 17.7524 47.2516 17.8825C47.9659 18.0044 48.5084 18.4206 48.8791 19.1309L47.131 19.9684C46.992 19.7626 46.7886 19.633 46.5209 19.5796C46.2492 19.5181 45.9205 19.5797 45.5348 19.7645C45.2311 19.9099 45.0166 20.0834 44.8911 20.2848C44.7656 20.4862 44.75 20.6853 44.8444 20.8823C44.9348 21.071 45.0816 21.1773 45.2847 21.2011C45.4878 21.2248 45.7756 21.1727 46.1482 21.0447L46.7011 20.8403C47.5733 20.5335 48.3276 20.4546 48.9642 20.6037C49.6007 20.7528 50.0684 21.1392 50.3672 21.7629C50.5835 22.2142 50.6491 22.6671 50.5641 23.1215C50.4752 23.5677 50.2483 23.9892 49.8834 24.386C49.5146 24.7746 49.0265 25.1144 48.4192 25.4053Z" fill="white"/>
<path d="M62.006 15.7775L59.6841 14.6778L59.3927 13.1493L61.1471 11.2725L62.2226 12.5403L60.7145 13.5226L60.7759 13.8444L62.537 14.1895L62.006 15.7775ZM59.0123 10.4983L59.2222 13.0567L58.0404 14.0741L55.5398 13.4947L56.1053 11.9418L57.7043 12.7486L57.9552 12.534L57.3816 10.837L59.0123 10.4983ZM55.9718 15.7607L58.0839 14.302L59.5571 14.8132L60.3033 17.2693L58.6648 17.5678L58.5739 15.7787L58.2616 15.6715L57.085 17.0074L55.9718 15.7607Z" fill="white"/>
<circle cx="70.0006" cy="69.9996" r="34.4615" fill="white"/>
<path fill-rule="evenodd" clip-rule="evenodd" d="M76.1302 61.9668C73.9024 64.1946 69.7578 64.111 67.4362 61.7894L66.4843 60.8375L64.6567 62.6651L65.6086 63.617C67.2972 65.3056 69.5921 66.1786 71.871 66.226L60.5956 77.5014L62.4994 79.4051L73.7748 68.1298C73.8222 70.4087 74.6952 72.7036 76.3838 74.3922L77.3357 75.3441L79.1633 73.5165L78.2114 72.5646C75.8898 70.243 75.8061 66.0984 78.034 63.8705L78.9478 62.9567L77.044 61.053L76.1302 61.9668Z" fill="#52B884"/>
</svg>
