<svg width="172" height="50" viewBox="0 0 172 50" fill="none" xmlns="http://www.w3.org/2000/svg">
<path d="M75.676 35.532C73.828 35.532 72.2413 35.2147 70.916 34.58C69.5907 33.9267 68.508 33.0773 67.668 32.032C66.828 30.968 66.2027 29.8293 65.792 28.616C65.4 27.384 65.204 26.1893 65.204 25.032V24.416C65.204 23.1467 65.4093 21.896 65.82 20.664C66.2307 19.4133 66.856 18.284 67.696 17.276C68.5547 16.268 69.628 15.4653 70.916 14.868C72.2227 14.252 73.7627 13.944 75.536 13.944C77.384 13.944 79.0173 14.2893 80.436 14.98C81.8547 15.6707 82.984 16.632 83.824 17.864C84.6827 19.0773 85.1867 20.5053 85.336 22.148H80.716C80.5853 21.3267 80.2867 20.6267 79.82 20.048C79.3533 19.4693 78.7467 19.0213 78 18.704C77.272 18.3867 76.4507 18.228 75.536 18.228C74.6213 18.228 73.8093 18.3867 73.1 18.704C72.3907 19.0213 71.7933 19.4693 71.308 20.048C70.8413 20.6267 70.4773 21.3173 70.216 22.12C69.9733 22.904 69.852 23.7813 69.852 24.752C69.852 25.704 69.9733 26.5813 70.216 27.384C70.4773 28.168 70.8507 28.8587 71.336 29.456C71.84 30.0347 72.456 30.4827 73.184 30.8C73.912 31.0987 74.7427 31.248 75.676 31.248C77.0947 31.248 78.2893 30.9027 79.26 30.212C80.2493 29.5213 80.8467 28.5693 81.052 27.356H85.644C85.476 28.8493 84.972 30.2213 84.132 31.472C83.3107 32.704 82.1813 33.6933 80.744 34.44C79.3253 35.168 77.636 35.532 75.676 35.532ZM94.7945 35.532C93.4505 35.532 92.2559 35.3267 91.2105 34.916C90.1652 34.4867 89.2785 33.908 88.5505 33.18C87.8412 32.452 87.2999 31.6213 86.9265 30.688C86.5532 29.736 86.3665 28.7373 86.3665 27.692V27.048C86.3665 25.984 86.5532 24.976 86.9265 24.024C87.3185 23.0533 87.8785 22.204 88.6065 21.476C89.3532 20.748 90.2492 20.1787 91.2945 19.768C92.3399 19.3387 93.5065 19.124 94.7945 19.124C96.1199 19.124 97.2959 19.3387 98.3225 19.768C99.3679 20.1787 100.255 20.748 100.983 21.476C101.711 22.204 102.271 23.0533 102.663 24.024C103.055 24.976 103.251 25.984 103.251 27.048V27.692C103.251 28.7373 103.064 29.736 102.691 30.688C102.317 31.6213 101.767 32.452 101.039 33.18C100.329 33.908 99.4519 34.4867 98.4065 34.916C97.3612 35.3267 96.1572 35.532 94.7945 35.532ZM94.7945 31.752C95.6719 31.752 96.3999 31.5653 96.9785 31.192C97.5572 30.8187 97.9959 30.296 98.2945 29.624C98.6119 28.952 98.7705 28.2053 98.7705 27.384C98.7705 26.5067 98.6119 25.7413 98.2945 25.088C97.9772 24.416 97.5199 23.884 96.9225 23.492C96.3439 23.1 95.6345 22.904 94.7945 22.904C93.9732 22.904 93.2639 23.1 92.6665 23.492C92.0692 23.884 91.6119 24.416 91.2945 25.088C90.9959 25.7413 90.8465 26.5067 90.8465 27.384C90.8465 28.2053 90.9959 28.952 91.2945 29.624C91.5932 30.296 92.0412 30.8187 92.6385 31.192C93.2359 31.5653 93.9545 31.752 94.7945 31.752ZM111.585 35.504C110.502 35.504 109.513 35.308 108.617 34.916C107.74 34.524 106.974 33.9827 106.321 33.292C105.668 32.5827 105.164 31.752 104.809 30.8C104.473 29.848 104.305 28.8213 104.305 27.72V27.076C104.305 25.9747 104.464 24.948 104.781 23.996C105.117 23.044 105.593 22.2133 106.209 21.504C106.844 20.776 107.6 20.216 108.477 19.824C109.354 19.4133 110.334 19.208 111.417 19.208C112.649 19.208 113.713 19.4787 114.609 20.02C115.505 20.5427 116.205 21.3267 116.709 22.372C117.213 23.3987 117.493 24.668 117.549 26.18L116.373 25.088V14.56H120.881V35H117.325V28.644H117.941C117.885 30.1 117.577 31.3413 117.017 32.368C116.476 33.3947 115.738 34.1787 114.805 34.72C113.872 35.2427 112.798 35.504 111.585 35.504ZM112.705 31.752C113.396 31.752 114.021 31.6027 114.581 31.304C115.16 30.9867 115.617 30.5293 115.953 29.932C116.308 29.3347 116.485 28.616 116.485 27.776V26.74C116.485 25.9187 116.308 25.228 115.953 24.668C115.598 24.108 115.132 23.6787 114.553 23.38C113.974 23.0813 113.349 22.932 112.677 22.932C111.93 22.932 111.258 23.128 110.661 23.52C110.082 23.8933 109.625 24.416 109.289 25.088C108.953 25.7413 108.785 26.5067 108.785 27.384C108.785 28.28 108.953 29.0547 109.289 29.708C109.625 30.3613 110.092 30.8653 110.689 31.22C111.286 31.5747 111.958 31.752 112.705 31.752ZM130.853 35.532C129.546 35.532 128.389 35.308 127.381 34.86C126.391 34.412 125.561 33.8147 124.889 33.068C124.235 32.3027 123.731 31.4533 123.377 30.52C123.041 29.568 122.873 28.5973 122.873 27.608V27.048C122.873 26.0213 123.041 25.0413 123.377 24.108C123.731 23.156 124.235 22.3067 124.889 21.56C125.542 20.8133 126.354 20.2253 127.325 19.796C128.314 19.348 129.434 19.124 130.685 19.124C132.327 19.124 133.709 19.4973 134.829 20.244C135.967 20.972 136.835 21.9333 137.433 23.128C138.03 24.304 138.329 25.592 138.329 26.992V28.504H124.749V25.956H135.613L134.157 27.132C134.157 26.2173 134.026 25.4333 133.765 24.78C133.503 24.1267 133.111 23.632 132.589 23.296C132.085 22.9413 131.45 22.764 130.685 22.764C129.901 22.764 129.238 22.9413 128.697 23.296C128.155 23.6507 127.745 24.1733 127.465 24.864C127.185 25.536 127.045 26.3667 127.045 27.356C127.045 28.2707 127.175 29.0733 127.437 29.764C127.698 30.436 128.109 30.9587 128.669 31.332C129.229 31.7053 129.957 31.892 130.853 31.892C131.674 31.892 132.346 31.7333 132.869 31.416C133.391 31.0987 133.746 30.7067 133.933 30.24H138.049C137.825 31.2667 137.386 32.1813 136.733 32.984C136.079 33.7867 135.258 34.412 134.269 34.86C133.279 35.308 132.141 35.532 130.853 35.532ZM139.231 35V29.988H144.159V35H139.231ZM147.195 35V19.656H151.675V35H147.195ZM145.151 22.96V19.656H151.675V22.96H145.151ZM148.931 18.144C148.091 18.144 147.466 17.9293 147.055 17.5C146.663 17.052 146.467 16.492 146.467 15.82C146.467 15.1293 146.663 14.5693 147.055 14.14C147.466 13.692 148.091 13.468 148.931 13.468C149.771 13.468 150.387 13.692 150.779 14.14C151.19 14.5693 151.395 15.1293 151.395 15.82C151.395 16.492 151.19 17.052 150.779 17.5C150.387 17.9293 149.771 18.144 148.931 18.144ZM162.175 35.532C160.831 35.532 159.636 35.3267 158.591 34.916C157.546 34.4867 156.659 33.908 155.931 33.18C155.222 32.452 154.68 31.6213 154.307 30.688C153.934 29.736 153.747 28.7373 153.747 27.692V27.048C153.747 25.984 153.934 24.976 154.307 24.024C154.699 23.0533 155.259 22.204 155.987 21.476C156.734 20.748 157.63 20.1787 158.675 19.768C159.72 19.3387 160.887 19.124 162.175 19.124C163.5 19.124 164.676 19.3387 165.703 19.768C166.748 20.1787 167.635 20.748 168.363 21.476C169.091 22.204 169.651 23.0533 170.043 24.024C170.435 24.976 170.631 25.984 170.631 27.048V27.692C170.631 28.7373 170.444 29.736 170.071 30.688C169.698 31.6213 169.147 32.452 168.419 33.18C167.71 33.908 166.832 34.4867 165.787 34.916C164.742 35.3267 163.538 35.532 162.175 35.532ZM162.175 31.752C163.052 31.752 163.78 31.5653 164.359 31.192C164.938 30.8187 165.376 30.296 165.675 29.624C165.992 28.952 166.151 28.2053 166.151 27.384C166.151 26.5067 165.992 25.7413 165.675 25.088C165.358 24.416 164.9 23.884 164.303 23.492C163.724 23.1 163.015 22.904 162.175 22.904C161.354 22.904 160.644 23.1 160.047 23.492C159.45 23.884 158.992 24.416 158.675 25.088C158.376 25.7413 158.227 26.5067 158.227 27.384C158.227 28.2053 158.376 28.952 158.675 29.624C158.974 30.296 159.422 30.8187 160.019 31.192C160.616 31.5653 161.335 31.752 162.175 31.752Z" fill="white"/>
<circle cx="25" cy="25" r="25" fill="#52B884"/>
<path d="M38.1436 21.1553L38.1467 21.159L40.6221 23.6343L38.1436 21.1553Z" fill="white"/>
<path d="M44.0754 25.1437C44.0754 24.978 44.023 24.8182 43.9288 24.6837C43.9018 24.645 43.8732 24.608 43.8393 24.5746L36.3873 17.1232C35.0189 15.7548 33.1995 15.001 31.2646 15.001C29.3292 15.001 27.5098 15.7548 26.1414 17.1232C25.9905 17.2741 25.9058 17.479 25.9058 17.6928C25.9058 17.9067 25.9905 18.1105 26.1414 18.2624L26.7507 18.8723L33.0237 25.1453L28.1488 30.0198L26.1408 32.0271C25.99 32.178 25.9053 32.3829 25.9053 32.5967C25.9053 32.6322 25.9111 32.6671 25.9159 32.7021C25.9392 32.8768 26.0154 33.0403 26.1408 33.1663C26.1483 33.1737 26.1562 33.1796 26.1636 33.187C26.3441 33.3659 26.5315 33.5321 26.7247 33.6883C26.7306 33.6931 26.7359 33.6989 26.7422 33.7036C26.8978 33.828 27.0577 33.945 27.2208 34.0551C27.2282 34.0599 27.2356 34.0641 27.243 34.0689C27.2959 34.1044 27.351 34.1356 27.405 34.1695C27.5363 34.2526 27.6691 34.3315 27.8047 34.4051C27.8719 34.4416 27.9391 34.476 28.0069 34.5099C28.1408 34.5771 28.2763 34.6396 28.414 34.6983C28.4743 34.7243 28.5336 34.7513 28.5945 34.7756C28.7888 34.8524 28.9852 34.9223 29.1842 34.9815C29.2175 34.9916 29.252 34.9985 29.2853 35.008C29.4552 35.0562 29.6262 35.0975 29.7983 35.1329C29.8666 35.1467 29.9348 35.1584 30.0031 35.1705C30.1487 35.196 30.2943 35.2171 30.4409 35.2335C30.5076 35.2409 30.5749 35.2499 30.6416 35.2558C30.8401 35.2727 31.0391 35.2833 31.2387 35.2844C31.2472 35.2844 31.2556 35.2854 31.2641 35.2854C32.2275 35.2854 33.1894 35.0906 34.0909 34.71C34.9252 34.3574 35.7082 33.846 36.3868 33.1674L37.9792 31.5756L39.2846 30.2691L43.2692 26.2845L43.8382 25.7149C43.9515 25.6016 44.0272 25.4582 44.0585 25.3036C44.0701 25.2501 44.0754 25.1972 44.0754 25.1437ZM35.2487 32.0266C35.2344 32.0409 35.219 32.0531 35.2047 32.0668C35.0978 32.1717 34.9888 32.2722 34.8755 32.367C34.8273 32.4077 34.7759 32.4432 34.7267 32.4819C34.6447 32.5459 34.5631 32.6105 34.4784 32.6693C34.4207 32.709 34.3614 32.7444 34.3032 32.782C34.2233 32.8334 34.1439 32.8847 34.0618 32.9318C33.9994 32.9673 33.9358 32.9996 33.8723 33.0324C33.7913 33.0748 33.7103 33.1166 33.6277 33.1547C33.5626 33.1849 33.4959 33.2119 33.4298 33.2394C33.3466 33.2738 33.2635 33.3077 33.1788 33.3379C33.1116 33.3622 33.0438 33.3839 32.9761 33.4056C32.8908 33.4326 32.8051 33.4586 32.7188 33.4813C32.6505 33.4993 32.5817 33.5163 32.5129 33.5316C32.425 33.5512 32.3371 33.5692 32.2487 33.5845C32.1804 33.5967 32.1121 33.6078 32.0433 33.6174C31.9528 33.6301 31.8623 33.6396 31.7712 33.6475C31.704 33.6534 31.6368 33.6597 31.569 33.6634C31.4753 33.6682 31.3811 33.6698 31.2874 33.6698C31.2228 33.6703 31.1577 33.6714 31.0931 33.6692C30.9952 33.6661 30.8978 33.6587 30.7998 33.6507C30.739 33.646 30.6781 33.6422 30.6177 33.6354C30.5135 33.6232 30.4092 33.6057 30.3054 33.5882C30.2525 33.5792 30.199 33.5724 30.1461 33.5618C30.0232 33.5369 29.9015 33.5062 29.7797 33.4728C29.7469 33.4639 29.713 33.4575 29.6802 33.448C29.5251 33.4024 29.3711 33.3511 29.2191 33.2923C29.2033 33.286 29.1879 33.278 29.172 33.2717C29.0386 33.2187 28.9063 33.161 28.7766 33.097C28.7279 33.0732 28.6813 33.0451 28.6331 33.0197C28.5394 32.9699 28.4457 32.9207 28.3541 32.8651C28.2065 32.7762 28.0625 32.6804 27.9216 32.5766C27.9111 32.5687 27.8999 32.5623 27.8894 32.5549L30.0709 30.3728L34.1619 26.2824L37.5768 29.6974L35.8739 31.4004L35.2487 32.0266ZM31.2646 16.6108C32.7702 16.6108 34.1846 17.1968 35.2492 18.2619L42.131 25.1437L38.7155 28.5592L27.8899 17.7331C28.8586 17.0047 30.0312 16.6108 31.2646 16.6108Z" fill="white"/>
<path d="M11.928 21.159L11.9312 21.1553L9.45215 23.6343L11.928 21.159Z" fill="white"/>
<path d="M24.1537 32.438C24.123 32.2829 24.0468 32.1394 23.9335 32.0262L21.8065 29.8997L17.0506 25.1443L23.3237 18.8713L23.9335 18.2615C24.0844 18.1101 24.1691 17.9057 24.1691 17.6919C24.1691 17.478 24.0844 17.2731 23.9335 17.1222C22.5651 15.7538 20.7456 15 18.8102 15C16.8754 15 15.0559 15.7538 13.6875 17.1222L6.23557 24.5737C6.20487 24.6049 6.1784 24.6393 6.15352 24.6742C6.05558 24.8103 6 24.9733 6 25.1427C6 25.3566 6.0847 25.5615 6.23557 25.7123L6.80517 26.282L10.7897 30.2665L12.0952 31.573L13.6875 33.1648C14.3667 33.844 15.1491 34.3549 15.9834 34.7074C16.8849 35.088 17.8468 35.2828 18.8102 35.2828C18.8187 35.2828 18.8272 35.2818 18.8357 35.2818C19.0347 35.2813 19.2343 35.2701 19.4328 35.2532C19.5 35.2474 19.5667 35.2389 19.6334 35.2315C19.78 35.2151 19.9256 35.1939 20.0717 35.1685C20.14 35.1563 20.2083 35.1447 20.2766 35.1309C20.4492 35.0955 20.6202 35.0536 20.7901 35.006C20.8234 34.9965 20.8573 34.9896 20.8907 34.98C21.0897 34.9208 21.2861 34.8509 21.4804 34.7741C21.5413 34.7503 21.6011 34.7228 21.6614 34.6968C21.7985 34.6386 21.9341 34.5761 22.068 34.5084C22.1357 34.474 22.2035 34.4396 22.2702 34.403C22.4057 34.3295 22.5386 34.25 22.6699 34.1675C22.7239 34.1336 22.7789 34.1024 22.8319 34.0669C22.8393 34.0621 22.8467 34.0579 22.8541 34.0531C23.0172 33.9435 23.177 33.8265 23.3327 33.7016C23.3385 33.6968 23.3438 33.691 23.3501 33.6863C23.5428 33.5312 23.7297 33.3649 23.9091 33.1871C23.9171 33.1791 23.9261 33.1728 23.9346 33.1643C24.0399 33.059 24.1108 32.9266 24.1452 32.7837C24.1601 32.7223 24.1701 32.6593 24.1701 32.5952C24.1696 32.5423 24.1643 32.4894 24.1537 32.438ZM21.2988 33.0971C21.1691 33.1606 21.0368 33.2183 20.9034 33.2718C20.8875 33.2781 20.8721 33.2861 20.8563 33.2924C20.7043 33.3512 20.5508 33.403 20.3957 33.448C20.3624 33.4576 20.329 33.4639 20.2957 33.4729C20.1744 33.5057 20.0532 33.537 19.9304 33.5613C19.8775 33.5719 19.824 33.5788 19.7705 33.5878C19.6668 33.6058 19.563 33.6233 19.4582 33.6349C19.3973 33.6418 19.3364 33.645 19.2756 33.6503C19.1782 33.6582 19.0802 33.6656 18.9828 33.6688C18.9182 33.6709 18.8531 33.6698 18.7885 33.6693C18.6948 33.6688 18.6006 33.6677 18.5069 33.663C18.4397 33.6593 18.3725 33.6534 18.3047 33.6471C18.2136 33.6392 18.1231 33.6296 18.0326 33.6169C17.9638 33.6074 17.8955 33.5963 17.8272 33.5841C17.7388 33.5688 17.6504 33.5507 17.563 33.5312C17.4942 33.5158 17.4254 33.4989 17.3571 33.4809C17.2708 33.4581 17.1851 33.4322 17.0993 33.4052C17.0316 33.3835 16.9638 33.3618 16.8966 33.3374C16.8119 33.3072 16.7288 33.2734 16.6456 33.2389C16.5795 33.2114 16.5133 33.1844 16.4482 33.1542C16.3656 33.1161 16.2846 33.0738 16.2036 33.0314C16.1401 32.9986 16.0766 32.9669 16.0141 32.9309C15.9321 32.8843 15.8526 32.8324 15.7727 32.781C15.714 32.7435 15.6547 32.708 15.5975 32.6683C15.5128 32.6095 15.4313 32.5449 15.3492 32.4809C15.3 32.4422 15.2486 32.4068 15.2005 32.366C15.0872 32.2718 14.9781 32.1707 14.8712 32.0659C14.8569 32.0516 14.8416 32.0399 14.8273 32.0256L14.2015 31.4004L12.4986 29.6975L15.9135 26.2825L20.2771 30.6456L22.186 32.5545C22.1749 32.5624 22.1633 32.5693 22.1527 32.5772C22.0129 32.6805 21.8689 32.7763 21.7218 32.8647C21.6302 32.9197 21.5365 32.9695 21.4428 33.0193C21.3941 33.0452 21.347 33.0733 21.2988 33.0971ZM14.8257 18.2615C15.8902 17.1964 17.3052 16.6103 18.8102 16.6103C20.0442 16.6103 21.2162 17.0042 22.1855 17.7321L11.3594 28.5582L7.94385 25.1427L14.8257 18.2615Z" fill="white"/>
</svg>
