<svg width="50" height="50" viewBox="0 0 50 50" fill="none" xmlns="http://www.w3.org/2000/svg">
<path d="M8.31537 23.2763C6.80482 21.2734 6.15464 19.8028 6.37242 18.8132C6.42048 18.6026 6.49214 18.3978 6.5861 18.2026C4.02346 19.3009 2.2478 20.8702 1.71601 22.9616C1.21057 24.9493 1.63503 26.3652 4.04319 29.9413C4.76787 30.9222 5.55824 31.8548 6.40911 32.7331C6.73724 29.5288 7.37553 26.3624 8.31537 23.2763Z" stroke="#053456" stroke-width="1.5" stroke-linecap="round" stroke-linejoin="round"/>
<path d="M16.8242 41.0503C14.4253 41.8477 12.8058 42.0029 11.9185 41.4929C11.73 41.3826 11.5546 41.2521 11.3955 41.1039C11.663 43.8462 12.6281 45.9961 14.4814 47.1411C16.2425 48.2292 17.7395 48.2687 21.9333 47.1158C23.1043 46.739 24.2482 46.2861 25.3575 45.76C22.3658 44.461 19.5082 42.8838 16.8242 41.0503Z" stroke="#053456" stroke-width="1.5" stroke-linecap="round" stroke-linejoin="round"/>
<path d="M14.4805 47.1413C12.6273 45.9963 11.6622 43.8464 11.3946 41.1041C11.2796 39.7939 11.2917 38.4761 11.4309 37.1682C11.7491 34.334 12.3764 31.5413 13.3022 28.8379C14.0727 26.5269 14.9916 24.2659 16.0535 22.0684C17.1099 19.8765 18.0934 17.9209 19.0039 16.2013C16.1118 16.1688 13.2246 16.4435 10.393 17.0208C9.81029 18.5978 9.34112 20.0608 8.96309 21.2609C8.74315 21.897 8.52557 22.5732 8.31435 23.2768C7.37451 26.3629 6.73623 29.5293 6.4081 32.7336C6.39198 32.9068 6.37946 33.0792 6.36581 33.2519C5.96606 38.3161 6.67026 43.1308 9.71897 45.5874C13.366 48.5261 17.7376 48.447 21.9325 47.116C17.7387 48.2689 16.2417 48.2294 14.4805 47.1413Z" stroke="#053456" stroke-width="1.5" stroke-linecap="round" stroke-linejoin="round"/>
<path d="M29.5089 9.82184C27.8077 9.76271 26.2514 9.77493 24.9769 9.79134C24.2949 9.78168 23.575 9.78663 22.8303 9.80602C19.564 9.87846 16.3124 10.2585 13.1204 10.9409C12.9483 10.9792 12.7781 11.0208 12.6073 11.0614C7.59865 12.2515 3.17174 14.3996 1.74409 18.0174C0.0362837 22.3452 1.46351 26.4199 4.04378 29.9419C1.63562 26.3658 1.21115 24.9499 1.71659 22.9623C2.24838 20.8708 4.02404 19.3015 6.58668 18.2032C7.81441 17.6907 9.08959 17.2948 10.3946 17.0209C13.2262 16.4436 16.1134 16.1689 19.0055 16.2014C21.4748 16.2096 23.941 16.3726 26.389 16.6893C28.8298 17.0026 31.0203 17.3204 32.9604 17.6428C32.0988 14.9225 30.9417 12.3005 29.5089 9.82184Z" stroke="#053456" stroke-width="1.5" stroke-linecap="round" stroke-linejoin="round"/>
<path d="M41.7502 42.6438C40.073 44.0276 37.7009 44.2682 34.973 43.6717C33.6731 43.3745 32.4055 42.9559 31.1874 42.4214C28.5494 41.2459 26.0491 39.7945 23.7299 38.0925C21.7373 36.6548 19.8401 35.0945 18.0499 33.4209C16.2575 31.7486 14.6837 30.229 13.303 28.8384C12.3772 31.5417 11.7499 34.3344 11.4316 37.1687C12.7728 38.2024 14.0391 39.0944 15.0799 39.8197C15.6256 40.2225 16.2106 40.6354 16.8241 41.051C19.5081 42.8845 22.3657 44.4616 25.3574 45.7607C25.5195 45.8294 25.6819 45.8944 25.8444 45.9605C30.6059 47.9003 35.4681 48.7278 38.7799 46.6283C42.7418 44.1166 44.0163 39.9931 44.0286 35.6483C43.8448 39.9371 43.3441 41.3286 41.7502 42.6438Z" stroke="#053456" stroke-width="1.5" stroke-linecap="round" stroke-linejoin="round"/>
<path d="M36.5996 38.5637C36.6279 41.0617 36.276 42.6265 35.5095 43.3012C35.3451 43.4437 35.1651 43.5678 34.9727 43.6714C37.7006 44.2679 40.0727 44.0274 41.7499 42.6435C43.3438 41.3283 43.8445 39.9368 44.0283 35.6481C44.0267 34.4342 43.9433 33.2217 43.7786 32.0186C41.6042 34.4194 39.2003 36.6111 36.5996 38.5637Z" stroke="#053456" stroke-width="1.5" stroke-linecap="round" stroke-linejoin="round"/>
<path d="M48.7641 19.7007C47.5656 15.2097 43.9817 12.7404 39.7944 11.3862C43.8747 12.8839 45.0622 13.7833 45.8384 15.6843C46.655 17.6845 46.1541 19.9831 44.7356 22.3567C44.0481 23.4826 43.2526 24.5418 42.3598 25.5199C40.4144 27.6268 38.2425 29.5221 35.882 31.1729C33.8803 32.5967 31.788 33.894 29.6178 35.0571C27.4507 36.2211 25.4986 37.2271 23.7305 38.092C26.0496 39.794 28.55 41.2454 31.1879 42.4209C32.5995 41.4828 33.8513 40.5711 34.8727 39.8192C35.4301 39.4319 36.0096 39.0106 36.6004 38.5635C39.2011 36.6109 41.605 34.4192 43.7794 32.0183C43.8958 31.8876 44.0087 31.7553 44.1227 31.6235C47.4653 27.7581 49.766 23.4549 48.7641 19.7007Z" stroke="#053456" stroke-width="1.5" stroke-linecap="round" stroke-linejoin="round"/>
<path d="M45.8382 15.6841C45.0621 13.7831 43.8745 12.8837 39.7943 11.386C38.623 11.0124 37.4275 10.7159 36.2158 10.4985C37.8614 13.2827 39.2327 16.214 40.3111 19.2526C42.7295 19.9979 44.1303 20.8115 44.5443 21.7387C44.631 21.9371 44.6951 22.1443 44.7355 22.3565C46.1539 19.9829 46.6548 17.6843 45.8382 15.6841Z" stroke="#053456" stroke-width="1.5" stroke-linecap="round" stroke-linejoin="round"/>
<path d="M22.8291 9.80545C24.2955 7.76813 25.5131 6.70609 26.5355 6.6044C26.7536 6.58443 26.9733 6.58835 27.1905 6.61609C25.3392 4.55258 23.2767 3.37258 21.0948 3.5202C19.0212 3.6605 17.7866 4.49612 15.0809 7.85932C14.3582 8.84276 13.7029 9.872 13.1191 10.9403C16.3111 10.2579 19.5628 9.87789 22.8291 9.80545Z" stroke="#053456" stroke-width="1.5" stroke-linecap="round" stroke-linejoin="round"/>
<path d="M40.9879 21.2609C40.7865 20.6185 40.5593 19.945 40.3105 19.2528C39.2321 16.2142 37.8608 13.283 36.2152 10.4987C36.125 10.3493 36.0323 10.2025 35.9404 10.0549C33.2446 5.72625 29.8045 2.23912 25.8734 2.01846C21.1708 1.75446 17.6812 4.35197 15.0811 7.85981C17.7867 4.49661 19.0213 3.66099 21.0949 3.52069C23.2768 3.37307 25.3393 4.5531 27.1906 6.61658C28.0653 7.61049 28.8412 8.68374 29.5078 9.82178C30.9406 12.3004 32.0977 14.9224 32.9593 17.6427C33.7145 19.961 34.3194 22.3237 34.7703 24.7166C35.2224 27.1021 35.5927 29.2542 35.8812 31.173C38.2418 29.5221 40.4136 27.6268 42.359 25.5199C41.8903 23.9064 41.3976 22.451 40.9879 21.2609Z" stroke="#053456" stroke-width="1.5" stroke-linecap="round" stroke-linejoin="round"/>
</svg>
