<svg width="50" height="50" viewBox="0 0 50 50" fill="none" xmlns="http://www.w3.org/2000/svg">
<path d="M34.9422 20.5618L21.4859 33.7024L4.51484 17.1294L1 20.5618L21.4859 40.5671L38.457 23.9942L34.9422 20.5618Z" stroke="#053456" stroke-width="1.5" stroke-linecap="round" stroke-linejoin="round"/>
<path d="M37.0015 15.708H29.9719L38.4574 23.9945L21.4863 40.5674L25.0012 43.9998L45.4871 23.9945L37.0015 15.708Z" stroke="#053456" stroke-width="1.5" stroke-linecap="round" stroke-linejoin="round"/>
<path d="M11.5443 17.1299L22.9416 6H15.912L4.51465 17.1299L21.4857 33.7029L25.0006 30.2705L11.5443 17.1299Z" stroke="#053456" stroke-width="1.5" stroke-linecap="round" stroke-linejoin="round"/>
<path d="M34.0898 6H22.9422L11.5449 17.1299L15.0598 20.5623L25.0012 10.8541H39.0605L34.0898 6Z" stroke="#053456" stroke-width="1.5" stroke-linecap="round" stroke-linejoin="round"/>
<path d="M39.0594 10.854H25L20.0293 15.7081H37.0004L45.4859 23.9946L49.0008 20.5622L39.0594 10.854Z" stroke="#053456" stroke-width="1.5" stroke-linecap="round" stroke-linejoin="round"/>
</svg>
