<svg width="52" height="52" viewBox="0 0 52 52" fill="none" xmlns="http://www.w3.org/2000/svg">
<g clip-path="url(#clip0_1923_1771)">
<path d="M39.5337 9.36088C40.0807 9.92952 40.4426 10.6505 40.5717 11.4289C38.6814 11.0613 36.1119 11.6375 33.2318 12.9939C32.067 11.9588 30.8966 10.9884 29.7207 10.0826C34.0423 7.95814 37.7149 7.54201 39.5337 9.36088Z" stroke="#053456" stroke-width="1.5" stroke-linecap="round" stroke-linejoin="round"/>
<path d="M18.7676 39.0066C19.9324 40.0416 21.1027 41.0121 22.2788 41.918C17.9572 44.0424 14.2846 44.4585 12.4657 42.6396C11.9188 42.071 11.5569 41.35 11.4277 40.5716C13.318 40.9392 15.8876 40.363 18.7676 39.0066Z" stroke="#053456" stroke-width="1.5" stroke-linecap="round" stroke-linejoin="round"/>
<path d="M39.0059 33.2316C40.0409 32.0668 41.0114 30.8964 41.9172 29.7205C44.0416 34.0421 44.4577 37.7147 42.6389 39.5336C42.0703 40.0806 41.3493 40.4425 40.5709 40.5716C40.9385 38.6813 40.3623 36.1118 39.0059 33.2316Z" stroke="#053456" stroke-width="1.5" stroke-linecap="round" stroke-linejoin="round"/>
<path d="M3.81427 6.47679C7.21419 3.07686 14.6612 4.62008 22.7489 9.72733C23.8905 10.4483 25.0416 11.2394 26.2021 12.1006C27.3816 12.9761 28.5608 13.9201 29.7397 14.9326C31.0196 16.033 32.292 17.2063 33.5428 18.4571C34.8101 19.7244 35.9772 21.0173 37.0364 22.3102C36.2204 23.5853 35.3385 24.817 34.3943 26.0003C31.925 22.8914 29.1085 20.0749 25.9997 17.6056C24.8165 16.6613 23.5848 15.7794 22.3098 14.9633C21.1717 14.2335 19.9889 13.5758 18.7685 12.994C15.8884 11.6376 13.3189 11.0613 11.4286 11.4289C10.6502 11.5581 9.92927 11.92 9.36065 12.467C7.5418 14.2858 7.95789 17.9585 10.0823 22.28C9.12358 23.5253 8.24361 24.7689 7.44267 26.0003C2.0358 17.687 0.332002 9.95911 3.81427 6.47679Z" stroke="#053456" stroke-width="1.5" stroke-linecap="round" stroke-linejoin="round"/>
<path d="M14.9635 29.6902C16.0227 30.9832 17.1899 32.276 18.4572 33.5433C19.7079 34.7941 20.9804 35.9674 22.2603 37.0678C23.4363 38.0788 24.6155 39.0228 25.7978 39.8998C26.9554 40.759 28.1065 41.5501 29.2511 42.2731C37.3387 47.3803 44.7857 48.9236 48.1857 45.5236L45.5234 48.1859C42.0411 51.6682 34.3133 49.9644 26.0002 44.5574C24.7688 43.7565 23.5288 42.8766 22.2801 41.9178C21.1071 41.0146 19.9367 40.0441 18.7689 39.0064C17.769 38.1178 16.7777 37.1842 15.7949 36.2056C14.8146 35.2253 13.881 34.2339 12.9941 33.2314C13.5759 32.011 14.2337 30.8283 14.9635 29.6902Z" stroke="#053456" stroke-width="1.5" stroke-linecap="round" stroke-linejoin="round"/>
<path d="M9.36137 12.467C9.92999 11.92 10.651 11.5581 11.4293 11.429C11.0618 13.3193 11.638 15.8889 12.9944 18.769C11.9593 19.9337 10.9888 21.1041 10.083 22.2801C7.95861 17.9585 7.54252 14.2858 9.36137 12.467Z" stroke="#053456" stroke-width="1.5" stroke-linecap="round" stroke-linejoin="round"/>
<path d="M9.72702 29.2511C10.4479 28.1095 11.239 26.9584 12.1002 25.7979C12.9757 24.6184 13.9197 23.4392 14.9322 22.2603C16.0326 20.9803 17.2059 19.7079 18.4567 18.4571C19.7239 17.1898 21.0168 16.0226 22.3098 14.9634C23.5848 15.7794 24.8165 16.6614 25.9997 17.6056C22.8909 20.0749 20.0745 22.8914 17.6051 26.0003C16.6609 27.1835 15.779 28.4152 14.963 29.6903C14.2332 30.8284 13.5754 32.0111 12.9937 33.2315C11.6372 36.1117 11.0611 38.6812 11.4286 40.5715C11.5577 41.3499 11.9196 42.0709 12.4666 42.6395C14.2854 44.4584 17.958 44.0423 22.2796 41.9179C23.5248 42.8767 24.7648 43.7565 25.9997 44.5575C17.6866 49.9645 9.9588 51.6683 6.47654 48.186C3.07662 44.786 4.61986 37.3388 9.72702 29.2511Z" stroke="#053456" stroke-width="1.5" stroke-linecap="round" stroke-linejoin="round"/>
<path d="M33.5425 33.5433C34.7933 32.2926 35.9667 31.0201 37.067 29.7402C38.0779 28.5642 39.0219 27.385 39.899 26.2026C40.7581 25.045 41.5492 23.8939 42.2722 22.7493C47.3793 14.6616 48.9226 7.2144 45.5227 3.81445L48.185 6.4767C51.6672 9.95903 49.9634 17.6869 44.5566 26.0002C43.7556 27.2315 42.8758 28.4716 41.917 29.7203C41.0138 30.8933 40.0433 32.0637 39.0056 33.2314C38.117 34.2315 37.1834 35.2228 36.2048 36.2056C35.2245 37.1859 34.2332 38.1195 33.2308 39.0064C32.0103 38.4246 30.8276 37.7669 29.6895 37.0371C30.9824 35.9778 32.2753 34.8106 33.5425 33.5433Z" stroke="#053456" stroke-width="1.5" stroke-linecap="round" stroke-linejoin="round"/>
<path d="M17.605 26.0002C20.0744 29.1091 22.8908 31.9256 25.9996 34.3949C27.1828 35.3391 28.4145 36.2211 29.6895 37.0371C30.8276 37.767 32.0104 38.4247 33.2308 39.0065C36.1109 40.3629 38.6804 40.9391 40.5707 40.5715C41.3491 40.4424 42.0701 40.0805 42.6387 39.5335C44.4575 37.7146 44.0414 34.042 41.917 29.7204C42.8758 28.4752 43.7557 27.2351 44.5566 26.0002C49.9635 34.3135 51.6673 42.0414 48.1851 45.5237C44.7851 48.9236 37.3381 47.3804 29.2505 42.2731C28.1088 41.5522 26.9577 40.7612 25.7972 39.8999C24.6177 39.0244 23.4386 38.0804 22.2596 37.0679C20.9798 35.9675 19.7073 34.7942 18.4566 33.5434C17.1893 32.2761 16.0221 30.9832 14.9629 29.6902C15.7789 28.4152 16.6608 27.1835 17.605 26.0002Z" stroke="#053456" stroke-width="1.5" stroke-linecap="round" stroke-linejoin="round"/>
<path d="M6.47675 3.81452C9.95902 0.332244 17.6868 2.03602 25.9999 7.44297C27.2313 8.2439 28.4714 9.12377 29.72 10.0826C30.8931 10.9858 32.0635 11.9562 33.2312 12.994C34.2311 13.8826 35.2225 14.8162 36.2052 15.7948C37.1855 16.7751 38.1191 17.7665 39.006 18.7689C38.4242 19.9894 37.7665 21.1721 37.0366 22.3102C35.9774 21.0172 34.8103 19.7244 33.5429 18.4571C32.2922 17.2063 31.0198 16.033 29.7399 14.9326C28.5638 13.9216 27.3847 12.9776 26.2023 12.1006C25.0447 11.2414 23.8937 10.4503 22.7491 9.7273C14.6614 4.62007 7.21439 3.07685 3.81445 6.47676L6.47675 3.81452Z" stroke="#053456" stroke-width="1.5" stroke-linecap="round" stroke-linejoin="round"/>
<path d="M7.44267 26.0002C8.24359 24.7688 9.12356 23.5252 10.0823 22.28C10.9855 21.1069 11.956 19.9366 12.9936 18.7688C13.8822 17.7689 14.8158 16.7775 15.7944 15.7947C16.7747 14.8144 17.7661 13.8808 18.7684 12.9939C19.9889 13.5757 21.1716 14.2334 22.3098 14.9632C21.0168 16.0225 19.7239 17.1897 18.4567 18.457C17.2059 19.7078 16.0326 20.9802 14.9322 22.2601C13.9213 23.4361 12.9773 24.6153 12.1002 25.7978C11.2411 26.9553 10.45 28.1064 9.72703 29.251C4.61987 37.3387 3.07663 44.7859 6.47654 48.1858L3.81426 45.5235C0.332005 42.0413 2.0358 34.3134 7.44267 26.0002Z" stroke="#053456" stroke-width="1.5" stroke-linecap="round" stroke-linejoin="round"/>
<path d="M34.3946 26.0003C35.3388 24.817 36.2207 23.5853 37.0367 22.3102C37.7665 21.1721 38.4243 19.9894 39.0061 18.769C40.3625 15.8888 40.9386 13.3193 40.5711 11.429C40.442 10.6506 40.0801 9.9296 39.5331 9.36096C37.7143 7.54209 34.0417 7.95822 29.7201 10.0826C28.4749 9.12384 27.2349 8.24395 26 7.44298C34.3131 2.03602 42.0409 0.332245 45.5232 3.81452C48.9231 7.21445 47.3799 14.6617 42.2727 22.7494C41.5518 23.891 40.7607 25.0421 39.8995 26.2027C39.024 27.3822 38.08 28.5614 37.0675 29.7403C35.9671 31.0202 34.7938 32.2927 33.543 33.5434C32.2758 34.8107 30.9829 35.9779 29.6899 37.0371C28.4149 36.2211 27.1833 35.3392 26 34.3949C29.1088 31.9256 31.9252 29.1091 34.3946 26.0003Z" stroke="#053456" stroke-width="1.5" stroke-linecap="round" stroke-linejoin="round"/>
</g>
<defs>
<clipPath id="clip0_1923_1771">
<rect width="52" height="52" fill="white"/>
</clipPath>
</defs>
</svg>
