<svg width="50" height="50" viewBox="0 0 50 50" fill="none" xmlns="http://www.w3.org/2000/svg">
<path d="M1 44.5422C13.5731 43.5322 26.0423 41.494 38.2822 38.448C34.2849 30.5159 29.8776 22.7969 25.0783 15.3223C33.8377 24.3926 41.8384 34.1654 49 44.5422C33.168 47.8189 16.832 47.8189 1 44.5422Z" stroke="#053456" stroke-width="1.5" stroke-linecap="round" stroke-linejoin="round"/>
<path d="M25 2.99976C19.5887 14.3866 15.1205 26.1975 11.6401 38.314C20.5124 38.8206 29.405 38.8658 38.2819 38.4492C26.0421 41.4952 13.573 43.5334 1 44.5434C6.07668 29.2026 14.2446 15.064 25 2.99976Z" stroke="#053456" stroke-width="1.5" stroke-linecap="round" stroke-linejoin="round"/>
<path d="M49.0005 44.5434C41.8389 34.1665 33.8382 24.3938 25.0788 15.3234C20.2034 22.7488 15.718 30.4227 11.6406 38.314C15.1211 26.1976 19.5894 14.3867 25.0005 2.99976C35.7559 15.0639 43.9239 29.2025 49.0005 44.5434Z" stroke="#053456" stroke-width="1.5" stroke-linecap="round" stroke-linejoin="round"/>
</svg>
