<svg width="50" height="50" viewBox="0 0 50 50" fill="none" xmlns="http://www.w3.org/2000/svg">
<path d="M32.3986 10.4736L28.6995 3.99976H21.3008L24.9999 10.4736H32.3986Z" stroke="#053456" stroke-width="1.5" stroke-linecap="round" stroke-linejoin="round"/>
<path d="M26.8359 26.632H30.5044L32.3693 23.3683H36.0995L37.9338 20.1582H30.535L26.8359 26.632Z" stroke="#053456" stroke-width="1.5" stroke-linecap="round" stroke-linejoin="round"/>
<path d="M34.2347 13.6838H26.8359L30.535 20.1577H37.9338L34.2347 13.6838Z" stroke="#053456" stroke-width="1.5" stroke-linecap="round" stroke-linejoin="round"/>
<path d="M34.2344 33.0514L36.0686 36.262L37.9028 33.0514H41.6331L43.4673 29.8413H36.0686L34.2344 33.0514Z" stroke="#053456" stroke-width="1.5" stroke-linecap="round" stroke-linejoin="round"/>
<path d="M36.0667 29.8417L32.3671 23.3679L30.5022 26.6317L28.668 29.8417L30.5022 33.0518H34.2325L36.0667 29.8417Z" stroke="#053456" stroke-width="1.5" stroke-linecap="round" stroke-linejoin="round"/>
<path d="M39.7659 23.3679H32.3672L36.0668 29.8417H43.4655L39.7659 23.3679Z" stroke="#053456" stroke-width="1.5" stroke-linecap="round" stroke-linejoin="round"/>
<path d="M41.602 39.5254L37.9023 45.9992H45.3011L49.0007 39.5254H41.602Z" stroke="#053456" stroke-width="1.5" stroke-linecap="round" stroke-linejoin="round"/>
<path d="M23.1337 20.1582H19.4647L15.7656 26.632H23.1644L24.9986 23.4214L23.1337 20.1582Z" stroke="#053456" stroke-width="1.5" stroke-linecap="round" stroke-linejoin="round"/>
<path d="M15.766 13.6838L12.0664 20.1577L15.766 26.6315L19.4651 20.1577L15.766 13.6838Z" stroke="#053456" stroke-width="1.5" stroke-linecap="round" stroke-linejoin="round"/>
<path d="M23.1337 20.1577L24.9679 16.9476H21.2995L19.4341 13.6838H15.7656L19.4647 20.1577H23.1337Z" stroke="#053456" stroke-width="1.5" stroke-linecap="round" stroke-linejoin="round"/>
<path d="M24.9999 10.4741L21.3008 16.9479H24.9692L24.9999 16.8943L26.8346 13.6842H30.5644L32.3986 10.4741H24.9999Z" stroke="#053456" stroke-width="1.5" stroke-linecap="round" stroke-linejoin="round"/>
<path d="M21.3012 3.99976L17.6016 10.4736L21.3012 16.9474L25.0003 10.4736L21.3012 3.99976Z" stroke="#053456" stroke-width="1.5" stroke-linecap="round" stroke-linejoin="round"/>
<path d="M26.8324 13.6838L23.1328 20.1577L26.8324 26.6315L30.5315 20.1577L26.8324 13.6838Z" stroke="#053456" stroke-width="1.5" stroke-linecap="round" stroke-linejoin="round"/>
<path d="M30.535 39.5254L26.8359 45.9992H34.2347L37.9338 39.5254H30.535Z" stroke="#053456" stroke-width="1.5" stroke-linecap="round" stroke-linejoin="round"/>
<path d="M37.9006 33.052L36.0664 36.2626L36.097 36.3157L37.9313 39.5258L36.0664 42.7896L37.9006 45.9996L41.6003 39.5258L37.9006 33.052Z" stroke="#053456" stroke-width="1.5" stroke-linecap="round" stroke-linejoin="round"/>
<path d="M45.3011 33.052H37.9023L41.602 39.5258H49.0007L45.3011 33.052Z" stroke="#053456" stroke-width="1.5" stroke-linecap="round" stroke-linejoin="round"/>
<path d="M25 36.2626L26.8649 39.5258L25 42.7896L26.8347 45.9996L30.5339 39.5258L26.8347 33.052L25 36.2626Z" stroke="#053456" stroke-width="1.5" stroke-linecap="round" stroke-linejoin="round"/>
<path d="M34.2347 33.052H26.8359L30.535 39.5258H37.9338L34.2347 33.052Z" stroke="#053456" stroke-width="1.5" stroke-linecap="round" stroke-linejoin="round"/>
<path d="M36.0391 36.315H36.1003L36.0697 36.2625L36.0391 36.315Z" stroke="#053456" stroke-width="1.5" stroke-linecap="round" stroke-linejoin="round"/>
<path d="M8.39833 39.5254L4.69922 45.9992H12.0979L15.7971 39.5254H8.39833Z" stroke="#053456" stroke-width="1.5" stroke-linecap="round" stroke-linejoin="round"/>
<path d="M19.4647 39.5254L15.7656 45.9992H23.1638L26.8635 39.5254H19.4647Z" stroke="#053456" stroke-width="1.5" stroke-linecap="round" stroke-linejoin="round"/>
<path d="M21.3322 29.8417L19.498 26.6317H15.7677L13.9028 23.3679H10.2344L13.9335 29.8417H21.3322Z" stroke="#053456" stroke-width="1.5" stroke-linecap="round" stroke-linejoin="round"/>
<path d="M1 39.5258L4.69962 45.9996L8.39873 39.5258L4.69962 33.052L1 39.5258Z" stroke="#053456" stroke-width="1.5" stroke-linecap="round" stroke-linejoin="round"/>
<path d="M10.2331 36.3157L8.36769 33.052H4.69922L8.39833 39.5258H15.7971L13.9628 36.3157H10.2331Z" stroke="#053456" stroke-width="1.5" stroke-linecap="round" stroke-linejoin="round"/>
<path d="M10.2309 23.3679L6.53125 29.8417L10.2309 36.3156L13.93 29.8417L10.2309 23.3679Z" stroke="#053456" stroke-width="1.5" stroke-linecap="round" stroke-linejoin="round"/>
<path d="M17.6332 36.3159H13.9642L15.7985 39.526L13.9336 42.7897L15.7678 45.9998L19.4674 39.526L17.6332 36.3159Z" stroke="#053456" stroke-width="1.5" stroke-linecap="round" stroke-linejoin="round"/>
<path d="M23.1662 33.052H19.4977L17.6328 36.3157L19.467 39.5258H26.8658L23.1662 33.052Z" stroke="#053456" stroke-width="1.5" stroke-linecap="round" stroke-linejoin="round"/>
<path d="M17.6331 36.3151H10.2344L13.9335 29.8413H21.3322L17.6331 36.3151Z" stroke="#053456" stroke-width="1.5" stroke-linecap="round" stroke-linejoin="round"/>
</svg>
