<svg width="50" height="50" viewBox="0 0 50 50" fill="none" xmlns="http://www.w3.org/2000/svg">
<g clip-path="url(#clip0_106_367)">
<path d="M31.2837 46.4288C33.483 47.8477 36.1039 48.466 38.7056 48.1798C41.3072 47.8936 43.731 46.7204 45.5694 44.8573L47.1765 43.2859C47.8811 42.5652 48.2756 41.5974 48.2756 40.5895C48.2756 39.5816 47.8811 38.6137 47.1765 37.893L40.3551 31.143C39.6404 30.4407 38.6785 30.0472 37.6765 30.0472C36.6745 30.0472 35.7126 30.4407 34.998 31.143V31.143C34.2773 31.8476 33.3094 32.2421 32.3015 32.2421C31.2936 32.2421 30.3258 31.8476 29.6051 31.143L18.8908 20.4288C18.5334 20.0765 18.2496 19.6568 18.0558 19.1939C17.8621 18.7309 17.7623 18.2341 17.7623 17.7323C17.7623 17.2305 17.8621 16.7337 18.0558 16.2708C18.2496 15.8079 18.5334 15.3881 18.8908 15.0359V15.0359C19.5931 14.3212 19.9867 13.3593 19.9867 12.3573C19.9867 11.3553 19.5931 10.3934 18.8908 9.67876L12.1051 2.89304C11.3844 2.18845 10.4166 1.79395 9.40867 1.79395C8.40078 1.79395 7.43293 2.18845 6.71224 2.89304L5.14081 4.50018C3.27776 6.33855 2.10451 8.76233 1.81833 11.364C1.53214 13.9657 2.15049 16.5865 3.56938 18.7859C10.9624 29.6814 20.3692 39.0639 31.2837 46.4288V46.4288Z" stroke="#053456" stroke-width="2" stroke-linecap="round" stroke-linejoin="round"/>
</g>
<defs>
<clipPath id="clip0_106_367">
<rect width="50" height="50" fill="white"/>
</clipPath>
</defs>
</svg>
