<svg width="50" height="50" viewBox="0 0 50 50" fill="none" xmlns="http://www.w3.org/2000/svg">
<path d="M25 1C33.3397 1 40.1133 7.86621 40.1133 16.2109C40.1133 19.3556 39.1541 22.3696 37.3369 24.9326L37.335 24.9346C37.1639 25.1775 37.8086 24.1741 32.5039 32.498L31.6797 33.791L33.1953 34.0244C35.6812 34.4065 38.9798 35.1588 41.6289 36.4102C44.3575 37.6991 45.9727 39.3027 45.9727 41.2109C45.9727 42.2982 45.4495 43.3218 44.3594 44.2891C43.2571 45.2671 41.632 46.1296 39.6104 46.8418C35.5728 48.2642 30.1987 49 25 49C19.4389 49 14.234 48.2177 10.3428 46.8281C7.55544 45.8327 5.97629 44.732 5.10059 43.748C4.24345 42.7848 4.02734 41.8983 4.02734 41.2109C4.02734 39.3036 5.64451 37.6997 8.375 36.4102C11.0255 35.1585 14.3242 34.4056 16.8047 34.0244L18.3203 33.791L17.4961 32.498L12.7764 25.0918L12.7607 25.0674L12.7432 25.0439L12.4023 24.5508C10.7488 22.0596 9.88672 19.1561 9.88672 16.2109C9.88672 7.85351 16.6876 1 25 1ZM30.7725 35.2148L25.3916 43.6582C25.3064 43.7918 25.1588 43.873 25 43.873C24.8807 43.873 24.7676 43.8274 24.6826 43.748L24.6084 43.6582L19.2266 35.2148L18.8877 34.6816L18.2598 34.7598C13.9025 35.3018 10.677 36.2745 8.50977 37.3643C7.42865 37.9079 6.57711 38.4982 5.98047 39.1074C5.40343 39.6966 4.95703 40.4174 4.95703 41.2109C4.95703 42.3251 5.76856 43.2604 6.71094 43.9688C7.70711 44.7175 9.11182 45.4139 10.8291 46.0117C14.2741 47.2108 19.1487 48.0703 25 48.0703C30.8854 48.0703 35.761 47.2062 39.1982 46.0039C40.9115 45.4046 42.3091 44.7069 43.2998 43.959C44.237 43.2514 45.043 42.3186 45.043 41.2109C45.043 40.4174 44.5966 39.6966 44.0195 39.1074C43.4229 38.4983 42.5713 37.9079 41.4902 37.3643C39.3229 36.2745 36.0969 35.3018 31.7393 34.7598L31.1123 34.6816L30.7725 35.2148ZM25 1.92969C17.1556 1.92969 10.8164 8.34027 10.8164 16.2109C10.8164 19.1462 11.7285 22.0669 13.5195 24.5312C13.5253 24.5391 13.5312 24.547 13.5361 24.5547V24.5557L24.1562 41.2197L25 42.543L25.8438 41.2197C31.5298 32.2974 34.1884 28.1229 35.4434 26.1553C36.7129 24.1648 36.5357 24.4497 36.5732 24.4004L36.584 24.3867L36.5938 24.373C38.2878 21.9742 39.1836 19.1503 39.1836 16.2109C39.1836 8.34228 32.8287 1.92969 25 1.92969Z" stroke="#053456" stroke-width="2"/>
<path d="M25 9.88672C28.4863 9.88672 31.3242 12.7246 31.3242 16.2109C31.3242 19.6972 28.4863 22.5352 25 22.5352C21.5137 22.5352 18.6758 19.6972 18.6758 16.2109C18.6758 12.7246 21.5137 9.88672 25 9.88672ZM25 10.8164C22.0246 10.8164 19.6055 13.2355 19.6055 16.2109C19.6055 19.1864 22.0246 21.6055 25 21.6055C27.9754 21.6055 30.3945 19.1864 30.3945 16.2109C30.3945 13.2355 27.9754 10.8164 25 10.8164Z" stroke="#053456" stroke-width="2"/>
</svg>
