<svg width="52" height="52" viewBox="0 0 52 52" fill="none" xmlns="http://www.w3.org/2000/svg">
<g clip-path="url(#clip0_1923_1610)">
<path d="M38.9272 25.3672L26.0014 3L20.0537 13.2919C21.8723 12.671 23.777 12.3397 25.6982 12.3103L26.0014 11.7858L39.3256 34.8425C40.3056 31.7349 40.1646 28.3815 38.9272 25.3672Z" stroke="#053456" stroke-width="1.5" stroke-linecap="round" stroke-linejoin="round"/>
<path d="M10.2759 40.136H9.61688L22.9695 17.0303C19.7754 17.7436 16.9321 19.5549 14.934 22.1491L2.00098 44.5289H13.9927C12.5317 43.2684 11.2775 41.786 10.2759 40.136Z" stroke="#053456" stroke-width="1.5" stroke-linecap="round" stroke-linejoin="round"/>
<path d="M27.4756 44.5291C24.2722 44.8648 21.0511 44.0846 18.3554 42.3201C15.6597 40.5557 13.6542 37.9148 12.677 34.8428L9.94824 39.5648C10.0553 39.7569 10.1634 39.9484 10.2771 40.1362C11.6623 42.4244 13.5295 44.3827 15.7483 45.8746C17.9672 47.3664 20.4844 48.356 23.1245 48.7742C25.7647 49.1924 28.4641 49.0292 31.0348 48.2961C33.6054 47.5629 35.9854 46.2774 38.0088 44.5291H27.4756Z" stroke="#053456" stroke-width="1.5" stroke-linecap="round" stroke-linejoin="round"/>
<path d="M26.3029 12.3106C26.2016 12.309 26.1014 12.303 25.9997 12.303C25.8981 12.303 25.7979 12.309 25.6966 12.3106C23.0131 12.3488 20.3707 12.9766 17.9562 14.1495C15.5418 15.3225 13.4142 17.0121 11.724 19.0988C10.0338 21.1855 8.82217 23.6184 8.17481 26.2255C7.52745 28.8326 7.46016 31.5502 7.97769 34.1861L13.0737 25.3679C14.324 22.3177 16.6111 19.8081 19.531 18.2825C22.4509 16.7569 25.8156 16.3134 29.0305 17.0306L26.3029 12.3106Z" stroke="#053456" stroke-width="1.5" stroke-linecap="round" stroke-linejoin="round"/>
<path d="M31.9492 13.2922L37.0678 22.1496C39.0852 24.7584 40.1093 28.0006 39.9569 31.296C39.8045 34.5915 38.4856 37.7251 36.2361 40.1363H41.7258C41.8395 39.9484 41.9475 39.7569 42.0546 39.5648C42.9905 37.8872 43.6551 36.0718 44.0236 34.186C44.8789 29.8304 44.1264 25.3121 41.9059 21.4697C39.6854 17.6273 36.1477 14.7217 31.9492 13.2922Z" stroke="#053456" stroke-width="1.5" stroke-linecap="round" stroke-linejoin="round"/>
<path d="M44.0233 34.1858C43.6548 36.0715 42.9902 37.8869 42.0543 39.5646L42.3846 40.136H15.7666C18.0601 42.6123 21.1723 44.1729 24.527 44.5289H50.0005L44.0233 34.1858Z" stroke="#053456" stroke-width="1.5" stroke-linecap="round" stroke-linejoin="round"/>
</g>
<defs>
<clipPath id="clip0_1923_1610">
<rect width="52" height="52" fill="white"/>
</clipPath>
</defs>
</svg>
