<svg width="30" height="30" viewBox="0 0 30 30" fill="none" xmlns="http://www.w3.org/2000/svg">
<g clip-path="url(#clip0_625_109)">
<path d="M3.21415 12.8574H5.357C5.64116 12.8574 5.91369 12.9703 6.11462 13.1712C6.31555 13.3722 6.42843 13.6447 6.42843 13.9289V19.286C6.42843 19.5702 6.31555 19.8427 6.11462 20.0436C5.91369 20.2445 5.64116 20.3574 5.357 20.3574H3.21415C2.64583 20.3574 2.10078 20.1317 1.69892 19.7298C1.29705 19.3279 1.07129 18.7829 1.07129 18.2146V15.0003C1.07129 14.432 1.29705 13.8869 1.69892 13.4851C2.10078 13.0832 2.64583 12.8574 3.21415 12.8574V12.8574Z" stroke="white" stroke-width="1.5" stroke-linecap="round" stroke-linejoin="round"/>
<path d="M26.7859 20.3574H24.643C24.3588 20.3574 24.0863 20.2445 23.8854 20.0436C23.6844 19.8427 23.5716 19.5702 23.5716 19.286V13.9289C23.5716 13.6447 23.6844 13.3722 23.8854 13.1712C24.0863 12.9703 24.3588 12.8574 24.643 12.8574H26.7859C27.3542 12.8574 27.8992 13.0832 28.3011 13.4851C28.7029 13.8869 28.9287 14.432 28.9287 15.0003V18.2146C28.9287 18.7829 28.7029 19.3279 28.3011 19.7298C27.8992 20.1317 27.3542 20.3574 26.7859 20.3574V20.3574Z" stroke="white" stroke-width="1.5" stroke-linecap="round" stroke-linejoin="round"/>
<path d="M20.3574 26.2503C21.4941 26.2503 22.5842 25.7987 23.3879 24.995C24.1916 24.1913 24.6431 23.1012 24.6431 21.9646V20.3574" stroke="white" stroke-width="1.5" stroke-linecap="round" stroke-linejoin="round"/>
<path d="M17.678 23.5713C18.3884 23.5713 19.0697 23.8535 19.572 24.3558C20.0744 24.8582 20.3566 25.5395 20.3566 26.2499C20.3566 26.9603 20.0744 27.6416 19.572 28.1439C19.0697 28.6462 18.3884 28.9284 17.678 28.9284H14.4637C13.7533 28.9284 13.072 28.6462 12.5697 28.1439C12.0674 27.6416 11.7852 26.9603 11.7852 26.2499C11.7852 25.5395 12.0674 24.8582 12.5697 24.3558C13.072 23.8535 13.7533 23.5713 14.4637 23.5713H17.678Z" stroke="white" stroke-width="1.5" stroke-linecap="round" stroke-linejoin="round"/>
<path d="M5.35742 12.857V10.7141C5.35742 8.1567 6.37336 5.704 8.18175 3.89562C9.99014 2.08723 12.4428 1.07129 15.0003 1.07129C17.5577 1.07129 20.0104 2.08723 21.8188 3.89562C23.6272 5.704 24.6431 8.1567 24.6431 10.7141V12.857" stroke="white" stroke-width="1.5" stroke-linecap="round" stroke-linejoin="round"/>
<path d="M11.7852 8.57129V11.7856" stroke="white" stroke-width="1.5" stroke-linecap="round" stroke-linejoin="round"/>
<path d="M18.2139 8.57129V11.7856" stroke="white" stroke-width="1.5" stroke-linecap="round" stroke-linejoin="round"/>
<path d="M11.7852 16.0713C11.7852 18.9213 18.2137 18.9213 18.2137 16.0713" stroke="white" stroke-width="1.5" stroke-linecap="round" stroke-linejoin="round"/>
</g>
<defs>
<clipPath id="clip0_625_109">
<rect width="30" height="30" fill="white"/>
</clipPath>
</defs>
</svg>
