<svg width="50" height="50" viewBox="0 0 50 50" fill="none" xmlns="http://www.w3.org/2000/svg">
<path d="M12.0266 15.6143L4.85156 28.2326H12.2047H12.2093L19.3849 15.6143H12.0266Z" stroke="#053456" stroke-width="1.5" stroke-linecap="round" stroke-linejoin="round"/>
<path d="M26.8413 2.5L23.1626 8.97008L30.4863 21.85L34.1655 15.38L26.8413 2.5Z" stroke="#053456" stroke-width="1.5" stroke-linecap="round" stroke-linejoin="round"/>
<path d="M12.2089 28.2393L12.2119 28.2325H12.2051L12.2089 28.2393Z" stroke="#053456" stroke-width="1.5" stroke-linecap="round" stroke-linejoin="round"/>
<path d="M23.1612 8.96997H1.25L8.52672 21.7673L12.0252 15.6143H19.3834L22.996 21.8499H30.4854L23.1612 8.96997Z" stroke="#053456" stroke-width="1.5" stroke-linecap="round" stroke-linejoin="round"/>
<path d="M4.92914 2.5L1.25 8.97008H23.1612L26.8403 2.5H4.92914Z" stroke="#053456" stroke-width="1.5" stroke-linecap="round" stroke-linejoin="round"/>
<path d="M23.0476 34.7027L19.2993 28.2326L22.997 21.8499L19.3845 15.6143L12.209 28.2326L23.1648 47.5L30.4416 34.7027H23.0476Z" stroke="#053456" stroke-width="1.5" stroke-linecap="round" stroke-linejoin="round"/>
<path d="M12.2093 28.2325L12.2073 28.2373L12.2047 28.2325H4.85156L15.8074 47.4999H23.1652L12.2093 28.2325Z" stroke="#053456" stroke-width="1.5" stroke-linecap="round" stroke-linejoin="round"/>
<path d="M34.1136 28.2325H19.2969L23.0452 34.7026H37.7922L34.1136 28.2325Z" stroke="#053456" stroke-width="1.5" stroke-linecap="round" stroke-linejoin="round"/>
<path d="M45.075 8.96997L34.1191 28.2373L37.7957 34.7027L48.7516 15.4359L45.075 8.96997Z" stroke="#053456" stroke-width="1.5" stroke-linecap="round" stroke-linejoin="round"/>
<path d="M30.5181 8.96997L34.1632 15.3799L30.484 21.8499H22.9946L19.2969 28.2326H34.1136L45.0715 8.96997H30.5181Z" stroke="#053456" stroke-width="1.5" stroke-linecap="round" stroke-linejoin="round"/>
</svg>
