<svg width="110" height="110" viewBox="0 0 110 110" fill="none" xmlns="http://www.w3.org/2000/svg">
<g opacity="0.2">
<path d="M22.1127 58.1446C24.5883 55.2366 27.4428 52.6766 30.5992 50.5337C31.3882 49.9986 32.1982 49.5061 33.0151 49.0288C39.7091 45.1554 47.2996 43.1166 55.0259 43.1166C62.7521 43.1166 70.3426 45.1554 77.0366 49.0288C77.0289 48.0879 77.0048 47.1451 76.9329 46.199C76.6431 42.4045 75.8395 38.6675 74.5445 35.0909C61.9501 30.408 48.1016 30.4078 35.5071 35.0905C31.4677 36.5953 27.6212 38.5777 24.0488 40.9959C23.2864 41.5129 22.5451 42.0532 21.8139 42.6045C15.9963 46.9927 11.117 52.5106 7.46639 58.83C2.18697 67.9156 1.23711 80.4012 6.51638 89.4869C11.7958 98.5735 23.1512 103.998 33.7097 103.998C41.0245 104.02 48.2707 102.581 55.0258 99.7639C54.2489 99.4394 53.4777 99.097 52.7123 98.7369L52.6554 98.7114C52.6066 98.6884 52.5562 98.6693 52.5075 98.6459C48.6213 96.7854 44.97 94.4662 41.6311 91.7373C39.017 92.2107 36.366 92.4493 33.7097 92.4504C27.3524 92.4504 19.759 89.1846 16.5804 83.7132C13.4016 78.2428 14.3503 70.0762 17.5301 64.6049C18.8609 62.3174 20.3946 60.1552 22.1127 58.1446Z" stroke="white" stroke-width="1.5" stroke-miterlimit="10"/>
<path d="M88.5206 45.332C88.4511 44.418 88.351 43.5104 88.236 42.6059C87.3133 35.3831 84.9429 28.4228 81.2678 22.1448C75.9885 13.0593 65.5819 6 55.0244 6C44.4669 6 34.0601 13.0615 28.7809 22.146C25.1056 28.4235 22.7352 35.3835 21.8125 42.6059C22.5437 42.0546 23.285 41.5143 24.0474 40.9973C27.6197 38.5791 31.4663 36.5967 35.5057 35.0919C36.4006 32.6051 37.5182 30.205 38.8447 27.9208C42.0234 22.4505 48.6669 17.5473 55.0244 17.5473C61.3819 17.5473 68.0251 22.4482 71.2039 27.9197C72.5306 30.2043 73.6483 32.605 74.5431 35.0923C75.8381 38.6689 76.6417 42.4059 76.9315 46.2004C77.0033 47.1465 77.0274 48.0893 77.0352 49.0302C77.055 56.7397 75.0256 64.315 71.1565 70.9746C67.2873 77.6342 61.7185 83.1369 55.0244 86.9152C55.8482 87.3792 56.6821 87.8297 57.5426 88.2411C60.9964 89.8887 64.6543 91.065 68.4189 91.7387C78.7692 83.2893 85.7062 71.3501 87.9372 58.1461C88.6458 53.914 88.8417 49.6114 88.5206 45.332Z" stroke="white" stroke-width="1.5" stroke-miterlimit="10"/>
<path d="M102.584 58.833C98.9335 52.513 94.0541 46.9947 88.236 42.6064C88.351 43.511 88.4511 44.4186 88.5207 45.3325C88.8418 49.6119 88.6459 53.9145 87.9373 58.1466C89.6555 60.1574 91.1893 62.32 92.5199 64.6079C95.6986 70.0782 96.6485 78.2447 93.4699 83.7152C90.291 89.1865 82.6978 92.4523 76.3403 92.4523C73.684 92.4513 71.0331 92.2126 68.419 91.7392C64.6544 91.0655 60.9965 89.8892 57.5426 88.2416C56.6822 87.8302 55.8483 87.3797 55.0245 86.9157C48.3304 83.1375 42.7615 77.6348 38.8924 70.9752C35.0232 64.3156 32.9939 56.7403 33.0137 49.0307C32.1969 49.5081 31.3869 50.0006 30.5979 50.5357C27.4414 52.6786 24.5869 55.2385 22.1113 58.1465C24.3423 71.3506 31.2794 83.2899 41.6297 91.7393C44.9687 94.4681 48.6199 96.7874 52.5061 98.6479C52.5548 98.6712 52.6052 98.6904 52.6541 98.7134C52.673 98.7224 52.6922 98.7299 52.7109 98.7388C53.476 99.1004 54.2471 99.4428 55.0245 99.7658C61.7795 102.583 69.0255 104.022 76.3403 104C86.8991 104 98.2544 98.5755 103.534 89.4889C108.813 80.4031 107.862 67.9175 102.584 58.833Z" stroke="white" stroke-width="1.5" stroke-miterlimit="10"/>
</g>
</svg>
