<svg width="50" height="50" viewBox="0 0 50 50" fill="none" xmlns="http://www.w3.org/2000/svg">
<g clip-path="url(#clip0_1914_336)">
<path d="M9.97574 26.4445C11.106 25.1092 12.4092 23.9337 13.8502 22.9497C14.2104 22.704 14.5802 22.4778 14.9531 22.2587C18.0092 20.4801 21.4746 19.5439 25.0019 19.5439C28.5293 19.5439 31.9947 20.4801 35.0508 22.2587C35.0472 21.8266 35.0362 21.3937 35.0034 20.9593C34.8711 19.2169 34.5042 17.5009 33.913 15.8586C28.1631 13.7083 21.8407 13.7083 16.0908 15.8584C14.2467 16.5494 12.4906 17.4597 10.8596 18.5701C10.5116 18.8075 10.1732 19.0556 9.83933 19.3088C7.18333 21.3237 4.95576 23.8575 3.28909 26.7592C0.878819 30.9312 0.44517 36.6644 2.85537 40.8364C5.26563 45.0088 10.4498 47.4995 15.2702 47.4995C18.6098 47.5099 21.9179 46.849 25.0019 45.5554C24.6472 45.4064 24.2951 45.2492 23.9457 45.0838L23.9197 45.0721C23.8974 45.0616 23.8744 45.0528 23.8522 45.0421C22.078 44.1877 20.411 43.1228 18.8867 41.8697C17.6932 42.0871 16.483 42.1967 15.2702 42.1972C12.3678 42.1972 8.90116 40.6976 7.44999 38.1852C5.99876 35.6733 6.43186 31.9233 7.88358 29.411C8.49113 28.3606 9.19136 27.3677 9.97574 26.4445Z" stroke="#053456" stroke-width="1.5" stroke-miterlimit="10"/>
<path d="M40.2909 20.5606C40.2592 20.1409 40.2135 19.7242 40.161 19.3088C39.7397 15.9923 38.6575 12.7962 36.9797 9.91343C34.5695 5.74149 29.8185 2.5 24.9985 2.5C20.1786 2.5 15.4275 5.74252 13.0173 9.91396C11.3394 12.7965 10.2572 15.9924 9.83594 19.3088C10.1698 19.0557 10.5082 18.8076 10.8562 18.5702C12.4872 17.4598 14.2433 16.5495 16.0874 15.8585C16.496 14.7166 17.0062 13.6145 17.6118 12.5657C19.063 10.0538 22.096 7.80234 24.9985 7.80234C27.901 7.80234 30.9339 10.0527 32.3851 12.5652C32.9908 13.6142 33.5011 14.7166 33.9096 15.8587C34.5008 17.501 34.8677 19.217 35 20.9593C35.0328 21.3938 35.0438 21.8267 35.0474 22.2587C35.0564 25.7989 34.1299 29.2773 32.3635 32.3353C30.597 35.3932 28.0546 37.92 24.9985 39.6549C25.3746 39.868 25.7553 40.0749 26.1482 40.2638C27.725 41.0203 29.395 41.5604 31.1137 41.8698C35.839 37.99 39.006 32.5077 40.0246 26.4446C40.3481 24.5013 40.4375 22.5256 40.2909 20.5606Z" stroke="#053456" stroke-width="1.5" stroke-miterlimit="10"/>
<path d="M46.7117 26.7601C45.0451 23.858 42.8175 21.3241 40.1613 19.3091C40.2138 19.7244 40.2595 20.1412 40.2913 20.5609C40.4378 22.5259 40.3484 24.5016 40.0249 26.4449C40.8093 27.3682 41.5096 28.3612 42.117 29.4118C43.5683 31.9237 44.0019 35.6736 42.5508 38.1855C41.0995 40.6979 37.6329 42.1975 34.7304 42.1975C33.5177 42.197 32.3075 42.0874 31.114 41.8701C29.3953 41.5607 27.7253 41.0206 26.1485 40.264C25.7557 40.0751 25.375 39.8682 24.9989 39.6552C21.9427 37.9203 19.4003 35.3935 17.6339 32.3355C15.8675 29.2776 14.941 25.7991 14.95 22.259C14.5771 22.4782 14.2073 22.7044 13.8471 22.9501C12.4061 23.934 11.1029 25.1095 9.97266 26.4448C10.9912 32.5079 14.1583 37.9902 18.8836 41.8701C20.408 43.1231 22.0749 44.1881 23.8491 45.0424C23.8714 45.0531 23.8944 45.0619 23.9167 45.0725C23.9253 45.0766 23.9341 45.08 23.9426 45.0842C24.2919 45.2502 24.644 45.4074 24.9988 45.5557C28.0828 46.8494 31.3909 47.5102 34.7304 47.4999C39.5509 47.4999 44.7351 45.0091 47.1453 40.8367C49.5555 36.6647 49.1213 30.9315 46.7117 26.7601Z" stroke="#053456" stroke-width="1.5" stroke-miterlimit="10"/>
</g>
<defs>
<clipPath id="clip0_1914_336">
<rect width="50" height="50" fill="white"/>
</clipPath>
</defs>
</svg>
