<svg width="52" height="52" viewBox="0 0 52 52" fill="none" xmlns="http://www.w3.org/2000/svg">
<g clip-path="url(#clip0_1923_1677)">
<path d="M29.5947 9.25598L34.8461 12.9709C36.4017 14.0749 37.567 15.6184 38.1823 17.3899C38.7975 19.1613 38.8326 21.0739 38.2827 22.8655L33.5911 36.9239C35.5151 36.8763 37.3763 36.2503 38.9175 35.1325C40.4587 34.0147 41.6037 32.4603 42.1942 30.6841L44.2001 24.6733C45.1857 21.7243 45.1865 18.5489 44.2023 15.5995C43.2181 12.65 41.2991 10.0769 38.7187 8.24667L35.5916 6.03454C32.807 4.06282 29.4482 3.00024 26.0002 3.00024C22.5522 3.00024 19.1934 4.06282 16.4089 6.03454L11.8555 9.2556C14.4306 7.43238 17.5366 6.44988 20.7251 6.44995C23.9137 6.45002 27.0197 7.43265 29.5947 9.25598Z" stroke="#053456" stroke-width="1.5" stroke-linecap="round" stroke-linejoin="round"/>
<path d="M10.0213 18.0161L15.2728 14.3012C16.8258 13.2023 18.6933 12.5999 20.6157 12.5776C22.5381 12.5552 24.42 13.1141 25.9997 14.1766L38.2822 22.8652C38.8321 21.0737 38.797 19.1611 38.1818 17.3896C37.5665 15.6182 36.4012 14.0746 34.8456 12.9706L29.5942 9.25575C27.0192 7.43242 23.9132 6.44978 20.7246 6.44971C17.5361 6.44964 14.43 7.43214 11.855 9.25536L8.72776 11.4675C5.93725 13.4466 3.862 16.229 2.79765 19.4184C1.7333 22.6079 1.73414 26.0417 2.80003 29.2307L4.53923 34.4423C3.55377 31.4933 3.55317 28.3179 4.5375 25.3686C5.52183 22.4192 7.4409 19.8462 10.0213 18.0161Z" stroke="#053456" stroke-width="1.5" stroke-linecap="round" stroke-linejoin="round"/>
<path d="M44.201 24.6732L42.1951 30.684C41.6046 32.4602 40.4596 34.0146 38.9184 35.1324C37.3772 36.2502 35.516 36.8762 33.592 36.9238H18.4102C19.044 38.6857 20.2268 40.2132 21.7949 41.2949C23.3631 42.3766 25.2391 42.9591 27.1636 42.962H33.6548C36.8466 42.9582 39.9551 41.9735 42.5336 40.1495C45.1122 38.3255 47.0282 35.7559 48.0064 32.8099L49.2008 29.2308C50.2667 26.0418 50.2675 22.608 49.2031 19.4186C48.1388 16.2291 46.0635 13.4467 43.273 11.4677L38.7196 8.24658C41.3 10.0768 43.219 12.6499 44.2032 15.5994C45.1874 18.5488 45.1866 21.7242 44.201 24.6732Z" stroke="#053456" stroke-width="1.5" stroke-linecap="round" stroke-linejoin="round"/>
<path d="M12.5331 38.8479L10.5272 32.837C9.93364 31.0586 9.92186 29.1456 10.4935 27.3604C11.0651 25.5753 12.1922 24.0052 13.7203 22.8655L26.0028 14.1768C24.423 13.1144 22.5412 12.5555 20.6188 12.5778C18.6964 12.6001 16.8289 13.2026 15.2759 14.3014L10.0244 18.0164C7.44395 19.8465 5.52488 22.4195 4.54055 25.3688C3.55621 28.3182 3.55681 31.4935 4.54226 34.4425L5.7368 38.0221C6.79446 41.2078 8.86628 43.9865 11.6546 45.9589C14.443 47.9314 17.8044 48.9962 21.2559 49.0003H26.884C23.6923 48.9963 20.5839 48.0116 18.0055 46.1875C15.427 44.3634 13.5112 41.7938 12.5331 38.8479Z" stroke="#053456" stroke-width="1.5" stroke-linecap="round" stroke-linejoin="round"/>
<path d="M46.2658 38.0221L48.0051 32.81C47.0269 35.756 45.1109 38.3256 42.5324 40.1496C39.9538 41.9736 36.8454 42.9583 33.6535 42.9621H27.1623C25.2379 42.9593 23.3618 42.3767 21.7937 41.295C20.2255 40.2133 19.0428 38.6858 18.4089 36.9239L13.7173 22.8655C12.1893 24.0052 11.0622 25.5753 10.4906 27.3605C9.91893 29.1456 9.93072 31.0586 10.5243 32.837L12.5302 38.8479C13.5083 41.7938 15.4241 44.3634 18.0025 46.1875C20.581 48.0116 23.6893 48.9963 26.8811 49.0003H30.7467C34.1982 48.9962 37.5596 47.9315 40.348 45.959C43.1363 43.9865 45.2081 41.2078 46.2658 38.0221Z" stroke="#053456" stroke-width="1.5" stroke-linecap="round" stroke-linejoin="round"/>
</g>
<defs>
<clipPath id="clip0_1923_1677">
<rect width="52" height="52" fill="white"/>
</clipPath>
</defs>
</svg>
