<svg width="52" height="52" viewBox="0 0 52 52" fill="none" xmlns="http://www.w3.org/2000/svg">
<g clip-path="url(#clip0_1923_1644)">
<path d="M38.2917 24.4036L33.5963 38.9651L31.9786 43.9827H9.54785L11.1656 49.0003H35.596L42.5275 27.505L38.2917 24.4036Z" stroke="#053456" stroke-width="1.5" stroke-linecap="round" stroke-linejoin="round"/>
<path d="M30.2358 12.303L26 15.4044L38.2928 24.4035L42.5286 27.505L35.5971 49.0002H40.8333L48.3827 25.5883L30.2358 12.303Z" stroke="#053456" stroke-width="1.5" stroke-linecap="round" stroke-linejoin="round"/>
<path d="M30.2358 6.10107L12.0889 19.3859L13.7071 24.4035L25.9999 15.4043L30.2358 12.3029L48.3826 25.5882L50.0004 20.5706L30.2358 6.10107Z" stroke="#053456" stroke-width="1.5" stroke-linecap="round" stroke-linejoin="round"/>
<path d="M25.999 3.00024L6.23438 17.4698L13.1659 38.9651H18.4016L13.7062 24.4035L12.0879 19.386L30.2348 6.10116L25.999 3.00024Z" stroke="#053456" stroke-width="1.5" stroke-linecap="round" stroke-linejoin="round"/>
<path d="M18.403 38.965H13.1674L6.23582 17.4697L2 20.5706L9.54941 43.9826H31.9801L33.5978 38.965H18.403Z" stroke="#053456" stroke-width="1.5" stroke-linecap="round" stroke-linejoin="round"/>
</g>
<defs>
<clipPath id="clip0_1923_1644">
<rect width="52" height="52" fill="white"/>
</clipPath>
</defs>
</svg>
