<svg width="120" height="120" viewBox="0 0 120 120" fill="none" xmlns="http://www.w3.org/2000/svg">
<g opacity="0.1">
<mask id="path-2-inside-1_2005_491" fill="white">
<path d="M59.9085 4C72.2235 4.00035 84.2833 12.1277 90.3977 22.543L90.7893 23.2168C94.7434 30.1015 97.3197 37.6833 98.3763 45.5439C104.964 50.5137 110.495 56.7346 114.646 63.8477L114.929 64.3389C120.792 74.7102 121.795 88.7761 115.726 99.1172C109.562 109.62 96.3732 115.822 84.1565 115.822L84.1575 115.823C76.0037 115.848 67.9236 114.311 60.3597 111.297L59.9143 111.116C52.2229 114.248 43.9868 115.849 35.6731 115.824L35.6722 115.823L35.6712 115.824V115.823C23.4549 115.823 10.2661 109.621 4.10184 99.1182C-2.06436 88.6127 -0.931318 74.2631 5.1829 63.8467C9.33067 56.7395 14.8556 50.5224 21.4368 45.5547C22.5269 37.4335 25.2401 29.6098 29.4182 22.5449C35.5327 12.1306 47.5929 4 59.9085 4ZM81.5159 38.084C67.4506 32.9961 52.0195 33.0354 37.9759 38.2041C33.4381 39.8776 29.1167 42.0825 25.1038 44.7715L25.1048 44.7725C24.2517 45.3452 23.4192 45.9456 22.594 46.5615C16.0588 51.4414 10.5774 57.5776 6.47684 64.6045L6.47587 64.6055C0.582738 74.6452 -0.444921 88.4073 5.39579 98.3584C11.2386 108.313 23.876 114.324 35.6731 114.324H35.6751C43.2912 114.347 50.8407 112.972 57.9466 110.277C57.9437 110.276 57.9406 110.275 57.9378 110.273C57.6744 110.156 57.4118 110.036 57.1497 109.914C57.093 109.888 57.0355 109.863 56.9788 109.837L56.9143 109.809L56.9007 109.803C56.8881 109.797 56.873 109.79 56.8421 109.777C56.8154 109.766 56.7721 109.748 56.7278 109.727V109.726C56.6832 109.704 56.6386 109.682 56.594 109.661C56.1058 109.428 55.6206 109.19 55.139 108.944C55.025 108.886 54.9117 108.827 54.7981 108.769C54.3839 108.554 53.9719 108.337 53.5628 108.113C53.4755 108.066 53.389 108.017 53.302 107.969C53.1132 107.865 52.9243 107.76 52.7366 107.654C52.6723 107.618 52.6084 107.581 52.5442 107.544C52.3726 107.446 52.2013 107.348 52.0306 107.248C51.9095 107.178 51.7888 107.107 51.6682 107.035C51.5244 106.95 51.3807 106.865 51.2376 106.778C51.1302 106.714 51.0232 106.648 50.9163 106.583C50.7818 106.501 50.6478 106.418 50.514 106.335C50.3671 106.244 50.2206 106.152 50.0745 106.06C49.9795 105.999 49.885 105.939 49.7903 105.878C49.651 105.789 49.512 105.699 49.3733 105.608C49.2504 105.528 49.1275 105.448 49.0052 105.367C48.8481 105.263 48.6916 105.158 48.5354 105.053C48.4663 105.006 48.3974 104.959 48.3284 104.912C48.19 104.818 48.0519 104.723 47.9143 104.628C47.78 104.535 47.6456 104.442 47.512 104.348C47.4151 104.279 47.3185 104.21 47.222 104.142C47.0727 104.035 46.924 103.928 46.7757 103.82C46.68 103.751 46.5848 103.68 46.4895 103.61C46.3636 103.518 46.2379 103.425 46.1126 103.331C45.9971 103.245 45.8818 103.158 45.7669 103.071C45.6362 102.972 45.5061 102.873 45.3763 102.772C45.2608 102.684 45.1454 102.595 45.0306 102.505C44.9991 102.48 44.9672 102.456 44.9358 102.432L44.6448 102.2C44.5884 102.155 44.5312 102.111 44.4749 102.066C41.9458 102.503 39.388 102.754 36.8225 102.812L35.6731 102.824C31.94 102.824 27.8631 101.877 24.2532 100.143C20.7592 98.4633 17.6501 96.0197 15.7288 92.9199L15.5472 92.6182C13.6431 89.3744 12.9964 85.3749 13.2737 81.4307C13.5512 77.4835 14.7575 73.5324 16.6272 70.3477C18.1036 67.8354 19.7978 65.4564 21.6878 63.2354V63.2324L21.8694 63.0205C21.8853 63.002 21.9013 62.9833 21.9173 62.9648C24.7762 59.6405 28.0723 56.7133 31.7171 54.2637H31.7181C32.0851 54.0173 32.4563 53.7806 32.8284 53.5488C32.8858 53.5131 32.9428 53.4768 33.0003 53.4414C33.1394 53.3556 33.2788 53.2707 33.4182 53.1865C33.444 53.171 33.4696 53.1552 33.4954 53.1396C33.8322 52.9371 34.1697 52.7382 34.5071 52.543L34.51 52.542C34.5189 52.5369 34.5275 52.5314 34.5364 52.5264L35.638 51.8896L35.637 51.916C43.0829 47.8976 51.4274 45.7871 59.9134 45.7871C68.3889 45.7872 76.7225 47.8926 84.1614 51.9014C84.1438 51.2873 84.1194 50.675 84.0725 50.0635L84.0052 49.2764C83.6447 45.4582 82.8076 41.699 81.5159 38.084ZM98.6321 47.6367C98.6778 48.0798 98.7198 48.5249 98.7542 48.9717V48.9727C99.1151 53.7342 98.9069 58.5208 98.138 63.2334C99.783 65.1662 101.281 67.2178 102.615 69.374L103.201 70.3486L103.544 70.9541C105.218 74.0263 106.294 77.7305 106.554 81.4307C106.831 85.3746 106.185 89.3744 104.282 92.6182C102.378 95.8612 99.1818 98.4082 95.5755 100.142C91.9657 101.877 87.8888 102.824 84.1556 102.824H84.1546C81.2028 102.823 78.2568 102.567 75.3489 102.065L75.346 102.068L75.0091 102.009C70.6628 101.239 66.4391 99.8948 62.4515 98.0117L62.4505 98.0107C61.451 97.5377 60.4867 97.0211 59.5432 96.4951L58.3694 95.8408L58.3919 95.8271C51.1785 91.5394 45.1658 85.5044 40.9231 78.2754C36.6765 71.0396 34.3509 62.8578 34.1507 54.4971C33.9055 54.6453 33.6613 54.7951 33.4192 54.9473C33.3803 54.9718 33.3409 54.9958 33.302 55.0205C33.0882 55.1559 32.8771 55.2954 32.6663 55.4355L32.554 55.5088C31.7886 56.0232 31.0396 56.56 30.3069 57.1172C29.4094 57.7994 28.5374 58.5133 27.6917 59.2568C27.3181 59.5855 26.9493 59.9195 26.5862 60.2598C26.3757 60.457 26.1672 60.6564 25.9602 60.8574C25.0318 61.7598 24.1399 62.7002 23.2874 63.6768C25.8568 78.222 33.6178 91.3653 45.1546 100.688C48.9051 103.723 53.0069 106.302 57.3724 108.371L57.427 108.395C57.4523 108.405 57.4941 108.424 57.5364 108.443H57.5384C57.5401 108.444 57.5432 108.446 57.5472 108.447C57.5562 108.451 57.5775 108.461 57.6009 108.472H57.6018C57.7637 108.547 57.9258 108.622 58.0882 108.696C58.5185 108.892 58.9505 109.083 59.3841 109.27C59.6555 109.386 59.9277 109.501 60.2005 109.613L60.2015 109.614C67.7914 112.748 75.9336 114.348 84.1526 114.323H84.1556C95.9528 114.323 108.589 108.313 114.432 98.3584C120.273 88.4074 119.243 74.6451 113.352 64.6064L113.351 64.6055V64.6045C109.546 58.0843 104.553 52.331 98.6321 47.6367ZM22.0384 65.1631C20.521 67.0408 19.143 69.0267 17.9202 71.1074C16.174 74.0819 15.032 77.8073 14.7698 81.5361C14.5075 85.2678 15.1296 88.944 16.8401 91.8584V91.8594C18.5514 94.7752 21.4809 97.1454 24.9026 98.79C28.3211 100.433 32.1771 101.324 35.6731 101.324C38.1036 101.323 40.5296 101.143 42.9329 100.792C32.1379 91.5888 24.7752 79.0366 22.0384 65.1631ZM97.7835 65.1572C95.0475 79.033 87.6846 91.5867 76.888 100.791C79.2937 101.142 81.7226 101.323 84.1556 101.324C87.6516 101.324 91.5078 100.433 94.9261 98.79C98.3477 97.1454 101.276 94.7742 102.988 91.8584C104.698 88.944 105.32 85.2677 105.058 81.5361C104.796 77.8073 103.653 74.0814 101.908 71.1074C100.684 69.0241 99.3028 67.0369 97.7835 65.1572ZM59.9085 5.5C48.2133 5.5 36.6043 13.2674 30.7112 23.3057L30.7102 23.3086C26.8834 29.7794 24.3166 36.9021 23.137 44.3047C23.508 44.0415 23.8828 43.7806 24.263 43.5254H24.264C28.2802 40.8341 32.5981 38.6173 37.1292 36.918C38.1417 34.1923 39.3889 31.5582 40.8616 29.0479L41.2239 28.4531C43.0919 25.4918 45.814 22.7248 48.9388 20.6543C52.2695 18.4474 56.1082 16.999 59.9085 16.999C63.7085 16.9992 67.5468 18.446 70.8772 20.6523C74.2102 22.8604 77.0854 25.8623 78.9544 29.0469C80.4265 31.5564 81.6737 34.1893 82.6858 36.9141L82.6946 36.918L82.8138 37.2441C84.31 41.3348 85.2386 45.6093 85.5735 49.9492L85.6263 50.7646C85.6697 51.5781 85.687 52.3863 85.6936 53.1865L85.7044 54.4922L85.6731 54.4736C85.4764 62.8423 83.1501 71.033 78.8997 78.2754C74.6597 85.4997 68.6508 91.5302 61.4436 95.8174C61.6177 95.9099 61.7911 96.0035 61.9661 96.0938C62.2408 96.2356 62.5172 96.3737 62.7952 96.5088C62.8959 96.5577 62.9967 96.6074 63.0979 96.6553H63.0989C65.0156 97.5604 66.9885 98.337 69.0042 98.9814C70.9376 99.5986 72.91 100.095 74.9104 100.465C74.9185 100.466 74.9267 100.467 74.9349 100.469C86.4157 91.0843 94.11 77.8981 96.597 63.3271C97.3924 58.6237 97.6126 53.8418 97.2522 49.0859L97.1878 48.3271C97.1173 47.5691 97.0293 46.8124 96.9319 46.0547C95.8957 38.025 93.2332 30.2865 89.1057 23.3066L89.1048 23.3047C83.212 13.2653 71.6037 5.50035 59.9085 5.5ZM59.9134 47.2871C51.4042 47.2871 43.0419 49.4721 35.637 53.627C35.6913 62.0222 37.9581 70.2597 42.2171 77.5166C46.4774 84.7755 52.5789 90.7935 59.9095 94.9746C67.2414 90.7933 73.3458 84.7757 77.6067 77.5156C81.8656 70.2588 84.1315 62.0211 84.1858 53.626C76.7817 49.4723 68.4212 47.2872 59.9134 47.2871ZM59.9085 18.499C56.4793 18.499 52.9246 19.812 49.7669 21.9043C46.6117 23.995 43.9013 26.8326 42.1556 29.8066C40.9417 31.8757 39.8854 34.0318 38.9925 36.2549C52.549 31.6475 67.2634 31.6463 80.8206 36.251C80.0646 34.3692 79.1932 32.5352 78.2063 30.7617L77.6604 29.8057C75.9147 26.831 73.2043 23.9936 70.0491 21.9033C66.8917 19.8116 63.3376 18.4992 59.9085 18.499Z"/>
</mask>
<path d="M59.9085 4L59.9085 2.5H59.9085V4ZM90.3977 22.543L91.6946 21.7893L91.6913 21.7836L90.3977 22.543ZM90.7893 23.2168L92.0901 22.4697L92.0862 22.4631L90.7893 23.2168ZM98.3763 45.5439L96.8896 45.7438L96.973 46.3643L97.4729 46.7414L98.3763 45.5439ZM114.646 63.8477L115.945 63.0984L115.941 63.0917L114.646 63.8477ZM114.929 64.3389L116.235 63.6007L116.228 63.5897L114.929 64.3389ZM115.726 99.1172L114.432 98.3579L114.432 98.3579L115.726 99.1172ZM84.1565 115.822L84.1565 114.322L80.5354 114.322L83.0959 116.883L84.1565 115.822ZM84.1575 115.823L84.1621 117.323L87.7678 117.312L85.2182 114.763L84.1575 115.823ZM60.3597 111.297L59.7957 112.687L59.8045 112.69L60.3597 111.297ZM59.9143 111.116L60.4783 109.726L59.9133 109.497L59.3486 109.727L59.9143 111.116ZM35.6731 115.824L34.6125 116.885L35.0499 117.322L35.6686 117.324L35.6731 115.824ZM35.6722 115.823L36.7328 114.763L35.6722 113.702L34.6115 114.763L35.6722 115.823ZM35.6712 115.824H34.1712V119.446L36.7318 116.885L35.6712 115.824ZM35.6712 115.823H37.1712V114.323L35.6713 114.323L35.6712 115.823ZM4.10184 99.1182L5.39549 98.3589L5.39547 98.3589L4.10184 99.1182ZM5.1829 63.8467L6.47651 64.606L6.47841 64.6027L5.1829 63.8467ZM21.4368 45.5547L22.3405 46.7519L22.8402 46.3747L22.9235 45.7542L21.4368 45.5547ZM29.4182 22.5449L30.7094 23.3085L30.7118 23.3044L29.4182 22.5449ZM81.5159 38.084L82.9284 37.5793L82.6907 36.9138L82.0261 36.6734L81.5159 38.084ZM37.9759 38.2041L37.4578 36.7964L37.4568 36.7968L37.9759 38.2041ZM25.1038 44.7715L24.2688 43.5254L22.7525 44.5415L24.0431 45.8321L25.1038 44.7715ZM25.1048 44.7725L25.9409 46.0178L27.4549 45.0013L26.1654 43.7118L25.1048 44.7725ZM22.594 46.5615L21.6968 45.3595L21.6966 45.3596L22.594 46.5615ZM6.47684 64.6045L7.5375 65.6652L7.67464 65.528L7.77238 65.3605L6.47684 64.6045ZM6.47587 64.6055L5.41521 63.5448L5.27945 63.6806L5.18225 63.8461L6.47587 64.6055ZM5.39579 98.3584L6.68943 97.5991L6.68942 97.5991L5.39579 98.3584ZM35.6751 114.324L35.6797 112.824H35.6751V114.324ZM57.9466 110.277L58.4785 111.68L61.8798 110.39L58.5579 108.908L57.9466 110.277ZM57.9378 110.273L57.3253 111.643L57.3263 111.643L57.9378 110.273ZM57.1497 109.914L57.781 108.553L57.7782 108.552L57.1497 109.914ZM56.9788 109.837L57.6119 108.477L57.5971 108.47L57.5822 108.464L56.9788 109.837ZM56.9143 109.809L57.5178 108.435L57.5052 108.43L56.9143 109.809ZM56.9007 109.803L56.2659 111.162L56.2877 111.172L56.3098 111.181L56.9007 109.803ZM56.8421 109.777L57.4258 108.396L57.4258 108.396L56.8421 109.777ZM56.7278 109.727H55.2278V110.675L56.0853 111.082L56.7278 109.727ZM56.7278 109.726H58.2278V108.777L57.3702 108.37L56.7278 109.726ZM56.594 109.661L55.9484 111.015L55.9484 111.015L56.594 109.661ZM55.139 108.944L55.8196 107.608L55.8196 107.608L55.139 108.944ZM54.7981 108.769L54.1093 110.101L54.1093 110.101L54.7981 108.769ZM53.5628 108.113L54.2813 106.797L54.2813 106.797L53.5628 108.113ZM53.302 107.969L52.5773 109.282L52.5773 109.282L53.302 107.969ZM52.7366 107.654L53.475 106.349L53.475 106.349L52.7366 107.654ZM52.5442 107.544L51.8012 108.847L51.8012 108.847L52.5442 107.544ZM52.0306 107.248L51.2752 108.544L51.2752 108.544L52.0306 107.248ZM51.6682 107.035L52.4323 105.744L52.4323 105.744L51.6682 107.035ZM51.2376 106.778L50.4632 108.063L50.4632 108.063L51.2376 106.778ZM50.9163 106.583L51.6984 105.303L51.6984 105.303L50.9163 106.583ZM50.514 106.335L49.7221 107.609L49.7221 107.609L50.514 106.335ZM50.0745 106.06L50.8769 104.792L50.8769 104.792L50.0745 106.06ZM49.7903 105.878L48.9811 107.141L48.9811 107.141L49.7903 105.878ZM49.3733 105.608L50.1926 104.352L50.1926 104.352L49.3733 105.608ZM49.0052 105.367L48.1771 106.618L48.1771 106.618L49.0052 105.367ZM48.5354 105.053L49.3748 103.81L49.3748 103.81L48.5354 105.053ZM48.3284 104.912L47.484 106.152L47.484 106.152L48.3284 104.912ZM47.9143 104.628L48.7687 103.395L48.7687 103.395L47.9143 104.628ZM47.512 104.348L46.648 105.574L46.648 105.574L47.512 104.348ZM47.222 104.142L48.093 102.92L48.093 102.92L47.222 104.142ZM46.7757 103.82L45.8939 105.034L45.8939 105.034L46.7757 103.82ZM46.4895 103.61L47.3782 102.402L47.3782 102.402L46.4895 103.61ZM46.1126 103.331L45.2149 104.533L45.2149 104.533L46.1126 103.331ZM45.7669 103.071L44.8609 104.267L44.8609 104.267L45.7669 103.071ZM45.3763 102.772L46.2917 101.584L46.2917 101.584L45.3763 102.772ZM45.0306 102.505L44.1068 103.687L44.1068 103.687L45.0306 102.505ZM44.9358 102.432L44.0021 103.606L44.0098 103.612L44.9358 102.432ZM44.6448 102.2L45.5785 101.026L45.5778 101.026L44.6448 102.2ZM44.4749 102.066L45.412 100.895L44.885 100.474L44.22 100.588L44.4749 102.066ZM36.8225 102.812L36.8391 104.311L36.8477 104.311L36.8563 104.311L36.8225 102.812ZM35.6731 102.824V104.324H35.6814L35.6897 104.324L35.6731 102.824ZM24.2532 100.143L23.6034 101.495L23.6035 101.495L24.2532 100.143ZM15.7288 92.9199L14.4437 93.6935L14.4487 93.7019L14.4538 93.7102L15.7288 92.9199ZM15.5472 92.6182L14.2535 93.3775L14.2577 93.3846L14.262 93.3917L15.5472 92.6182ZM13.2737 81.4307L11.7774 81.3255L11.7774 81.3255L13.2737 81.4307ZM16.6272 70.3477L15.334 69.5877L15.3337 69.5882L16.6272 70.3477ZM21.6878 63.2354L22.8301 64.2075L23.1878 63.7872V63.2354H21.6878ZM21.6878 63.2324L20.5489 62.2562L20.1878 62.6775V63.2324H21.6878ZM21.8694 63.0205L20.7325 62.042L20.7305 62.0443L21.8694 63.0205ZM21.9173 62.9648L23.0528 63.945L23.0545 63.9429L21.9173 62.9648ZM31.7171 54.2637V52.7637H31.2599L30.8804 53.0187L31.7171 54.2637ZM31.7181 54.2637V55.7637H32.1748L32.5541 55.5091L31.7181 54.2637ZM32.8284 53.5488L32.0354 52.2756L32.0354 52.2756L32.8284 53.5488ZM33.0003 53.4414L33.7877 54.7181L33.7877 54.7181L33.0003 53.4414ZM33.4182 53.1865L32.6432 51.9023L32.6432 51.9023L33.4182 53.1865ZM33.4954 53.1396L32.7224 51.8541L32.7224 51.8542L33.4954 53.1396ZM34.5071 52.543L34.0328 51.1199L33.8881 51.1682L33.756 51.2446L34.5071 52.543ZM34.51 52.542L34.9844 53.965L35.126 53.9178L35.2556 53.8436L34.51 52.542ZM34.5364 52.5264L35.2812 53.8284L35.2871 53.825L34.5364 52.5264ZM35.638 51.8896L37.1369 51.9452L37.2374 49.2326L34.8873 50.591L35.638 51.8896ZM35.637 51.916L34.138 51.8605L34.0409 54.4819L36.3494 53.236L35.637 51.916ZM59.9134 45.7871L59.9134 44.2871L59.9134 44.2871L59.9134 45.7871ZM84.1614 51.9014L83.4498 53.2218L85.7351 54.4534L85.6608 51.8584L84.1614 51.9014ZM84.0725 50.0635L85.5682 49.9488L85.5671 49.9355L84.0725 50.0635ZM84.0052 49.2764L85.4998 49.1484L85.4985 49.1354L84.0052 49.2764ZM98.6321 47.6367L99.564 46.4613L96.775 44.2502L97.14 47.7906L98.6321 47.6367ZM98.7542 48.9717H100.254V48.9141L100.25 48.8567L98.7542 48.9717ZM98.7542 48.9727H97.2542V49.0294L97.2585 49.086L98.7542 48.9727ZM98.138 63.2334L96.6576 62.9918L96.5458 63.6769L96.9957 64.2056L98.138 63.2334ZM102.615 69.374L103.9 68.6002L103.895 68.5926L103.89 68.5851L102.615 69.374ZM103.201 70.3486L104.507 69.6096L104.497 69.5921L104.486 69.5748L103.201 70.3486ZM103.544 70.9541L104.861 70.2365L104.856 70.2258L104.85 70.2151L103.544 70.9541ZM106.554 81.4307L108.05 81.3254L108.05 81.3254L106.554 81.4307ZM104.282 92.6182L105.575 93.3774L105.575 93.3774L104.282 92.6182ZM95.5755 100.142L96.2253 101.494L96.2253 101.494L95.5755 100.142ZM84.1556 102.824L84.1556 104.324L84.1556 104.324L84.1556 102.824ZM84.1546 102.824L84.154 104.324H84.1546V102.824ZM75.3489 102.065L75.604 100.587L74.8379 100.455L74.2883 101.005L75.3489 102.065ZM75.346 102.068L75.0848 103.545L75.8542 103.681L76.4066 103.129L75.346 102.068ZM75.0091 102.009L74.7474 103.486L74.7479 103.486L75.0091 102.009ZM62.4515 98.0117L61.3908 99.0724L61.5752 99.2568L61.8109 99.3681L62.4515 98.0117ZM62.4505 98.0107L63.5111 96.9501L63.3272 96.7662L63.0922 96.6549L62.4505 98.0107ZM59.5432 96.4951L60.2737 95.185L60.2736 95.1849L59.5432 96.4951ZM58.3694 95.8408L57.5895 94.5595L55.3908 95.8978L57.6391 97.151L58.3694 95.8408ZM58.3919 95.8271L59.1718 97.1084L61.3019 95.8119L59.1583 94.5377L58.3919 95.8271ZM40.9231 78.2754L39.6295 79.0346L39.6295 79.0346L40.9231 78.2754ZM34.1507 54.4971L35.6502 54.4612L35.5883 51.875L33.3746 53.2135L34.1507 54.4971ZM33.4192 54.9473L32.6211 53.6772L32.6189 53.6786L33.4192 54.9473ZM33.302 55.0205L34.1045 56.2878L34.1066 56.2865L33.302 55.0205ZM32.6663 55.4355L33.4857 56.692L33.4968 56.6847L32.6663 55.4355ZM32.554 55.5088L31.7346 54.2524L31.7259 54.2581L31.7173 54.2638L32.554 55.5088ZM30.3069 57.1172L31.2146 58.3114L31.2149 58.3112L30.3069 57.1172ZM27.6917 59.2568L26.7012 58.1303L26.701 58.1306L27.6917 59.2568ZM26.5862 60.2598L27.6116 61.3545L27.6119 61.3543L26.5862 60.2598ZM25.9602 60.8574L24.915 59.7816L24.9148 59.7818L25.9602 60.8574ZM23.2874 63.6768L22.1574 62.6902L21.6854 63.2309L21.8103 63.9377L23.2874 63.6768ZM45.1546 100.688L46.098 99.5223L46.0974 99.5218L45.1546 100.688ZM57.3724 108.371L56.7299 109.727L56.7555 109.739L56.7815 109.75L57.3724 108.371ZM57.427 108.395L56.8362 109.773L56.8425 109.776L57.427 108.395ZM57.5364 108.443L56.9021 109.803L57.2037 109.943H57.5364V108.443ZM57.5384 108.443L58.1443 107.071L57.8548 106.943H57.5384V108.443ZM57.5472 108.447L58.1391 107.069L58.1374 107.068L57.5472 108.447ZM57.6009 108.472L56.9644 109.83L57.2668 109.972H57.6009V108.472ZM57.6018 108.472L58.2375 107.113L57.9354 106.972H57.6018V108.472ZM58.0882 108.696L57.4647 110.061L57.4663 110.061L58.0882 108.696ZM59.3841 109.27L58.7923 110.648L58.793 110.648L59.3841 109.27ZM60.2005 109.613L61.2611 108.553L61.0489 108.34L60.7713 108.226L60.2005 109.613ZM60.2015 109.614L59.1408 110.675L59.3524 110.887L59.629 111.001L60.2015 109.614ZM84.1526 114.323L84.1526 112.823L84.148 112.823L84.1526 114.323ZM84.1556 114.323L84.1556 115.823L84.1556 115.823L84.1556 114.323ZM114.432 98.3584L113.138 97.5991L113.138 97.5991L114.432 98.3584ZM113.352 64.6064L114.646 63.8472L114.548 63.6816L114.413 63.5458L113.352 64.6064ZM113.351 64.6055H111.851V65.2268L112.29 65.6661L113.351 64.6055ZM113.351 64.6045H114.851V64.1989L114.646 63.8485L113.351 64.6045ZM22.0384 65.1631L23.51 64.8728L22.8889 61.7241L20.8717 64.2203L22.0384 65.1631ZM17.9202 71.1074L16.627 70.3474L16.6266 70.348L17.9202 71.1074ZM14.7698 81.5361L13.2735 81.4309L13.2735 81.4309L14.7698 81.5361ZM16.8401 91.8584H18.3401V91.4507L18.1338 91.0991L16.8401 91.8584ZM16.8401 91.8594H15.3401V92.267L15.5465 92.6186L16.8401 91.8594ZM24.9026 98.79L24.2528 100.142L24.2529 100.142L24.9026 98.79ZM35.6731 101.324L35.6731 102.824L35.6737 102.824L35.6731 101.324ZM42.9329 100.792L43.1495 102.276L46.4252 101.798L43.9061 99.6505L42.9329 100.792ZM97.7835 65.1572L98.95 64.2143L96.9327 61.7185L96.3118 64.867L97.7835 65.1572ZM76.888 100.791L75.9148 99.6495L73.3961 101.797L76.6712 102.275L76.888 100.791ZM84.1556 101.324L84.155 102.824L84.1556 102.824L84.1556 101.324ZM94.9261 98.79L95.5758 100.142L95.5759 100.142L94.9261 98.79ZM102.988 91.8584L101.694 91.0991L101.694 91.0991L102.988 91.8584ZM105.058 81.5361L106.554 81.4309L106.554 81.4308L105.058 81.5361ZM101.908 71.1074L103.201 70.3481L103.201 70.3476L101.908 71.1074ZM59.9085 5.5L59.9085 4H59.9085V5.5ZM30.7112 23.3057L29.4177 22.5463L29.338 22.682L29.2882 22.8313L30.7112 23.3057ZM30.7102 23.3086L32.0014 24.0722L32.0827 23.9346L32.1333 23.7829L30.7102 23.3086ZM23.137 44.3047L21.6557 44.0686L21.094 47.5934L24.005 45.5281L23.137 44.3047ZM24.263 43.5254V42.0254H23.8061L23.4268 42.28L24.263 43.5254ZM24.264 43.5254V45.0254H24.7201L25.099 44.7715L24.264 43.5254ZM37.1292 36.918L37.6559 38.3224L38.2969 38.082L38.5353 37.4403L37.1292 36.918ZM40.8616 29.0479L39.5806 28.2675L39.5741 28.2781L39.5678 28.2888L40.8616 29.0479ZM41.2239 28.4531L39.9552 27.6529L39.949 27.6627L39.9429 27.6727L41.2239 28.4531ZM48.9388 20.6543L48.1102 19.4039L48.1102 19.4039L48.9388 20.6543ZM59.9085 16.999L59.9086 15.499H59.9085V16.999ZM70.8772 20.6523L71.7057 19.4019L71.7056 19.4018L70.8772 20.6523ZM78.9544 29.0469L80.2482 28.2879L80.2481 28.2877L78.9544 29.0469ZM82.6858 36.9141L81.2797 37.4364L81.4996 38.0283L82.0766 38.2848L82.6858 36.9141ZM82.6946 36.918L84.1036 36.4033L83.8853 35.8057L83.3038 35.5473L82.6946 36.918ZM82.8138 37.2441L81.4048 37.7588L81.405 37.7594L82.8138 37.2441ZM85.5735 49.9492L87.0704 49.8524L87.0698 49.8431L87.0691 49.8338L85.5735 49.9492ZM85.6263 50.7646L87.1241 50.6846L87.1237 50.6762L87.1231 50.6678L85.6263 50.7646ZM85.6936 53.1865L87.1936 53.1742L87.1936 53.174L85.6936 53.1865ZM85.7044 54.4922L84.9386 55.782L87.2262 57.1403L87.2043 54.4798L85.7044 54.4922ZM85.6731 54.4736L86.4389 53.1839L84.2338 51.8746L84.1735 54.4384L85.6731 54.4736ZM78.8997 78.2754L80.1933 79.0346L80.1934 79.0346L78.8997 78.2754ZM61.4436 95.8174L60.6768 94.5282L58.3858 95.891L60.7397 97.1419L61.4436 95.8174ZM61.9661 96.0938L62.6544 94.761L62.6534 94.7605L61.9661 96.0938ZM62.7952 96.5088L62.1394 97.8579L62.14 97.8581L62.7952 96.5088ZM63.0979 96.6553L62.4562 98.0111L62.7609 98.1553H63.0979V96.6553ZM63.0989 96.6553L63.7394 95.2989L63.4353 95.1553H63.0989V96.6553ZM69.0042 98.9814L68.5474 100.41L68.548 100.41L69.0042 98.9814ZM74.9104 100.465L75.1835 98.9899L75.1833 98.9899L74.9104 100.465ZM74.9349 100.469L74.6625 101.944L75.346 102.07L75.8842 101.63L74.9349 100.469ZM96.597 63.3271L98.0756 63.5795L98.076 63.5773L96.597 63.3271ZM97.2522 49.0859L98.748 48.9726L98.7469 48.959L97.2522 49.0859ZM97.1878 48.3271L98.6824 48.2002L98.6813 48.1883L97.1878 48.3271ZM96.9319 46.0547L98.4197 45.8635L98.4196 45.8627L96.9319 46.0547ZM89.1057 23.3066L87.7641 23.9775L87.7877 24.0247L87.8146 24.0701L89.1057 23.3066ZM89.1048 23.3047L90.4464 22.6339L90.4239 22.5888L90.3984 22.5454L89.1048 23.3047ZM59.9134 47.2871L59.9134 45.7871L59.9134 45.7871L59.9134 47.2871ZM35.637 53.627L34.903 52.3188L34.1313 52.7518L34.137 53.6367L35.637 53.627ZM42.2171 77.5166L40.9234 78.2758L40.9234 78.2759L42.2171 77.5166ZM59.9095 94.9746L59.1663 96.2776L59.9094 96.7014L60.6525 96.2776L59.9095 94.9746ZM77.6067 77.5156L78.9004 78.2749L78.9004 78.2749L77.6067 77.5156ZM84.1858 53.626L85.6858 53.6357L85.6915 52.7507L84.9197 52.3178L84.1858 53.626ZM59.9085 18.499L59.9086 16.999H59.9085V18.499ZM49.7669 21.9043L48.9384 20.6539L48.9383 20.6539L49.7669 21.9043ZM42.1556 29.8066L40.862 29.0473L40.8618 29.0476L42.1556 29.8066ZM38.9925 36.2549L37.6006 35.6958L36.3834 38.7259L39.4751 37.6751L38.9925 36.2549ZM80.8206 36.251L80.3382 37.6713L83.4296 38.7213L82.2125 35.6918L80.8206 36.251ZM78.2063 30.7617L79.5171 30.0324L79.513 30.0251L79.5089 30.0179L78.2063 30.7617ZM77.6604 29.8057L78.963 29.0619L78.9586 29.0541L78.9541 29.0464L77.6604 29.8057ZM70.0491 21.9033L70.8776 20.6529L70.8775 20.6528L70.0491 21.9033ZM59.9085 4L59.9084 5.5C71.6027 5.50033 83.2109 13.2638 89.1042 23.3024L90.3977 22.543L91.6913 21.7836C85.3558 10.9916 72.8443 2.50037 59.9085 2.5L59.9085 4ZM90.3977 22.543L89.1008 23.2967L89.4924 23.9705L90.7893 23.2168L92.0862 22.4631L91.6946 21.7893L90.3977 22.543ZM90.7893 23.2168L89.4886 23.9638C93.3459 30.68 95.859 38.076 96.8896 45.7438L98.3763 45.5439L99.8629 45.3441C98.7804 37.2905 96.1409 29.5229 92.0901 22.4697L90.7893 23.2168ZM98.3763 45.5439L97.4729 46.7414C103.903 51.5918 109.3 57.6629 113.35 64.6036L114.646 63.8477L115.941 63.0917C111.69 55.8064 106.026 49.4355 99.2796 44.3465L98.3763 45.5439ZM114.646 63.8477L113.346 64.5969L113.629 65.0881L114.929 64.3389L116.228 63.5897L115.945 63.0984L114.646 63.8477ZM114.929 64.3389L113.623 65.077C119.276 75.0766 120.181 88.564 114.432 98.3579L115.726 99.1172L117.019 99.8765C123.41 88.9881 122.308 74.3439 116.235 63.6007L114.929 64.3389ZM115.726 99.1172L114.432 98.3579C108.59 108.312 95.9539 114.322 84.1565 114.322L84.1565 115.822L84.1566 117.322C96.7926 117.322 110.534 110.928 117.02 99.8764L115.726 99.1172ZM84.1565 115.822L83.0959 116.883L83.0968 116.884L84.1575 115.823L85.2182 114.763L85.2172 114.762L84.1565 115.822ZM84.1575 115.823L84.1529 114.323C76.1907 114.348 68.3006 112.846 60.9148 109.903L60.3597 111.297L59.8045 112.69C67.5466 115.775 75.8168 117.349 84.1621 117.323L84.1575 115.823ZM60.3597 111.297L60.9236 109.907L60.4783 109.726L59.9143 111.116L59.3504 112.506L59.7957 112.687L60.3597 111.297ZM59.9143 111.116L59.3486 109.727C51.8382 112.785 43.7958 114.349 35.6776 114.324L35.6731 115.824L35.6686 117.324C44.1778 117.35 52.6077 115.711 60.4801 112.505L59.9143 111.116ZM35.6731 115.824L36.7338 114.764L36.7328 114.763L35.6722 115.823L34.6115 116.884L34.6125 116.885L35.6731 115.824ZM35.6722 115.823L34.6115 114.763L34.6105 114.764L35.6712 115.824L36.7318 116.885L36.7328 116.884L35.6722 115.823ZM35.6712 115.824H37.1712V115.823H35.6712H34.1712V115.824H35.6712ZM35.6712 115.823L35.6713 114.323C23.8743 114.323 11.2379 108.313 5.39549 98.3589L4.10184 99.1182L2.8082 99.8774C9.29435 110.929 23.0355 117.323 35.6711 117.323L35.6712 115.823ZM4.10184 99.1182L5.39547 98.3589C-0.445231 88.408 0.583168 74.6461 6.47651 64.606L5.1829 63.8467L3.88929 63.0874C-2.4458 73.8801 -3.68348 88.8174 2.80822 99.8775L4.10184 99.1182ZM5.1829 63.8467L6.47841 64.6027C10.5258 57.6675 15.9174 51.6003 22.3405 46.7519L21.4368 45.5547L20.5331 44.3575C13.7938 49.4446 8.13551 55.8114 3.88738 63.0906L5.1829 63.8467ZM21.4368 45.5547L22.9235 45.7542C23.9868 37.8325 26.6334 30.2006 30.7094 23.3085L29.4182 22.5449L28.1271 21.7814C23.8468 29.019 21.067 37.0345 19.9501 45.3551L21.4368 45.5547ZM29.4182 22.5449L30.7118 23.3044C36.6052 13.2665 48.2139 5.5 59.9085 5.5V4V2.5C46.9719 2.5 34.4602 10.9947 28.1247 21.7855L29.4182 22.5449ZM81.5159 38.084L82.0261 36.6734C67.6286 31.4654 51.8333 31.5055 37.4578 36.7964L37.9759 38.2041L38.494 39.6118C52.2056 34.5652 67.2726 34.5269 81.0057 39.4945L81.5159 38.084ZM37.9759 38.2041L37.4568 36.7968C32.8079 38.5113 28.3804 40.7702 24.2688 43.5254L25.1038 44.7715L25.9388 46.0176C29.853 43.3947 34.0684 41.2439 38.4949 39.6114L37.9759 38.2041ZM25.1038 44.7715L24.0431 45.8321L24.0441 45.8331L25.1048 44.7725L26.1654 43.7118L26.1645 43.7108L25.1038 44.7715ZM25.1048 44.7725L24.2687 43.5271C23.3883 44.1182 22.5345 44.7342 21.6968 45.3595L22.594 46.5615L23.4913 47.7636C24.3039 47.157 25.115 46.5723 25.9409 46.0178L25.1048 44.7725ZM22.594 46.5615L21.6966 45.3596C15.0005 50.3596 9.38361 56.6473 5.1813 63.8485L6.47684 64.6045L7.77238 65.3605C11.7713 58.5079 17.1171 52.5232 23.4915 47.7634L22.594 46.5615ZM6.47684 64.6045L5.41618 63.5438L5.41521 63.5448L6.47587 64.6055L7.53653 65.6661L7.5375 65.6652L6.47684 64.6045ZM6.47587 64.6055L5.18225 63.8461C-0.93208 74.2628 -2.06376 88.6125 4.10215 99.1177L5.39579 98.3584L6.68942 97.5991C1.17392 88.202 2.09756 75.0277 7.76948 65.3648L6.47587 64.6055ZM5.39579 98.3584L4.10214 99.1177C10.2666 109.621 23.456 115.824 35.6731 115.824V114.324V112.824C24.296 112.824 12.2107 107.006 6.68943 97.5991L5.39579 98.3584ZM35.6731 114.324V115.824H35.6751V114.324V112.824H35.6731V114.324ZM35.6751 114.324L35.6705 115.824C43.4702 115.848 51.2015 114.439 58.4785 111.68L57.9466 110.277L57.4147 108.875C50.4799 111.505 43.1122 112.847 35.6797 112.824L35.6751 114.324ZM57.9466 110.277L58.5579 108.908C58.5546 108.906 58.5515 108.905 58.5504 108.904C58.5486 108.903 58.5487 108.903 58.5492 108.904L57.9378 110.273L57.3263 111.643C57.3297 111.645 57.3328 111.646 57.334 111.647C57.3358 111.647 57.3357 111.647 57.3353 111.647L57.9466 110.277ZM57.9378 110.273L58.5503 108.904C58.294 108.79 58.0378 108.673 57.781 108.553L57.1497 109.914L56.5183 111.275C56.7858 111.399 57.0548 111.522 57.3253 111.643L57.9378 110.273ZM57.1497 109.914L57.7782 108.552C57.7389 108.534 57.7004 108.517 57.6746 108.505C57.6452 108.492 57.6274 108.484 57.6119 108.477L56.9788 109.837L56.3457 111.197C56.3869 111.216 56.4261 111.233 56.4539 111.246C56.4851 111.26 56.5038 111.268 56.5212 111.276L57.1497 109.914ZM56.9788 109.837L57.5822 108.464L57.5178 108.435L56.9143 109.809L56.3109 111.182L56.3754 111.21L56.9788 109.837ZM56.9143 109.809L57.5052 108.43L57.4915 108.424L56.9007 109.803L56.3098 111.181L56.3235 111.187L56.9143 109.809ZM56.9007 109.803L57.5355 108.444C57.4924 108.424 57.4492 108.405 57.4258 108.396L56.8421 109.777L56.2583 111.159C56.2657 111.162 56.2712 111.165 56.2756 111.166C56.2801 111.168 56.2823 111.169 56.2832 111.17C56.2852 111.171 56.2776 111.167 56.2659 111.162L56.9007 109.803ZM56.8421 109.777L57.4258 108.396C57.4158 108.391 57.4058 108.387 57.3955 108.383C57.3849 108.378 57.3764 108.374 57.3704 108.371L56.7278 109.727L56.0853 111.082C56.1594 111.117 56.2265 111.146 56.2583 111.159L56.8421 109.777ZM56.7278 109.727H58.2278V109.726H56.7278H55.2278V109.727H56.7278ZM56.7278 109.726L57.3702 108.37C57.2951 108.335 57.3426 108.356 57.2397 108.307L56.594 109.661L55.9484 111.015C55.9653 111.023 55.9825 111.032 56.0064 111.043C56.0285 111.054 56.0563 111.067 56.0854 111.081L56.7278 109.726ZM56.594 109.661L57.2397 108.307C56.7625 108.08 56.289 107.847 55.8196 107.608L55.139 108.944L54.4583 110.281C54.9522 110.533 55.4491 110.777 55.9484 111.015L56.594 109.661ZM55.139 108.944L55.8196 107.608C55.7111 107.552 55.6065 107.498 55.4869 107.436L54.7981 108.769L54.1093 110.101C54.2169 110.157 54.3389 110.22 54.4583 110.281L55.139 108.944ZM54.7981 108.769L55.487 107.436C55.081 107.226 54.679 107.014 54.2813 106.797L53.5628 108.113L52.8443 109.43C53.2648 109.659 53.6869 109.883 54.1093 110.101L54.7981 108.769ZM53.5628 108.113L54.2813 106.797C54.1924 106.748 54.1377 106.717 54.0268 106.655L53.302 107.969L52.5773 109.282C52.6404 109.317 52.7586 109.383 52.8443 109.43L53.5628 108.113ZM53.302 107.969L54.0268 106.655C53.836 106.55 53.6545 106.45 53.475 106.349L52.7366 107.654L51.9982 108.96C52.1941 109.071 52.3904 109.179 52.5773 109.282L53.302 107.969ZM52.7366 107.654L53.475 106.349C53.4027 106.308 53.382 106.295 53.2872 106.241L52.5442 107.544L51.8012 108.847C51.8349 108.866 51.9418 108.928 51.9982 108.96L52.7366 107.654ZM52.5442 107.544L53.2872 106.241C53.1187 106.145 52.9517 106.049 52.7859 105.952L52.0306 107.248L51.2752 108.544C51.4509 108.646 51.6264 108.747 51.8012 108.847L52.5442 107.544ZM52.0306 107.248L52.7859 105.952C52.6682 105.884 52.5504 105.814 52.4323 105.744L51.6682 107.035L50.9042 108.326C51.0272 108.399 51.1509 108.472 51.2752 108.544L52.0306 107.248ZM51.6682 107.035L52.4323 105.744C52.2898 105.66 52.1501 105.577 52.012 105.494L51.2376 106.778L50.4632 108.063C50.6114 108.152 50.759 108.24 50.9042 108.326L51.6682 107.035ZM51.2376 106.778L52.012 105.494C51.9087 105.431 51.8049 105.368 51.6984 105.303L50.9163 106.583L50.1342 107.863C50.2416 107.929 50.3518 107.996 50.4632 108.063L51.2376 106.778ZM50.9163 106.583L51.6984 105.303C51.5676 105.223 51.4368 105.142 51.3058 105.061L50.514 106.335L49.7221 107.609C49.8588 107.694 49.9961 107.779 50.1342 107.863L50.9163 106.583ZM50.514 106.335L51.3058 105.061C51.1612 104.971 51.0184 104.882 50.8769 104.792L50.0745 106.06L49.2721 107.327C49.4228 107.422 49.573 107.516 49.7221 107.609L50.514 106.335ZM50.0745 106.06L50.8769 104.792C50.7864 104.735 50.6978 104.678 50.5995 104.615L49.7903 105.878L48.9811 107.141C49.0721 107.199 49.1726 107.264 49.2721 107.327L50.0745 106.06ZM49.7903 105.878L50.5995 104.615C50.4636 104.528 50.3279 104.44 50.1926 104.352L49.3733 105.608L48.5541 106.865C48.696 106.957 48.8383 107.049 48.9811 107.141L49.7903 105.878ZM49.3733 105.608L50.1926 104.352C50.0684 104.271 49.9503 104.194 49.8333 104.116L49.0052 105.367L48.1771 106.618C48.3047 106.702 48.4324 106.786 48.5541 106.865L49.3733 105.608ZM49.0052 105.367L49.8333 104.116C49.6812 104.016 49.5287 103.913 49.3748 103.81L48.5354 105.053L47.696 106.296C47.8545 106.403 48.0149 106.511 48.1771 106.618L49.0052 105.367ZM48.5354 105.053L49.3748 103.81C49.3087 103.765 49.2425 103.72 49.1728 103.672L48.3284 104.912L47.484 106.152C47.5523 106.198 47.6239 106.247 47.696 106.296L48.5354 105.053ZM48.3284 104.912L49.1728 103.672C49.0365 103.58 48.9019 103.487 48.7687 103.395L47.9143 104.628L47.06 105.861C47.202 105.959 47.3436 106.056 47.484 106.152L48.3284 104.912ZM47.9143 104.628L48.7687 103.395C48.633 103.301 48.5038 103.212 48.376 103.121L47.512 104.348L46.648 105.574C46.7874 105.672 46.927 105.769 47.06 105.861L47.9143 104.628ZM47.512 104.348L48.376 103.121C48.2832 103.056 48.1903 102.99 48.093 102.92L47.222 104.142L46.351 105.363C46.4467 105.431 46.5469 105.503 46.648 105.574L47.512 104.348ZM47.222 104.142L48.093 102.92C47.9473 102.817 47.8022 102.712 47.6574 102.607L46.7757 103.82L45.8939 105.034C46.0458 105.144 46.1981 105.254 46.351 105.363L47.222 104.142ZM46.7757 103.82L47.6574 102.607C47.5663 102.541 47.4777 102.475 47.3782 102.402L46.4895 103.61L45.6009 104.819C45.692 104.886 45.7936 104.961 45.8939 105.034L46.7757 103.82ZM46.4895 103.61L47.3782 102.402C47.2548 102.311 47.1322 102.22 47.0103 102.129L46.1126 103.331L45.2149 104.533C45.3435 104.629 45.4723 104.724 45.6009 104.819L46.4895 103.61ZM46.1126 103.331L47.0103 102.129C46.8958 102.044 46.7837 101.96 46.6729 101.876L45.7669 103.071L44.8609 104.267C44.9799 104.357 45.0984 104.446 45.2149 104.533L46.1126 103.331ZM45.7669 103.071L46.6729 101.876C46.5466 101.78 46.4199 101.683 46.2917 101.584L45.3763 102.772L44.4608 103.961C44.5924 104.062 44.7259 104.164 44.8609 104.267L45.7669 103.071ZM45.3763 102.772L46.2917 101.584C46.1753 101.495 46.0642 101.409 45.9543 101.323L45.0306 102.505L44.1068 103.687C44.2265 103.78 44.3463 103.873 44.4608 103.961L45.3763 102.772ZM45.0306 102.505L45.9543 101.323C45.8376 101.232 45.949 101.32 45.8618 101.252L44.9358 102.432L44.0098 103.612C44.0324 103.629 44.054 103.646 44.0693 103.658C44.0866 103.671 44.097 103.679 44.1068 103.687L45.0306 102.505ZM44.9358 102.432L45.8695 101.258L45.5785 101.026L44.6448 102.2L43.7111 103.374L44.0022 103.606L44.9358 102.432ZM44.6448 102.2L45.5778 101.026C45.4711 100.941 45.49 100.958 45.412 100.895L44.4749 102.066L43.5378 103.238C43.5723 103.265 43.7057 103.37 43.7118 103.375L44.6448 102.2ZM44.4749 102.066L44.22 100.588C41.7627 101.012 39.2789 101.256 36.7887 101.312L36.8225 102.812L36.8563 104.311C39.4972 104.252 42.1289 103.993 44.7298 103.545L44.4749 102.066ZM36.8225 102.812L36.806 101.312L35.6566 101.324L35.6731 102.824L35.6897 104.324L36.8391 104.311L36.8225 102.812ZM35.6731 102.824V101.324C32.1771 101.324 28.3213 100.433 24.903 98.7906L24.2532 100.143L23.6035 101.495C27.4048 103.321 31.7029 104.324 35.6731 104.324V102.824ZM24.2532 100.143L24.903 98.7906C21.5892 97.1979 18.7348 94.9226 17.0038 92.1297L15.7288 92.9199L14.4538 93.7102C16.5654 97.1169 19.9292 99.7286 23.6034 101.495L24.2532 100.143ZM15.7288 92.9199L17.0139 92.1463L16.8323 91.8446L15.5472 92.6182L14.262 93.3917L14.4437 93.6935L15.7288 92.9199ZM15.5472 92.6182L16.8408 91.8588C15.1299 88.9442 14.5076 85.2678 14.77 81.5359L13.2737 81.4307L11.7774 81.3255C11.4852 85.482 12.1563 89.8045 14.2535 93.3775L15.5472 92.6182ZM13.2737 81.4307L14.77 81.5359C15.0322 77.807 16.1744 74.0818 17.9208 71.1071L16.6272 70.3477L15.3337 69.5882C13.3406 72.9831 12.0703 77.1601 11.7774 81.3255L13.2737 81.4307ZM16.6272 70.3477L17.9205 71.1076C19.3525 68.6709 20.996 66.3628 22.8301 64.2075L21.6878 63.2354L20.5454 62.2632C18.5995 64.5499 16.8548 66.9999 15.334 69.5877L16.6272 70.3477ZM21.6878 63.2354H23.1878V63.2324H21.6878H20.1878V63.2354H21.6878ZM21.6878 63.2324L22.8267 64.2086L23.0083 63.9967L21.8694 63.0205L20.7305 62.0443L20.5489 62.2562L21.6878 63.2324ZM21.8694 63.0205L23.0063 63.999C23.0277 63.9741 23.0364 63.9639 23.0528 63.945L21.9173 62.9648L20.7818 61.9847C20.7662 62.0027 20.7429 62.0299 20.7325 62.042L21.8694 63.0205ZM21.9173 62.9648L23.0545 63.9429C25.8257 60.7206 29.0207 57.8832 32.5538 55.5086L31.7171 54.2637L30.8804 53.0187C27.1239 55.5434 23.7268 58.5603 20.78 61.9868L21.9173 62.9648ZM31.7171 54.2637V55.7637H31.7181V54.2637V52.7637H31.7171V54.2637ZM31.7181 54.2637L32.5541 55.5091C32.9021 55.2755 33.2578 55.0485 33.6214 54.822L32.8284 53.5488L32.0354 52.2756C31.6547 52.5127 31.2681 52.7591 30.882 53.0183L31.7181 54.2637ZM32.8284 53.5488L33.6214 54.8221C33.699 54.7738 33.7292 54.7542 33.7877 54.7181L33.0003 53.4414L32.2129 52.1647C32.1564 52.1995 32.0726 52.2524 32.0354 52.2756L32.8284 53.5488ZM33.0003 53.4414L33.7877 54.7181C33.9221 54.6352 34.0573 54.5528 34.1933 54.4708L33.4182 53.1865L32.6432 51.9023C32.5002 51.9886 32.3566 52.076 32.2128 52.1647L33.0003 53.4414ZM33.4182 53.1865L34.1933 54.4708C34.2621 54.4292 34.219 54.4548 34.2684 54.4251L33.4954 53.1396L32.7224 51.8542C32.7048 51.8647 32.6882 51.8749 32.6755 51.8826C32.6616 51.8911 32.6523 51.8968 32.6432 51.9023L33.4182 53.1865ZM33.4954 53.1396L34.2684 54.4251C34.5977 54.2271 34.9279 54.0324 35.2582 53.8414L34.5071 52.543L33.756 51.2446C33.4114 51.4439 33.0666 51.6472 32.7224 51.8541L33.4954 53.1396ZM34.5071 52.543L34.9815 53.966L34.9844 53.965L34.51 52.542L34.0357 51.119L34.0328 51.1199L34.5071 52.543ZM34.51 52.542L35.2556 53.8436C35.2674 53.8369 35.2772 53.831 35.284 53.827C35.2903 53.8232 35.2961 53.8197 35.2976 53.8188C35.3003 53.8172 35.2989 53.8181 35.2967 53.8193C35.2942 53.8208 35.2886 53.8241 35.2812 53.8284L34.5364 52.5264L33.7916 51.2243C33.7797 51.2311 33.7698 51.237 33.7629 51.2411C33.7563 51.245 33.7505 51.2485 33.7488 51.2495C33.7459 51.2513 33.7474 51.2504 33.7493 51.2492C33.7517 51.2478 33.7572 51.2446 33.7645 51.2404L34.51 52.542ZM34.5364 52.5264L35.2871 53.825L36.3886 53.1883L35.638 51.8896L34.8873 50.591L33.7858 51.2277L34.5364 52.5264ZM35.638 51.8896L34.139 51.8341L34.138 51.8605L35.637 51.916L37.136 51.9715L37.1369 51.9452L35.638 51.8896ZM35.637 51.916L36.3494 53.236C43.5763 49.3358 51.676 47.2871 59.9134 47.2871L59.9134 45.7871L59.9134 44.2871C51.1788 44.2871 42.5894 46.4594 34.9246 50.596L35.637 51.916ZM59.9134 45.7871L59.9134 47.2871C68.1405 47.2872 76.2296 49.3309 83.4498 53.2218L84.1614 51.9014L84.873 50.5809C77.2154 46.4542 68.6372 44.2872 59.9134 44.2871L59.9134 45.7871ZM84.1614 51.9014L85.6608 51.8584C85.6429 51.2348 85.6177 50.5953 85.5682 49.9489L84.0725 50.0635L82.5769 50.1781C82.6211 50.7548 82.6447 51.3397 82.662 51.9443L84.1614 51.9014ZM84.0725 50.0635L85.5671 49.9355L85.4997 49.1484L84.0052 49.2764L82.5106 49.4043L82.578 50.1914L84.0725 50.0635ZM84.0052 49.2764L85.4985 49.1354C85.1263 45.1926 84.2619 41.3112 82.9284 37.5793L81.5159 38.084L80.1034 38.5887C81.3533 42.0868 82.1631 45.7238 82.5118 49.4174L84.0052 49.2764ZM98.6321 47.6367L97.14 47.7906C97.1849 48.2254 97.2256 48.6569 97.2586 49.0867L98.7542 48.9717L100.25 48.8567C100.214 48.3929 100.171 47.9342 100.124 47.4829L98.6321 47.6367ZM98.7542 48.9717H97.2542V48.9727H98.7542H100.254V48.9717H98.7542ZM98.7542 48.9727L97.2585 49.086C97.6103 53.7287 97.4074 58.3961 96.6576 62.9918L98.138 63.2334L99.6184 63.475C100.406 58.6454 100.62 53.7397 100.25 48.8593L98.7542 48.9727ZM98.138 63.2334L96.9957 64.2056C98.5925 66.0818 100.046 68.0722 101.339 70.1629L102.615 69.374L103.89 68.5851C102.516 66.3634 100.973 64.2507 99.2803 62.2612L98.138 63.2334ZM102.615 69.374L101.33 70.1478L101.916 71.1225L103.201 70.3486L104.486 69.5748L103.9 68.6002L102.615 69.374ZM103.201 70.3486L101.896 71.0876L102.239 71.6931L103.544 70.9541L104.85 70.2151L104.507 69.6096L103.201 70.3486ZM103.544 70.9541L102.227 71.6717C103.794 74.5478 104.812 78.0421 105.058 81.536L106.554 81.4307L108.05 81.3254C107.775 77.4189 106.642 73.5047 104.861 70.2365L103.544 70.9541ZM106.554 81.4307L105.058 81.5359C105.32 85.2677 104.698 88.9445 102.988 91.8589L104.282 92.6182L105.575 93.3774C107.672 89.8044 108.343 85.4814 108.05 81.3254L106.554 81.4307ZM104.282 92.6182L102.988 91.8589C101.277 94.7745 98.3475 97.145 94.9257 98.7897L95.5755 100.142L96.2253 101.494C100.016 99.6714 103.48 96.9478 105.575 93.3774L104.282 92.6182ZM95.5755 100.142L94.9257 98.7896C91.5073 100.433 87.6515 101.324 84.1555 101.324L84.1556 102.824L84.1556 104.324C88.126 104.324 92.4241 103.32 96.2253 101.494L95.5755 100.142ZM84.1556 102.824V101.324H84.1546V102.824V104.324H84.1556V102.824ZM84.1546 102.824L84.1552 101.324C81.2897 101.323 78.4288 101.075 75.604 100.587L75.3489 102.065L75.0939 103.544C78.0848 104.06 81.1159 104.323 84.154 104.324L84.1546 102.824ZM75.3489 102.065L74.2883 101.005L74.2853 101.008L75.346 102.068L76.4066 103.129L76.4096 103.126L75.3489 102.065ZM75.346 102.068L75.6071 100.591L75.2702 100.532L75.0091 102.009L74.7479 103.486L75.0848 103.545L75.346 102.068ZM75.0091 102.009L75.2707 100.532C71.0553 99.7849 66.959 98.4814 63.092 96.6553L62.4515 98.0117L61.8109 99.3681C65.9192 101.308 70.2703 102.693 74.7474 103.486L75.0091 102.009ZM62.4515 98.0117L63.5121 96.9511L63.5111 96.9501L62.4505 98.0107L61.3898 99.0714L61.3908 99.0724L62.4515 98.0117ZM62.4505 98.0107L63.0922 96.6549C62.1355 96.2022 61.2038 95.7036 60.2737 95.185L59.5432 96.4951L58.8128 97.8052C59.7696 98.3387 60.7664 98.8732 61.8088 99.3666L62.4505 98.0107ZM59.5432 96.4951L60.2736 95.1849L59.0997 94.5306L58.3694 95.8408L57.6391 97.151L58.8129 97.8053L59.5432 96.4951ZM58.3694 95.8408L59.1493 97.1221L59.1718 97.1084L58.3919 95.8271L57.612 94.5459L57.5895 94.5595L58.3694 95.8408ZM58.3919 95.8271L59.1583 94.5377C52.1616 90.3788 46.3307 84.5258 42.2168 77.5161L40.9231 78.2754L39.6295 79.0346C44.0009 86.483 50.1953 92.7 57.6254 97.1166L58.3919 95.8271ZM40.9231 78.2754L42.2168 77.5162C38.0991 70.5 35.8444 62.5672 35.6502 54.4612L34.1507 54.4971L32.6511 54.533C32.8575 63.1484 35.2539 71.5791 39.6295 79.0346L40.9231 78.2754ZM34.1507 54.4971L33.3746 53.2135C33.124 53.365 32.8722 53.5195 32.6211 53.6772L33.4192 54.9473L34.2174 56.2173C34.4504 56.0708 34.6871 55.9256 34.9268 55.7807L34.1507 54.4971ZM33.4192 54.9473L32.6189 53.6786C32.605 53.6874 32.5907 53.6962 32.5693 53.7095C32.5498 53.7216 32.5243 53.7375 32.4975 53.7545L33.302 55.0205L34.1066 56.2865C34.1681 56.2474 34.1282 56.2735 34.2195 56.2159L33.4192 54.9473ZM33.302 55.0205L32.4995 53.7532C32.2706 53.8982 32.0477 54.0456 31.8358 54.1864L32.6663 55.4355L33.4968 56.6847C33.7064 56.5453 33.9057 56.4137 34.1045 56.2878L33.302 55.0205ZM32.6663 55.4355L31.8469 54.1791L31.7346 54.2524L32.554 55.5088L33.3734 56.7652L33.4857 56.692L32.6663 55.4355ZM32.554 55.5088L31.7173 54.2638C30.9269 54.7951 30.1542 55.3489 29.399 55.9232L30.3069 57.1172L31.2149 58.3112C31.925 57.7712 32.6503 57.2514 33.3907 56.7537L32.554 55.5088ZM30.3069 57.1172L29.3992 55.923C28.473 56.6271 27.5734 57.3635 26.7012 58.1303L27.6917 59.2568L28.6821 60.3833C29.5013 59.6631 30.3458 58.9718 31.2146 58.3114L30.3069 57.1172ZM27.6917 59.2568L26.701 58.1306C26.3164 58.4688 25.9359 58.8135 25.5605 59.1652L26.5862 60.2598L27.6119 61.3543C27.9626 61.0256 28.3197 60.7022 28.6824 60.3831L27.6917 59.2568ZM26.5862 60.2598L25.5608 59.165C25.3427 59.3693 25.1275 59.5751 24.915 59.7816L25.9602 60.8574L27.0055 61.9333C27.2068 61.7377 27.4086 61.5447 27.6116 61.3545L26.5862 60.2598ZM25.9602 60.8574L24.9148 59.7818C23.9571 60.7126 23.0371 61.6827 22.1574 62.6902L23.2874 63.6768L24.4173 64.6633C25.2428 63.7178 26.1065 62.8071 27.0057 61.9331L25.9602 60.8574ZM23.2874 63.6768L21.8103 63.9377C24.4429 78.8407 32.3944 92.3052 44.2118 101.855L45.1546 100.688L46.0974 99.5218C34.8412 90.4254 27.2707 77.6033 24.7645 63.4158L23.2874 63.6768ZM45.1546 100.688L44.2111 101.855C48.0543 104.964 52.2571 107.607 56.7299 109.727L57.3724 108.371L58.0148 107.016C53.7567 104.998 49.756 102.482 46.098 99.5223L45.1546 100.688ZM57.3724 108.371L56.7815 109.75L56.8362 109.773L57.427 108.395L58.0179 107.016L57.9632 106.992L57.3724 108.371ZM57.427 108.395L56.8425 109.776C56.8453 109.777 56.8537 109.781 56.8659 109.786C56.8777 109.791 56.8904 109.797 56.9021 109.803L57.5364 108.443L58.1707 107.084C58.1118 107.057 58.0534 107.031 58.0116 107.013L57.427 108.395ZM57.5364 108.443V109.943H57.5384V108.443V106.943H57.5364V108.443ZM57.5384 108.443L56.9324 109.816C56.9285 109.814 56.9254 109.812 56.9239 109.812C56.9224 109.811 56.9213 109.811 56.9213 109.811C56.9204 109.81 56.9235 109.812 56.926 109.813C56.9322 109.815 56.9432 109.82 56.9569 109.826L57.5472 108.447L58.1374 107.068C58.1471 107.072 58.1546 107.076 58.1579 107.077C58.1589 107.078 58.1606 107.078 58.1585 107.078C58.1579 107.077 58.1562 107.077 58.1542 107.076C58.1523 107.075 58.1487 107.073 58.1443 107.071L57.5384 108.443ZM57.5472 108.447L56.9552 109.826C56.952 109.824 56.9496 109.823 56.9486 109.823C56.9474 109.822 56.9468 109.822 56.9467 109.822C56.9466 109.822 56.9476 109.822 56.9495 109.823C56.9534 109.825 56.9588 109.827 56.9644 109.83L57.6009 108.472L58.2374 107.113C58.2064 107.099 58.1689 107.082 58.1391 107.069L57.5472 108.447ZM57.6009 108.472V109.972H57.6018V108.472V106.972H57.6009V108.472ZM57.6018 108.472L56.9662 109.83C57.1332 109.908 57.2997 109.985 57.4647 110.061L58.0882 108.696L58.7116 107.332C58.552 107.259 58.3941 107.186 58.2375 107.113L57.6018 108.472ZM58.0882 108.696L57.4663 110.061C57.9067 110.262 58.3487 110.457 58.7923 110.648L59.3841 109.27L59.9758 107.891C59.5523 107.709 59.1303 107.523 58.71 107.331L58.0882 108.696ZM59.3841 109.27L58.793 110.648C59.0687 110.766 59.3481 110.885 59.6297 111L60.2005 109.613L60.7713 108.226C60.5074 108.118 60.2423 108.005 59.9751 107.891L59.3841 109.27ZM60.2005 109.613L59.1398 110.674L59.1408 110.675L60.2015 109.614L61.2621 108.554L61.2611 108.553L60.2005 109.613ZM60.2015 109.614L59.629 111.001C67.4022 114.21 75.7405 115.849 84.1572 115.823L84.1526 114.323L84.148 112.823C76.1267 112.848 68.1806 111.286 60.7739 108.228L60.2015 109.614ZM84.1526 114.323V115.823H84.1556V114.323V112.823H84.1526V114.323ZM84.1556 114.323L84.1556 115.823C96.3727 115.823 109.561 109.62 115.726 99.1177L114.432 98.3584L113.138 97.5991C107.617 107.006 95.5329 112.823 84.1555 112.823L84.1556 114.323ZM114.432 98.3584L115.726 99.1177C121.892 88.6125 120.758 74.2625 114.646 63.8472L113.352 64.6064L112.058 65.3657C117.729 75.0276 118.654 88.2022 113.138 97.5991L114.432 98.3584ZM113.352 64.6064L114.413 63.5458L114.412 63.5448L113.351 64.6055L112.29 65.6661L112.291 65.6671L113.352 64.6064ZM113.351 64.6055H114.851V64.6045H113.351H111.851V64.6055H113.351ZM113.351 64.6045L114.646 63.8485C110.748 57.1666 105.631 51.2712 99.564 46.4613L98.6321 47.6367L97.7002 48.8121C103.476 53.3908 108.345 59.002 112.055 65.3604L113.351 64.6045ZM22.0384 65.1631L20.8717 64.2203C19.3084 66.1549 17.8879 68.2018 16.627 70.3474L17.9202 71.1074L19.2134 71.8674C20.398 69.8517 21.7336 67.9268 23.205 66.1059L22.0384 65.1631ZM17.9202 71.1074L16.6266 70.348C14.7571 73.5326 13.551 77.4839 13.2735 81.4309L14.7698 81.5361L16.2661 81.6413C16.513 78.1307 17.591 74.6312 19.2138 71.8668L17.9202 71.1074ZM14.7698 81.5361L13.2735 81.4309C12.9962 85.3751 13.6428 89.3742 15.5465 92.6177L16.8401 91.8584L18.1338 91.0991C16.6164 88.5138 16.0187 85.1605 16.2661 81.6413L14.7698 81.5361ZM16.8401 91.8584H15.3401V91.8594H16.8401H18.3401V91.8584H16.8401ZM16.8401 91.8594L15.5465 92.6186C17.4499 95.8618 20.6465 98.4087 24.2528 100.142L24.9026 98.79L25.5524 97.4381C22.3153 95.8822 19.653 93.6886 18.1338 91.1001L16.8401 91.8594ZM24.9026 98.79L24.2529 100.142C27.8628 101.877 31.9399 102.824 35.6731 102.824V101.324V99.8242C32.4142 99.8242 28.7795 98.989 25.5524 97.4381L24.9026 98.79ZM35.6731 101.324L35.6737 102.824C38.178 102.823 40.6763 102.637 43.1495 102.276L42.9329 100.792L42.7163 99.3077C40.383 99.6482 38.0291 99.8233 35.6725 99.8242L35.6731 101.324ZM42.9329 100.792L43.9061 99.6505C33.3674 90.6659 26.1811 78.4132 23.51 64.8728L22.0384 65.1631L20.5667 65.4534C23.3692 79.66 30.9084 92.5118 41.9597 101.933L42.9329 100.792ZM97.7835 65.1572L96.3118 64.867C93.6415 78.4096 86.455 90.6638 75.9148 99.6495L76.888 100.791L77.8611 101.933C88.9141 92.5096 96.4534 79.6563 99.2551 65.4474L97.7835 65.1572ZM76.888 100.791L76.6712 102.275C79.1469 102.637 81.6481 102.823 84.155 102.824L84.1556 101.324L84.1561 99.8242C81.7971 99.8233 79.4404 99.648 77.1048 99.3068L76.888 100.791ZM84.1556 101.324L84.1556 102.824C87.8887 102.824 91.966 101.877 95.5758 100.142L94.9261 98.79L94.2763 97.4381C91.0495 98.989 87.4144 99.8241 84.1555 99.8242L84.1556 101.324ZM94.9261 98.79L95.5759 100.142C99.1825 98.4084 102.378 95.8605 104.281 92.6177L102.988 91.8584L101.694 91.0991C100.175 93.6879 97.5129 95.8824 94.2762 97.4381L94.9261 98.79ZM102.988 91.8584L104.281 92.6177C106.185 89.3743 106.832 85.375 106.554 81.4309L105.058 81.5361L103.562 81.6414C103.809 85.1604 103.211 88.5138 101.694 91.0991L102.988 91.8584ZM105.058 81.5361L106.554 81.4308C106.276 77.4839 105.07 73.5322 103.201 70.3481L101.908 71.1074L100.614 71.8667C102.236 74.6307 103.315 78.1307 103.562 81.6414L105.058 81.5361ZM101.908 71.1074L103.201 70.3476C101.938 68.1987 100.515 66.1504 98.95 64.2143L97.7835 65.1572L96.6169 66.1002C98.0907 67.9234 99.4288 69.8496 100.614 71.8672L101.908 71.1074ZM59.9085 5.5V4C47.5926 4 35.532 12.1311 29.4177 22.5463L30.7112 23.3057L32.0048 24.0651C37.6766 14.4037 48.8339 7 59.9085 7V5.5ZM30.7112 23.3057L29.2882 22.8313L29.2872 22.8343L30.7102 23.3086L32.1333 23.7829L32.1342 23.78L30.7112 23.3057ZM30.7102 23.3086L29.4191 22.545C25.4963 29.1781 22.865 36.4797 21.6557 44.0686L23.137 44.3047L24.6183 44.5407C25.7682 37.3244 28.2704 30.3808 32.0014 24.0722L30.7102 23.3086ZM23.137 44.3047L24.005 45.5281C24.3687 45.27 24.7326 45.0168 25.0991 44.7707L24.263 43.5254L23.4268 42.28C23.0331 42.5444 22.6473 42.813 22.269 43.0813L23.137 44.3047ZM24.263 43.5254V45.0254H24.264V43.5254V42.0254H24.263V43.5254ZM24.264 43.5254L25.099 44.7715C29.0187 42.1449 33.2331 39.9812 37.6559 38.3224L37.1292 36.918L36.6024 35.5135C31.9632 37.2535 27.5418 39.5233 23.4289 42.2793L24.264 43.5254ZM37.1292 36.918L38.5353 37.4403C39.5176 34.7958 40.7274 32.241 42.1554 29.8069L40.8616 29.0479L39.5678 28.2888C38.0504 30.8754 36.7657 33.5887 35.7231 36.3957L37.1292 36.918ZM40.8616 29.0479L42.1426 29.8282L42.5049 29.2335L41.2239 28.4531L39.9429 27.6727L39.5806 28.2675L40.8616 29.0479ZM41.2239 28.4531L42.4926 29.2534C44.2418 26.4803 46.8107 23.8638 49.7673 21.9047L48.9388 20.6543L48.1102 19.4039C44.8174 21.5858 41.9419 24.5034 39.9552 27.6529L41.2239 28.4531ZM48.9388 20.6543L49.7673 21.9047C52.9252 19.8123 56.4796 18.499 59.9085 18.499V16.999V15.499C55.7367 15.499 51.6137 17.0825 48.1102 19.4039L48.9388 20.6543ZM59.9085 16.999L59.9084 18.499C63.3373 18.4992 66.8914 19.8112 70.0488 21.9028L70.8772 20.6523L71.7056 19.4018C68.2021 17.0809 64.0796 15.4993 59.9086 15.499L59.9085 16.999ZM70.8772 20.6523L70.0488 21.9028C73.204 23.9932 75.9149 26.8313 77.6607 29.8061L78.9544 29.0469L80.2481 28.2877C78.256 24.8932 75.2163 21.7277 71.7057 19.4019L70.8772 20.6523ZM78.9544 29.0469L77.6606 29.8058C79.0881 32.2393 80.2978 34.793 81.2797 37.4364L82.6858 36.9141L84.092 36.3917C83.0496 33.5856 81.7649 30.8734 80.2482 28.2879L78.9544 29.0469ZM82.6858 36.9141L82.0766 38.2848L82.0854 38.2887L82.6946 36.918L83.3038 35.5473L83.295 35.5433L82.6858 36.9141ZM82.6946 36.918L81.2857 37.4326L81.4048 37.7588L82.8138 37.2441L84.2227 36.7295L84.1036 36.4033L82.6946 36.918ZM82.8138 37.2441L81.405 37.7594C82.8542 41.7215 83.7536 45.8615 84.078 50.0646L85.5735 49.9492L87.0691 49.8338C86.7236 45.3572 85.7657 40.948 84.2225 36.7289L82.8138 37.2441ZM85.5735 49.9492L84.0766 50.046L84.1294 50.8615L85.6263 50.7646L87.1231 50.6678L87.0704 49.8524L85.5735 49.9492ZM85.6263 50.7646L84.1284 50.8447C84.1702 51.6273 84.1871 52.411 84.1937 53.199L85.6936 53.1865L87.1936 53.174C87.1868 52.3615 87.1692 51.5289 87.1241 50.6846L85.6263 50.7646ZM85.6936 53.1865L84.1937 53.1989L84.2044 54.5045L85.7044 54.4922L87.2043 54.4798L87.1936 53.1742L85.6936 53.1865ZM85.7044 54.4922L86.4702 53.2024L86.4389 53.1839L85.6731 54.4736L84.9073 55.7634L84.9386 55.782L85.7044 54.4922ZM85.6731 54.4736L84.1735 54.4384C83.9828 62.5521 81.7274 70.4937 77.606 77.5162L78.8997 78.2754L80.1934 79.0346C84.5729 71.5724 86.97 63.1324 87.1727 54.5089L85.6731 54.4736ZM78.8997 78.2754L77.606 77.5161C73.4948 84.521 67.6676 90.3698 60.6768 94.5282L61.4436 95.8174L62.2105 97.1065C69.634 92.6907 75.8246 86.4783 80.1933 79.0346L78.8997 78.2754ZM61.4436 95.8174L60.7397 97.1419C60.9019 97.2281 61.0926 97.3311 61.2788 97.427L61.9661 96.0938L62.6534 94.7605C62.4895 94.676 62.3336 94.5917 62.1476 94.4928L61.4436 95.8174ZM61.9661 96.0938L61.2778 97.4265C61.5645 97.5746 61.8518 97.7181 62.1394 97.8579L62.7952 96.5088L63.451 95.1597C63.1826 95.0293 62.9171 94.8967 62.6544 94.761L61.9661 96.0938ZM62.7952 96.5088L62.14 97.8581C62.2301 97.9019 62.346 97.9589 62.4562 98.0111L63.0979 96.6553L63.7397 95.2995C63.6474 95.2558 63.5617 95.2135 63.4504 95.1594L62.7952 96.5088ZM63.0979 96.6553V98.1553H63.0989V96.6553V95.1553H63.0979V96.6553ZM63.0989 96.6553L62.4584 98.0116C64.4349 98.945 66.4692 99.7457 68.5474 100.41L69.0042 98.9814L69.461 97.5527C67.5078 96.9282 65.5963 96.1757 63.7394 95.2989L63.0989 96.6553ZM69.0042 98.9814L68.548 100.41C70.5411 101.047 72.5748 101.558 74.6376 101.94L74.9104 100.465L75.1833 98.9899C73.2453 98.6313 71.334 98.1506 69.4604 97.5525L69.0042 98.9814ZM74.9104 100.465L74.6373 101.94C74.6569 101.943 74.6732 101.946 74.6838 101.948C74.6893 101.949 74.6939 101.949 74.6971 101.95C74.7001 101.95 74.7028 101.951 74.7036 101.951C74.7049 101.951 74.7043 101.951 74.7034 101.951C74.7023 101.951 74.6998 101.95 74.6964 101.95C74.69 101.949 74.6779 101.947 74.6625 101.944L74.9349 100.469L75.2072 98.9937C75.1878 98.9901 75.1716 98.9875 75.1611 98.9858C75.1557 98.985 75.1512 98.9843 75.148 98.9838C75.1451 98.9834 75.1424 98.983 75.1417 98.9829C75.1405 98.9827 75.1411 98.9828 75.1421 98.9829C75.1433 98.9831 75.1458 98.9835 75.1492 98.984C75.1558 98.9851 75.168 98.987 75.1835 98.9899L74.9104 100.465ZM74.9349 100.469L75.8842 101.63C87.6441 92.0175 95.5274 78.509 98.0756 63.5795L96.597 63.3271L95.1183 63.0748C92.6926 77.2872 85.1873 90.151 73.9855 99.3074L74.9349 100.469ZM96.597 63.3271L98.076 63.5773C98.8917 58.7539 99.1175 53.85 98.7479 48.9726L97.2522 49.0859L95.7565 49.1993C96.1077 53.8337 95.8931 58.4936 95.118 63.077L96.597 63.3271ZM97.2522 49.0859L98.7469 48.959L98.6824 48.2002L97.1878 48.3271L95.6932 48.4541L95.7576 49.2129L97.2522 49.0859ZM97.1878 48.3271L98.6813 48.1883C98.6088 47.4077 98.5185 46.6326 98.4197 45.8635L96.9319 46.0547L95.4441 46.2458C95.54 46.9922 95.6259 47.7306 95.6942 48.466L97.1878 48.3271ZM96.9319 46.0547L98.4196 45.8627C97.3572 37.6308 94.6278 29.6979 90.3969 22.5431L89.1057 23.3066L87.8146 24.0701C91.8386 30.8751 94.4341 38.4192 95.4443 46.2467L96.9319 46.0547ZM89.1057 23.3066L90.4474 22.6358L90.4464 22.6339L89.1048 23.3047L87.7631 23.9755L87.7641 23.9775L89.1057 23.3066ZM89.1048 23.3047L90.3984 22.5454C84.2843 12.1289 72.2242 4.00037 59.9085 4L59.9085 5.5L59.9084 7C70.9832 7.00033 82.1397 14.4017 87.8112 24.064L89.1048 23.3047ZM59.9134 47.2871L59.9134 45.7871C51.1475 45.7871 42.5325 48.038 34.903 52.3188L35.637 53.627L36.371 54.9351C43.5514 50.9062 51.6609 48.7871 59.9134 48.7871L59.9134 47.2871ZM35.637 53.627L34.137 53.6367C34.1931 62.2957 36.5311 70.7918 40.9234 78.2758L42.2171 77.5166L43.5107 76.7574C39.3851 69.7277 37.1896 61.7486 37.137 53.6172L35.637 53.627ZM42.2171 77.5166L40.9234 78.2759C45.3171 85.762 51.6088 91.967 59.1663 96.2776L59.9095 94.9746L60.6526 93.6716C53.549 89.62 47.6377 83.7891 43.5107 76.7573L42.2171 77.5166ZM59.9095 94.9746L60.6525 96.2776C68.2113 91.967 74.506 85.7624 78.9004 78.2749L77.6067 77.5156L76.3131 76.7564C72.1857 83.789 66.2716 89.6196 59.1664 93.6716L59.9095 94.9746ZM77.6067 77.5156L78.9004 78.2749C83.2927 70.7908 85.6297 62.2946 85.6858 53.6357L84.1858 53.626L82.6859 53.6163C82.6332 61.7477 80.4386 69.7268 76.3131 76.7564L77.6067 77.5156ZM84.1858 53.626L84.9197 52.3178C77.2913 48.0383 68.678 45.7872 59.9134 45.7871L59.9134 47.2871L59.9134 48.7871C68.1644 48.7872 76.2722 50.9064 83.4519 54.9342L84.1858 53.626ZM59.9085 18.499V16.999C56.1082 16.999 52.2691 18.447 48.9384 20.6539L49.7669 21.9043L50.5954 23.1547C53.58 21.1771 56.8505 19.999 59.9085 19.999V18.499ZM49.7669 21.9043L48.9383 20.6539C45.6055 22.8623 42.7309 25.8635 40.862 29.0473L42.1556 29.8066L43.4491 30.566C45.0718 27.8017 47.6178 25.1277 50.5954 23.1547L49.7669 21.9043ZM42.1556 29.8066L40.8618 29.0476C39.61 31.1814 38.521 33.4043 37.6006 35.6958L38.9925 36.2549L40.3844 36.814C41.2499 34.6592 42.2734 32.57 43.4493 30.5657L42.1556 29.8066ZM38.9925 36.2549L39.4751 37.6751C52.7188 33.1741 67.0939 33.1729 80.3382 37.6713L80.8206 36.251L81.303 34.8307C67.4329 30.1197 52.3793 30.1209 38.5098 34.8347L38.9925 36.2549ZM80.8206 36.251L82.2125 35.6918C81.4335 33.7529 80.5351 31.8619 79.5171 30.0324L78.2063 30.7617L76.8956 31.4911C77.8512 33.2084 78.6957 34.9856 79.4287 36.8102L80.8206 36.251ZM78.2063 30.7617L79.5089 30.0179L78.963 29.0619L77.6604 29.8057L76.3578 30.5494L76.9037 31.5055L78.2063 30.7617ZM77.6604 29.8057L78.9541 29.0464C77.0852 25.8619 74.2104 22.8609 70.8776 20.6529L70.0491 21.9033L69.2207 23.1538C72.1982 25.1264 74.7442 27.8 76.3668 30.5649L77.6604 29.8057ZM70.0491 21.9033L70.8775 20.6528C67.547 18.4464 63.7087 16.9993 59.9086 16.999L59.9085 18.499L59.9084 19.999C62.9665 19.9992 66.2364 21.1768 69.2207 23.1538L70.0491 21.9033Z" fill="#053456" mask="url(#path-2-inside-1_2005_491)"/>
</g>
</svg>
