<svg width="20" height="20" viewBox="0 0 20 20" fill="none" xmlns="http://www.w3.org/2000/svg">
<g clip-path="url(#clip0_536_1395)">
<path d="M15.8064 12.3889C15.397 11.9626 14.9031 11.7347 14.3797 11.7347C13.8605 11.7347 13.3624 11.9584 12.936 12.3847L11.6022 13.7144C11.4924 13.6553 11.3827 13.6004 11.2771 13.5455C11.1252 13.4696 10.9816 13.3978 10.8592 13.3218C9.60978 12.5282 8.47429 11.4941 7.38524 10.156C6.8576 9.48902 6.50302 8.92761 6.24553 8.35775C6.59166 8.04117 6.91247 7.71192 7.22484 7.39533C7.34303 7.27714 7.46122 7.15473 7.57941 7.03654C8.46585 6.1501 8.46585 5.00195 7.57941 4.11551L6.42704 2.96314C6.29619 2.83229 6.16111 2.69721 6.03447 2.56213C5.78121 2.30042 5.51527 2.03027 5.2409 1.777C4.83145 1.37177 4.3418 1.15649 3.82682 1.15649C3.31184 1.15649 2.81375 1.37177 2.39163 1.777C2.38741 1.78122 2.38741 1.78122 2.38319 1.78544L0.948004 3.23329C0.407699 3.7736 0.099556 4.4321 0.0320178 5.19612C-0.0692895 6.42869 0.293728 7.57684 0.572323 8.32821C1.25615 10.1728 2.27766 11.8824 3.80149 13.7144C5.65035 15.922 7.87489 17.6654 10.416 18.8937C11.3869 19.3538 12.6828 19.8983 14.1306 19.9912C14.2193 19.9954 14.3121 19.9996 14.3965 19.9996C15.3716 19.9996 16.1905 19.6493 16.8321 18.9528C16.8364 18.9444 16.8448 18.9401 16.849 18.9317C17.0685 18.6658 17.3218 18.4252 17.5877 18.1677C17.7692 17.9946 17.955 17.8131 18.1365 17.6231C18.5544 17.1884 18.7739 16.6818 18.7739 16.1626C18.7739 15.6392 18.5501 15.1369 18.1238 14.7148L15.8064 12.3889ZM17.3176 16.8338C17.3134 16.8338 17.3134 16.838 17.3176 16.8338C17.153 17.0111 16.9841 17.1715 16.8026 17.3488C16.5282 17.6105 16.2496 17.8849 15.9879 18.193C15.5616 18.6489 15.0593 18.8642 14.4008 18.8642C14.3375 18.8642 14.2699 18.8642 14.2066 18.8599C12.9529 18.7797 11.7879 18.2901 10.9141 17.8722C8.52495 16.7156 6.42704 15.0736 4.68371 12.9926C3.2443 11.2577 2.28188 9.65364 1.64449 7.93142C1.25193 6.88036 1.10841 6.06146 1.17172 5.28899C1.21394 4.79511 1.40389 4.38566 1.75424 4.03531L3.19365 2.5959C3.40049 2.40173 3.61998 2.2962 3.83526 2.2962C4.10119 2.2962 4.31647 2.4566 4.45155 2.59168C4.45577 2.5959 4.45999 2.60012 4.46421 2.60434C4.7217 2.84495 4.96653 3.094 5.22402 3.35993C5.35487 3.495 5.48995 3.63008 5.62502 3.76938L6.77739 4.92175C7.22483 5.36919 7.22483 5.78286 6.77739 6.2303C6.65498 6.35271 6.53679 6.47513 6.41438 6.59332C6.0598 6.95634 5.72211 7.29403 5.35487 7.62328C5.34643 7.63172 5.33799 7.63594 5.33377 7.64438C4.97075 8.0074 5.03829 8.36197 5.11427 8.60258C5.11849 8.61524 5.12271 8.62791 5.12693 8.64057C5.42663 9.3666 5.84874 10.0504 6.49036 10.8651L6.49458 10.8693C7.65961 12.3045 8.88796 13.4231 10.2429 14.28C10.416 14.3898 10.5933 14.4784 10.7621 14.5628C10.9141 14.6388 11.0576 14.7106 11.18 14.7865C11.1969 14.795 11.2138 14.8077 11.2307 14.8161C11.3742 14.8879 11.5093 14.9216 11.6486 14.9216C11.9989 14.9216 12.2184 14.7021 12.2902 14.6304L13.7338 13.1867C13.8773 13.0432 14.1053 12.8701 14.3712 12.8701C14.6329 12.8701 14.8482 13.0348 14.9791 13.1783C14.9833 13.1825 14.9833 13.1825 14.9875 13.1867L17.3134 15.5126C17.7481 15.9431 17.7481 16.3864 17.3176 16.8338Z" fill="white"/>
<path d="M10.8089 4.75753C11.9148 4.94326 12.9195 5.46668 13.7215 6.26869C14.5235 7.07071 15.0427 8.07534 15.2327 9.18128C15.2791 9.45987 15.5197 9.65405 15.7941 9.65405C15.8278 9.65405 15.8574 9.64982 15.8912 9.6456C16.2035 9.59495 16.4104 9.29947 16.3597 8.98711C16.1318 7.64901 15.4986 6.4291 14.5319 5.46246C13.5653 4.49582 12.3454 3.86265 11.0073 3.6347C10.6949 3.58405 10.4037 3.79089 10.3488 4.09903C10.2939 4.40717 10.4965 4.70687 10.8089 4.75753Z" fill="white"/>
<path d="M19.9766 8.82267C19.6009 6.61923 18.5625 4.61419 16.9669 3.0186C15.3714 1.42301 13.3663 0.384613 11.1629 0.00893186C10.8547 -0.0459429 10.5635 0.165114 10.5086 0.473257C10.4579 0.785621 10.6648 1.07688 10.9771 1.13175C12.9442 1.46522 14.7382 2.3981 16.1649 3.82062C17.5917 5.24736 18.5203 7.04135 18.8538 9.0084C18.9002 9.28699 19.1408 9.48116 19.4152 9.48116C19.449 9.48116 19.4785 9.47694 19.5123 9.47272C19.8204 9.42629 20.0315 9.13081 19.9766 8.82267Z" fill="white"/>
</g>
<defs>
<clipPath id="clip0_536_1395">
<rect width="20" height="20" fill="white"/>
</clipPath>
</defs>
</svg>
