<svg width="50" height="50" viewBox="0 0 50 50" fill="none" xmlns="http://www.w3.org/2000/svg">
<path d="M23.9804 26.9616L20.2422 24.2651L27.3013 2.5L32.226 16.7208H27.3018L23.9804 26.9616Z" stroke="#053456" stroke-width="1.5" stroke-linecap="round" stroke-linejoin="round"/>
<path d="M24.3672 25.7686L25.7856 21.3935L48.7472 21.3557L36.6921 30.4156L35.1706 25.7505L24.3672 25.7686Z" stroke="#053456" stroke-width="1.5" stroke-linecap="round" stroke-linejoin="round"/>
<path d="M25.6281 25.7655L30.2436 25.7579L37.3754 47.4999L25 38.8784L28.9838 35.9957L25.6281 25.7655Z" stroke="#053456" stroke-width="1.5" stroke-linecap="round" stroke-linejoin="round"/>
<path d="M26.0187 26.9583L27.4523 31.3284L8.89844 44.8032L13.3052 30.4153L17.289 33.2985L26.0187 26.9583Z" stroke="#053456" stroke-width="1.5" stroke-linecap="round" stroke-linejoin="round"/>
<path d="M25.0013 27.6971L21.2721 30.4057L2.67383 16.9923L17.7724 16.7209L16.2509 21.3861L25.0013 27.6971Z" stroke="#053456" stroke-width="1.5" stroke-linecap="round" stroke-linejoin="round"/>
<path d="M22.6962 2.5L17.7715 16.7208L16.25 21.3859L20.2424 24.2651L27.3015 2.5H22.6962Z" stroke="#053456" stroke-width="1.5" stroke-linecap="round" stroke-linejoin="round"/>
<path d="M32.2287 16.7209H27.3045L25.7891 21.3931L48.7507 21.3553L47.3272 16.9918L32.2287 16.7209Z" stroke="#053456" stroke-width="1.5" stroke-linecap="round" stroke-linejoin="round"/>
<path d="M36.6949 30.4151L35.1734 25.7505L30.2441 25.758L37.376 47.5L41.1017 44.803L36.6949 30.4151Z" stroke="#053456" stroke-width="1.5" stroke-linecap="round" stroke-linejoin="round"/>
<path d="M28.9833 35.9957L27.4523 31.3281L8.89844 44.803L12.6246 47.4999L24.9995 38.8785L28.9833 35.9957Z" stroke="#053456" stroke-width="1.5" stroke-linecap="round" stroke-linejoin="round"/>
<path d="M2.67345 16.9919L1.25 21.355L13.3051 30.4149L17.2884 33.2982L21.2717 30.4054L2.67345 16.9919Z" stroke="#053456" stroke-width="1.5" stroke-linecap="round" stroke-linejoin="round"/>
</svg>
