<svg width="50" height="50" viewBox="0 0 50 50" fill="none" xmlns="http://www.w3.org/2000/svg">
<path d="M32.06 8.83606C30.9754 8.19398 29.5331 8.35101 27.918 9.15097C28.6138 9.89204 29.3048 10.6852 29.991 11.5306C30.9818 10.8491 32.1145 10.4152 33.2984 10.2637C33.0357 9.67045 32.6039 9.17273 32.06 8.83606Z" stroke="#053456" stroke-linecap="round" stroke-linejoin="round"/>
<path d="M20.0105 38.4698C19.0197 39.1514 17.887 39.5853 16.7031 39.7367C16.9658 40.33 17.3976 40.8277 17.9415 41.1643C19.0261 41.8064 20.4684 41.6494 22.0835 40.8495C21.3877 40.1084 20.6967 39.3152 20.0105 38.4698Z" stroke="#053456" stroke-linecap="round" stroke-linejoin="round"/>
<path d="M27.8301 36.8422C28.5077 37.4421 29.2303 37.9863 29.9913 38.4697C30.4961 37.8473 30.9955 37.1985 31.4894 36.5232C30.3045 36.6698 29.0847 36.7761 27.8301 36.8422Z" stroke="#053456" stroke-linecap="round" stroke-linejoin="round"/>
<path d="M20.0118 11.5304C19.507 12.1529 19.0076 12.8017 18.5137 13.4769C19.6986 13.3304 20.9184 13.2241 22.173 13.158C21.4955 12.558 20.7728 12.0138 20.0118 11.5304Z" stroke="#053456" stroke-linecap="round" stroke-linejoin="round"/>
<path d="M33.8806 36.1663C33.9608 37.3869 33.7609 38.6097 33.2969 39.7368C33.9292 39.8001 34.5655 39.6656 35.1218 39.3508C36.2064 38.7087 36.7949 37.3494 36.9268 35.5151C35.9531 35.7625 34.9377 35.9795 33.8806 36.1663Z" stroke="#053456" stroke-linecap="round" stroke-linejoin="round"/>
<path d="M14.8754 10.6494C13.7908 11.2915 13.2023 12.6508 13.0703 14.4851C14.0441 14.2378 15.0595 14.0207 16.1165 13.834C16.0363 12.6134 16.2363 11.3905 16.7003 10.2635C16.0679 10.2001 15.4317 10.3346 14.8754 10.6494Z" stroke="#053456" stroke-linecap="round" stroke-linejoin="round"/>
<path d="M32.439 29.4042C32.4569 29.3726 32.4736 29.341 32.4914 29.3093C32.5094 29.3618 32.5263 29.4137 32.5439 29.466C32.4908 29.4766 32.4382 29.4875 32.3848 29.4979C32.4027 29.4664 32.4211 29.4358 32.439 29.4042Z" stroke="#053456" stroke-linecap="round" stroke-linejoin="round"/>
<path d="M17.558 20.5954C17.5401 20.627 17.5235 20.6587 17.5057 20.6903C17.4877 20.6378 17.4708 20.5859 17.4531 20.5336C17.5063 20.523 17.5588 20.5121 17.6123 20.5017C17.5944 20.5332 17.5759 20.5638 17.558 20.5954Z" stroke="#053456" stroke-linecap="round" stroke-linejoin="round"/>
<path d="M11.1289 22.6964C11.4022 23.4559 11.7005 24.2238 12.0238 25C12.4925 23.8745 13.0125 22.7381 13.5841 21.5909C12.7386 21.8927 11.9177 22.2623 11.1289 22.6964Z" stroke="#053456" stroke-linecap="round" stroke-linejoin="round"/>
<path d="M17.558 29.4041C17.5759 29.4357 17.5945 29.4663 17.6124 29.4978C17.5589 29.4875 17.5063 29.4765 17.4531 29.4659C17.4708 29.4136 17.4876 29.3617 17.5056 29.3093C17.5234 29.3409 17.5402 29.3725 17.558 29.4041Z" stroke="#053456" stroke-linecap="round" stroke-linejoin="round"/>
<path d="M37.9763 25.0001C37.5076 26.1257 36.9875 27.2621 36.416 28.4092C37.2614 28.1074 38.0824 27.7378 38.8712 27.3038C38.5978 26.5443 38.2995 25.7764 37.9763 25.0001Z" stroke="#053456" stroke-linecap="round" stroke-linejoin="round"/>
<path d="M8.4029 25.0001C8.03321 25.53 7.82873 26.1623 7.81641 26.8137C7.81641 28.0978 8.67015 29.3001 10.1533 30.3345C10.4314 29.3461 10.7558 28.3358 11.1265 27.3038C10.0556 26.7647 9.12276 25.9757 8.4029 25.0001Z" stroke="#053456" stroke-linecap="round" stroke-linejoin="round"/>
<path d="M31.4863 13.4772C32.2026 14.4562 32.9023 15.4862 33.5854 16.5673C33.7533 15.6656 33.8516 14.7518 33.8793 13.8343C33.1013 13.6973 32.3036 13.5782 31.4863 13.4772Z" stroke="#053456" stroke-linecap="round" stroke-linejoin="round"/>
<path d="M24.9989 16.1912C24.9632 16.1912 24.9282 16.1923 24.8926 16.1924C24.928 16.1503 24.9634 16.1093 24.9989 16.0676C25.0343 16.1093 25.0697 16.1502 25.1051 16.1923C25.0696 16.1922 25.0345 16.1911 24.9989 16.1912Z" stroke="#053456" stroke-linecap="round" stroke-linejoin="round"/>
<path d="M40.7328 15.6851C40.5123 17.0285 40.2153 18.3575 39.8433 19.6653C41.3265 20.6997 42.1803 21.902 42.1803 23.1861C42.1679 23.8375 41.9634 24.4698 41.5938 24.9998C40.8739 25.9753 39.9411 26.7643 38.8701 27.3034C38.0813 27.7374 37.2604 28.1071 36.415 28.4089C36.25 28.4687 36.0792 28.5258 35.9087 28.583C34.8057 28.9481 33.6818 29.243 32.5433 29.466C32.4904 29.4766 32.4381 29.4876 32.3848 29.4979C30.89 29.7863 29.3796 29.982 27.8618 30.0839C26.9307 30.1475 25.9748 30.1814 24.9993 30.1814C24.0237 30.1814 23.0678 30.1475 22.1367 30.0838C22.9816 31.3808 23.9021 32.6242 24.893 33.8075C24.9286 33.8076 24.9636 33.8086 24.9993 33.8086C25.0349 33.8085 25.07 33.8075 25.1056 33.8074C26.6956 33.8043 28.249 33.7338 29.7506 33.6008C31.0511 33.4856 32.3104 33.3219 33.5241 33.118C33.6225 33.1015 33.7204 33.0847 33.8179 33.0675C34.8452 32.8881 35.8349 32.6791 36.787 32.4406C37.9698 32.1449 39.0919 31.8083 40.1357 31.4311C45.397 29.5303 48.7495 26.6587 48.7494 23.4452C48.7495 20.3557 45.6476 17.5837 40.7328 15.6851Z" stroke="#053456" stroke-linecap="round" stroke-linejoin="round"/>
<path d="M22.5718 13.5206C22.4382 13.3977 22.3046 13.2747 22.1716 13.1581C20.919 13.223 19.6992 13.3293 18.5122 13.4771C17.6958 13.5781 16.8981 13.6971 16.1192 13.8342C15.0638 14.0201 14.0484 14.2371 13.073 14.4853C11.7824 14.8089 10.5115 15.2096 9.26664 15.6855C4.35189 17.5842 1.25 20.3562 1.25 23.4457V26.5547C1.25 23.3413 4.60245 20.4697 9.86378 18.5688C10.9076 18.1917 12.0297 17.8551 13.2126 17.5593C14.1631 17.3216 15.1528 17.1127 16.1816 16.9325C16.2793 16.9154 16.3772 16.8986 16.4753 16.8819C17.6891 16.6781 18.9484 16.5144 20.2489 16.3992C21.7505 16.2661 23.3039 16.1956 24.8939 16.1925C24.9293 16.1504 24.9648 16.1094 25.0002 16.0677C24.2427 15.1682 23.4316 14.3175 22.5718 13.5206Z" stroke="#053456" stroke-linecap="round" stroke-linejoin="round"/>
<path d="M39.8443 19.6654C39.5663 20.6538 39.2419 21.6641 38.8711 22.6961C39.9421 23.2352 40.8749 24.0242 41.5947 24.9998C41.9644 24.4699 42.1689 23.8376 42.1813 23.1862C42.1813 21.902 41.3275 20.6998 39.8443 19.6654Z" stroke="#053456" stroke-linecap="round" stroke-linejoin="round"/>
<path d="M16.4111 33.433C16.2432 34.3347 16.145 35.2485 16.1172 36.166C16.8953 36.303 17.6929 36.422 18.5102 36.5231C17.7939 35.5441 17.0942 34.514 16.4111 33.433Z" stroke="#053456" stroke-linecap="round" stroke-linejoin="round"/>
<path d="M12.8206 31.7472C13.0952 30.7842 13.4136 29.8009 13.7757 28.7971C13.8102 28.7019 13.8449 28.6065 13.8799 28.511C14.3147 27.3312 14.8077 26.1337 15.359 24.9185C15.9975 23.5185 16.7146 22.1038 17.507 20.6903C17.4891 20.6378 17.4722 20.5858 17.4547 20.5334C16.3162 20.7564 15.1923 21.0513 14.0894 21.4164C13.9188 21.4736 13.748 21.5308 13.583 21.5906C13.0115 22.7354 12.4915 23.8717 12.0228 24.9997C11.6998 25.7752 11.4015 26.5431 11.1279 27.3034C10.7571 28.3335 10.4327 29.3438 10.1547 30.3341C9.78266 31.6419 9.48565 32.971 9.26513 34.3144C8.41129 39.6282 9.20146 43.7688 11.8108 45.3136L14.4365 46.8681C11.7226 45.2613 10.9736 40.8485 11.9989 35.2258C12.2023 34.1103 12.479 32.9455 12.8206 31.7472Z" stroke="#053456" stroke-linecap="round" stroke-linejoin="round"/>
<path d="M24.9988 33.809C25.0345 33.809 25.0696 33.8079 25.1052 33.8079C25.0698 33.85 25.0343 33.8909 24.9988 33.9326C24.9634 33.8909 24.928 33.85 24.8926 33.8079C24.9282 33.808 24.9632 33.809 24.9988 33.809Z" stroke="#053456" stroke-linecap="round" stroke-linejoin="round"/>
<path d="M32.4383 20.5956C32.4205 20.564 32.402 20.5334 32.3841 20.5018C31.5866 19.0914 30.7503 17.7472 29.8871 16.4802C29.1396 15.383 28.3716 14.3465 27.5926 13.3705C27.5295 13.2914 27.4663 13.2129 27.4031 13.1349C26.7379 12.3124 26.0666 11.538 25.3891 10.8117C24.5479 9.90918 23.7025 9.08102 22.8622 8.34269C18.626 4.6208 14.5247 3.07949 11.8107 4.68624C9.20145 6.231 8.4113 10.3716 9.26514 15.6854C10.51 15.2095 11.7809 14.8087 13.0715 14.4852C13.2034 12.6509 13.7919 11.2916 14.8765 10.6495C15.4328 10.3347 16.0691 10.2001 16.7014 10.2635C17.8853 10.415 19.0181 10.8489 20.0088 11.5304C20.7698 12.0138 21.4925 12.558 22.1701 13.1579C22.3031 13.2745 22.4367 13.3976 22.5703 13.5204C23.4301 14.3174 24.2411 15.168 24.9987 16.0675C25.0341 16.1092 25.0695 16.1502 25.1049 16.1923C26.0959 17.3755 27.0163 18.619 27.8612 19.916C28.3805 20.711 28.8851 21.5421 29.3749 22.4092C29.8627 23.2756 30.3119 24.1414 30.7238 25.0001C31.3967 23.6013 31.9866 22.1621 32.4905 20.6905C32.4727 20.6589 32.4561 20.6273 32.4383 20.5956Z" stroke="#053456" stroke-linecap="round" stroke-linejoin="round"/>
<path d="M22.0854 40.8494C20.4702 41.6493 19.0279 41.8064 17.9434 41.1643C17.3994 40.8277 16.9676 40.3299 16.705 39.7367C16.241 38.6096 16.041 37.3868 16.1213 36.1662C16.149 35.2487 16.2473 34.3348 16.4151 33.4331C16.4471 33.2567 16.4843 33.0766 16.5212 32.8965C16.7643 31.7344 17.0773 30.5889 17.4581 29.4664C17.4757 29.4141 17.4925 29.3621 17.5104 29.3097C18.0143 27.838 18.6042 26.3989 19.2771 25.0001C19.689 24.1415 20.1382 23.2756 20.626 22.4093C21.1138 21.5429 21.6204 20.7111 22.1397 19.916C20.6219 20.0179 19.1115 20.2135 17.6167 20.5019C17.5988 20.5335 17.5804 20.5641 17.5626 20.5957C17.5449 20.6273 17.5282 20.659 17.5105 20.6907C16.7181 22.1042 16.0009 23.5189 15.3625 24.9189C14.8096 26.1314 14.3165 27.3289 13.8834 28.5114C13.8482 28.607 13.8135 28.7024 13.7792 28.7975C13.4171 29.7995 13.0988 30.7828 12.8241 31.7476C12.4825 32.9459 12.2057 34.1107 12.0024 35.2262C10.9771 40.8489 11.7261 45.2618 14.44 46.8685C17.0493 48.4133 20.9413 47.0447 25.0022 43.6295C23.9779 42.762 23.0039 41.8337 22.0854 40.8494Z" stroke="#053456" stroke-linecap="round" stroke-linejoin="round"/>
<path d="M27.1376 41.6576C26.2973 40.9192 25.4519 40.091 24.6107 39.1885C23.9346 38.4631 23.2633 37.6887 22.5967 36.8653C22.5335 36.7871 22.4703 36.7086 22.4072 36.6297C21.6282 35.6537 20.8603 34.6172 20.1127 33.52C19.2495 32.253 18.4133 30.9089 17.6157 29.4984C17.5624 29.488 17.5101 29.477 17.4571 29.4664C17.0762 30.5889 16.7633 31.7345 16.5201 32.8965C16.4832 33.0766 16.446 33.2568 16.4141 33.4332C17.0952 34.5131 17.7949 35.5431 18.5132 36.5233C19.0067 37.1978 19.506 37.8467 20.0113 38.4699C20.6959 39.3141 21.3869 40.1073 22.0843 40.8495C23.0028 41.8337 23.9768 42.762 25.0011 43.6295C29.062 47.0447 32.9541 48.4133 35.5633 46.8685L38.1891 45.314C35.4751 46.9207 31.3738 45.3794 27.1376 41.6576Z" stroke="#053456" stroke-linecap="round" stroke-linejoin="round"/>
<path d="M40.1364 31.4314C39.0926 31.8086 37.9705 32.1452 36.7877 32.4409C35.8371 32.6786 34.8474 32.8876 33.8186 33.0678C33.7209 33.0849 33.623 33.1017 33.5249 33.1183C32.3111 33.3222 31.0518 33.4859 29.7513 33.6011C28.2497 33.7341 26.6963 33.8046 25.1063 33.8077C25.0709 33.8499 25.0354 33.8908 25 33.9326C25.7575 34.8321 26.5686 35.6828 27.4284 36.4797C27.562 36.6025 27.6956 36.7256 27.8286 36.8422C29.0811 36.7773 30.3009 36.671 31.488 36.5232C32.3044 36.4222 33.1021 36.3032 33.881 36.1661C34.9364 35.9802 35.9518 35.7632 36.9272 35.5149C38.2177 35.1914 39.4887 34.7906 40.7335 34.3147C45.6483 32.4161 48.7502 29.6441 48.7502 26.5546V23.4456C48.7502 26.659 45.3978 29.5306 40.1364 31.4314Z" stroke="#053456" stroke-linecap="round" stroke-linejoin="round"/>
<path d="M31.4884 13.4767C30.9949 12.8022 30.4955 12.1534 29.9903 11.5302C29.3057 10.6859 28.6147 9.89268 27.9173 9.15058C26.9988 8.1663 26.0248 7.23801 25.0005 6.37049C20.9396 2.95533 17.0475 1.58673 14.4382 3.13153L11.8125 4.68603C14.5265 3.07928 18.6278 4.62059 22.864 8.34246C23.7044 9.08081 24.5497 9.90895 25.3909 10.8115C26.0669 11.5368 26.7383 12.3112 27.4049 13.1347C27.4681 13.2129 27.5313 13.2914 27.5944 13.3702C28.3734 14.3462 29.1414 15.3827 29.8889 16.4799C30.7521 17.7469 31.5884 19.0911 32.3859 20.5016C32.4038 20.5332 32.4223 20.5637 32.4401 20.5954C32.4579 20.627 32.4745 20.6586 32.4923 20.6903C32.5102 20.6378 32.527 20.5859 32.5445 20.5336C32.9254 19.4111 33.2383 18.2655 33.4815 17.1035C33.5184 16.9235 33.5556 16.7432 33.5875 16.5668C32.9064 15.487 32.2067 14.4569 31.4884 13.4767Z" stroke="#053456" stroke-linecap="round" stroke-linejoin="round"/>
<path d="M38.1884 4.68658L35.5627 3.13208C38.2766 4.7388 39.0256 9.15164 38.0003 14.7744C37.7969 15.8898 37.5202 17.0546 37.1786 18.2529C36.904 19.2159 36.5856 20.1993 36.2234 21.203C36.189 21.2983 36.1543 21.3937 36.1192 21.4891C35.6844 22.6689 35.1914 23.8664 34.6402 25.0816C34.0017 26.4816 33.2846 27.8963 32.4922 29.3098C32.5101 29.3624 32.527 29.4143 32.5445 29.4667C33.6829 29.2437 34.8069 28.9488 35.9098 28.5837C36.0804 28.5264 36.2512 28.4693 36.4161 28.4095C36.9876 27.2648 37.5077 26.1284 37.9764 25.0004C38.2993 24.2249 38.5976 23.457 38.8713 22.6968C39.242 21.6666 39.5664 20.6563 39.8445 19.666C40.2165 18.3582 40.5135 17.0292 40.734 15.6857C41.5879 10.3719 40.7977 6.23134 38.1884 4.68658Z" stroke="#053456" stroke-linecap="round" stroke-linejoin="round"/>
<path d="M35.5622 3.13151C32.9529 1.58675 29.0609 2.95533 25 6.37047C26.0244 7.23799 26.9983 8.16628 27.9168 9.15056C29.532 8.3506 30.9743 8.19357 32.0588 8.83565C32.6028 9.17231 33.0346 9.67004 33.2972 10.2633C33.7613 11.3903 33.9612 12.6132 33.881 13.8338C33.8532 14.7513 33.7549 15.6652 33.5871 16.5668C33.5551 16.7432 33.5179 16.9235 33.481 17.1035C33.2379 18.2655 32.9249 19.4111 32.5441 20.5336C32.5265 20.5859 32.5097 20.6378 32.4918 20.6903C31.988 22.1619 31.398 23.6011 30.7251 24.9999C30.3133 25.8585 29.864 26.7243 29.3762 27.5907C28.8884 28.457 28.3818 29.2889 27.8626 30.084C29.3803 29.9821 30.8907 29.7864 32.3855 29.4981C32.4034 29.4665 32.4218 29.4359 32.4396 29.4043C32.4574 29.3726 32.474 29.3409 32.4918 29.3093C33.2841 27.8958 34.0013 26.481 34.6397 25.081C35.1927 23.8686 35.6857 22.6711 36.1188 21.4886C36.154 21.393 36.1887 21.2977 36.223 21.2025C36.5851 20.2005 36.9035 19.2171 37.1781 18.2524C37.5197 17.0541 37.7965 15.8893 37.9999 14.7738C39.0251 9.15107 38.2761 4.73823 35.5622 3.13151Z" stroke="#053456" stroke-linecap="round" stroke-linejoin="round"/>
<path d="M40.7331 34.3148C39.4883 34.7907 38.2173 35.1914 36.9268 35.515C36.7949 37.3493 36.2063 38.7086 35.1218 39.3507C34.5655 39.6654 33.9292 39.8 33.2968 39.7367C32.113 39.5852 30.9802 39.1513 29.9895 38.4698C29.2285 37.9863 28.5058 37.4422 27.8282 36.8423C27.6952 36.7257 27.5616 36.6026 27.428 36.4798C26.5682 35.6828 25.7572 34.8322 24.9996 33.9327C24.9642 33.891 24.9287 33.85 24.8933 33.8079C23.9024 32.6246 22.982 31.3811 22.137 30.0842C21.6178 29.2892 21.1132 28.4581 20.6234 27.5909C20.1356 26.7246 19.6863 25.8588 19.2745 25.0001C18.6016 26.3989 18.0117 27.838 17.5078 29.3096C17.5255 29.3413 17.5422 29.3729 17.56 29.4045C17.5778 29.4361 17.5963 29.4668 17.6142 29.4984C18.4118 30.9088 19.248 32.253 20.1112 33.52C20.8588 34.6172 21.6267 35.6537 22.4057 36.6297C22.4688 36.7087 22.532 36.7873 22.5952 36.8653C23.2604 37.6878 23.9318 38.4622 24.6092 39.1885C25.4504 40.091 26.2958 40.9192 27.1361 41.6575C31.3722 45.3794 35.4736 46.9207 38.1876 45.314C40.7968 43.7692 41.587 39.6286 40.7331 34.3148Z" stroke="#053456" stroke-linecap="round" stroke-linejoin="round"/>
<path d="M25.1064 16.1921C25.0708 16.1921 25.0358 16.191 25.0002 16.191C24.9646 16.191 24.9295 16.1922 24.8939 16.1922C23.3039 16.1953 21.7505 16.2658 20.2489 16.3989C18.9484 16.5141 17.6891 16.6778 16.4753 16.8816C16.377 16.8981 16.2791 16.915 16.1816 16.9322C15.1543 17.1116 14.1646 17.3205 13.2125 17.559C12.0297 17.8548 10.9076 18.1914 9.86374 18.5686C4.60245 20.4694 1.25 23.341 1.25 26.5544C1.24997 29.6439 4.35186 32.4159 9.26661 34.3146C9.48712 32.9712 9.78413 31.6421 10.1561 30.3343C8.67295 29.3 7.8192 28.0976 7.8192 26.8135C7.83153 26.1621 8.03601 25.5298 8.4057 24.9999C9.12554 24.0243 10.0584 23.2353 11.1293 22.6963C11.9181 22.2622 12.739 21.8926 13.5845 21.5908C13.7494 21.531 13.9202 21.4739 14.0908 21.4166C15.1938 21.0515 16.3177 20.7567 17.4561 20.5337C17.5091 20.5231 17.5614 20.5121 17.6147 20.5017C19.1095 20.2133 20.6199 20.0177 22.1376 19.9158C23.0687 19.8522 24.0246 19.8182 25.0002 19.8182C25.9758 19.8182 26.9316 19.8522 27.8627 19.9158C27.0178 18.6189 26.0974 17.3754 25.1064 16.1921Z" stroke="#053456" stroke-linecap="round" stroke-linejoin="round"/>
</svg>
