<svg width="50" height="50" viewBox="0 0 50 50" fill="none" xmlns="http://www.w3.org/2000/svg">
<path d="M48.7506 18.864L46.5921 14.7727L33.6415 39.318L29.3245 31.1366L27.166 35.2273L33.6415 47.4999L48.7506 18.864Z" stroke="#053456" stroke-width="1.1" stroke-linecap="round" stroke-linejoin="round"/>
<path d="M20.6914 14.7727L22.8499 18.864H40.1175L31.4839 35.2273L33.6424 39.318L46.593 14.7727H20.6914Z" stroke="#053456" stroke-width="1.1" stroke-linecap="round" stroke-linejoin="round"/>
<path d="M27.1683 35.2274L25.0098 39.3181L27.1683 43.4094L29.3268 47.5H33.6438L27.1683 35.2274Z" stroke="#053456" stroke-width="1.1" stroke-linecap="round" stroke-linejoin="round"/>
<path d="M40.1172 18.864H22.8496L25.0081 22.9547H37.9587L40.1172 18.864Z" stroke="#053456" stroke-width="1.1" stroke-linecap="round" stroke-linejoin="round"/>
<path d="M29.3268 22.9546L20.6927 39.3179L12.0592 22.9546H7.74219L20.6927 47.4998L33.6438 22.9546H29.3268Z" stroke="#053456" stroke-width="1.1" stroke-linecap="round" stroke-linejoin="round"/>
<path d="M12.0731 14.8117L3.4391 14.7341L1.25 18.8053L14.2005 18.9219L12.0731 14.8117Z" stroke="#053456" stroke-width="1.1" stroke-linecap="round" stroke-linejoin="round"/>
<path d="M7.7431 22.9547H16.3766L14.2186 18.864H1.26758L16.3766 47.5H20.6936L7.7431 22.9547Z" stroke="#053456" stroke-width="1.1" stroke-linecap="round" stroke-linejoin="round"/>
<path d="M40.1176 2.5L33.6426 14.7726H37.9591L42.2761 6.59125L40.1176 2.5Z" stroke="#053456" stroke-width="1.1" stroke-linecap="round" stroke-linejoin="round"/>
<path d="M9.90069 2.5L7.74219 6.59125H33.6438L29.3267 14.7726H33.6438L40.1188 2.5H9.90069Z" stroke="#053456" stroke-width="1.1" stroke-linecap="round" stroke-linejoin="round"/>
<path d="M18.5333 10.6819H14.2168L22.8503 27.0452L25.0088 22.9545L18.5333 10.6819Z" stroke="#053456" stroke-width="1.1" stroke-linecap="round" stroke-linejoin="round"/>
<path d="M25.0107 22.9546L18.5352 35.2272L20.6937 39.3179L29.3277 22.9546H25.0107Z" stroke="#053456" stroke-width="1.1" stroke-linecap="round" stroke-linejoin="round"/>
<path d="M7.74219 6.59119L20.6927 31.1364L22.8512 27.0452L14.2177 10.6819H31.4853L33.6438 6.59119H7.74219Z" stroke="#053456" stroke-width="1.1" stroke-linecap="round" stroke-linejoin="round"/>
</svg>
