<svg width="52" height="52" viewBox="0 0 52 52" fill="none" xmlns="http://www.w3.org/2000/svg">
<g clip-path="url(#clip0_1923_1833)">
<path d="M26 25.9998V30.2529L37.2493 36.6449L40.992 34.5178L26 25.9998Z" stroke="#053456" stroke-width="1.5" stroke-linecap="round" stroke-linejoin="round"/>
<path d="M11.0098 34.5178L14.7524 36.6449L26.0017 30.2529V25.9998L11.0098 34.5178Z" stroke="#053456" stroke-width="1.5" stroke-linecap="round" stroke-linejoin="round"/>
<path d="M25.9997 46.7469L7.74316 36.3735L4 38.5001L25.9997 51L47.9993 38.5001L44.2562 36.3735L25.9997 46.7469Z" stroke="#053456" stroke-width="1.5" stroke-linecap="round" stroke-linejoin="round"/>
<path d="M25.9983 9.50711V5.25342L11.4844 13.5002L15.2275 15.6268L25.9983 9.50711Z" stroke="#053456" stroke-width="1.5" stroke-linecap="round" stroke-linejoin="round"/>
<path d="M47.9993 13.4999L25.9997 1L4 13.4999L7.74294 15.6266L22.2568 23.8731L11.0076 30.2648V34.5181L25.9997 25.9998L40.9917 34.5181V30.2648L29.7426 23.8731L47.9993 13.4999ZM25.9997 21.7465L11.4858 13.4999L25.9997 5.25334L40.5135 13.4999L25.9997 21.7465Z" stroke="#053456" stroke-width="1.5" stroke-linecap="round" stroke-linejoin="round"/>
<path d="M36.7707 15.6268L40.5139 13.5002L26 5.25342V9.50711L36.7707 15.6268Z" stroke="#053456" stroke-width="1.5" stroke-linecap="round" stroke-linejoin="round"/>
<path d="M40.9922 21.7351V30.2649V34.518L44.2567 36.3733V19.8804L40.9922 21.7351Z" stroke="#053456" stroke-width="1.5" stroke-linecap="round" stroke-linejoin="round"/>
<path d="M29.7422 23.8728L33.4848 25.9994L44.2555 19.8798V36.3728L47.9987 38.4993V13.4995L29.7422 23.8728Z" stroke="#053456" stroke-width="1.5" stroke-linecap="round" stroke-linejoin="round"/>
<path d="M11.0098 21.7351V30.2648L18.5159 26L11.0098 21.7351Z" stroke="#053456" stroke-width="1.5" stroke-linecap="round" stroke-linejoin="round"/>
<path d="M7.74414 19.8804V36.3733L11.0087 34.518V30.2649V21.7351L7.74414 19.8804Z" stroke="#053456" stroke-width="1.5" stroke-linecap="round" stroke-linejoin="round"/>
<path d="M4 13.4995V38.4993L7.74316 36.3728V19.8798L18.5139 25.9994L22.2565 23.8728L4 13.4995Z" stroke="#053456" stroke-width="1.5" stroke-linecap="round" stroke-linejoin="round"/>
<path d="M11.0087 34.5178L7.74414 36.3731L26.0006 46.7465V43.0364L11.0087 34.5178Z" stroke="#053456" stroke-width="1.5" stroke-linecap="round" stroke-linejoin="round"/>
<path d="M40.992 34.5178L26 43.0364V46.7465L44.2565 36.3731L40.992 34.5178Z" stroke="#053456" stroke-width="1.5" stroke-linecap="round" stroke-linejoin="round"/>
</g>
<defs>
<clipPath id="clip0_1923_1833">
<rect width="52" height="52" fill="white"/>
</clipPath>
</defs>
</svg>
