<svg width="52" height="52" viewBox="0 0 52 52" fill="none" xmlns="http://www.w3.org/2000/svg">
<g clip-path="url(#clip0_1923_2073)">
<path d="M14.4766 13.5V19.4521L26.0002 12.9048V6.95215L14.4766 13.5Z" stroke="white" stroke-width="1.5" stroke-linecap="round" stroke-linejoin="round"/>
<path d="M26 6.95215V12.9048L42.7617 22.4287V16.4761L26 6.95215Z" stroke="white" stroke-width="1.5" stroke-linecap="round" stroke-linejoin="round"/>
<path d="M9.23828 16.4761V35.5239L14.4764 32.5473V13.5L9.23828 16.4761Z" stroke="white" stroke-width="1.5" stroke-linecap="round" stroke-linejoin="round"/>
<path d="M26 45.0473V51L42.7617 41.476V35.5239L26 45.0473Z" stroke="white" stroke-width="1.5" stroke-linecap="round" stroke-linejoin="round"/>
<path d="M4 32.5481V38.5002L20.7617 48.0241V42.0715L4 32.5481Z" stroke="white" stroke-width="1.5" stroke-linecap="round" stroke-linejoin="round"/>
<path d="M9.23809 35.5239V16.4761L4 13.5V32.5478L9.23809 35.5239Z" stroke="white" stroke-width="1.5" stroke-linecap="round" stroke-linejoin="round"/>
<path d="M26 1L9.23828 10.5239L14.4764 13.5L31.2381 3.97606L26 1Z" stroke="white" stroke-width="1.5" stroke-linecap="round" stroke-linejoin="round"/>
<path d="M14.4764 32.5476L9.23828 35.5242L20.7619 42.0715L26 39.0955L14.4764 32.5476Z" stroke="white" stroke-width="1.5" stroke-linecap="round" stroke-linejoin="round"/>
<path d="M20.7617 42.0713V48.0239L25.9998 51V45.0473L20.7617 42.0713Z" stroke="white" stroke-width="1.5" stroke-linecap="round" stroke-linejoin="round"/>
<path d="M42.7617 22.4285V41.4758L47.9998 38.4997V19.4519L42.7617 22.4285Z" stroke="white" stroke-width="1.5" stroke-linecap="round" stroke-linejoin="round"/>
<path d="M14.4762 13.5L9.23809 10.5239L4 13.5L9.23809 16.476L14.4762 13.5Z" stroke="white" stroke-width="1.5" stroke-linecap="round" stroke-linejoin="round"/>
<path d="M37.5234 19.4519V32.5471L42.7615 35.5237V22.4285L37.5234 19.4519Z" stroke="white" stroke-width="1.5" stroke-linecap="round" stroke-linejoin="round"/>
<path d="M37.5234 32.5481L20.7617 42.0715L25.9998 45.0476L42.7615 35.5242L37.5234 32.5481Z" stroke="white" stroke-width="1.5" stroke-linecap="round" stroke-linejoin="round"/>
<path d="M42.7617 16.4758L47.9998 13.4997L31.2381 3.97583L26 6.95189L42.7617 16.4758Z" stroke="white" stroke-width="1.5" stroke-linecap="round" stroke-linejoin="round"/>
<path d="M42.7617 16.4761V22.4287L47.9998 19.4521V13.5L42.7617 16.4761Z" stroke="white" stroke-width="1.5" stroke-linecap="round" stroke-linejoin="round"/>
</g>
<defs>
<clipPath id="clip0_1923_2073">
<rect width="52" height="52" fill="white"/>
</clipPath>
</defs>
</svg>
