<svg width="50" height="50" viewBox="0 0 50 50" fill="none" xmlns="http://www.w3.org/2000/svg">
<path d="M3.75 33.8567L6.56412 38.6439H16.9773H22.3394L25.154 33.8567H3.75Z" stroke="#053456" stroke-width="1.5" stroke-linecap="round" stroke-linejoin="round"/>
<path d="M22.3175 29.5604H17.2664H11.6376L8.95659 25.0001L3.75 33.8565H25.154L27.6796 29.5604H22.3175Z" stroke="#053456" stroke-width="1.5" stroke-linecap="round" stroke-linejoin="round"/>
<path d="M30.3638 25.0001L27.6827 29.5604L25.1572 33.8565L22.3426 38.6437H16.9805L22.1871 47.5001L32.8893 29.2962L30.3638 25.0001Z" stroke="#053456" stroke-width="1.5" stroke-linecap="round" stroke-linejoin="round"/>
<path d="M6.56412 11.3564L3.75 16.1437L8.95659 25.0001L11.6376 29.5604H17.2664L6.56412 11.3564Z" stroke="#053456" stroke-width="1.5" stroke-linecap="round" stroke-linejoin="round"/>
<path d="M27.8136 2.5L17.1113 20.7039L19.6369 25L22.3179 20.4397L24.8435 16.1436L27.6581 11.3564H33.0202L27.8136 2.5Z" stroke="#053456" stroke-width="1.5" stroke-linecap="round" stroke-linejoin="round"/>
<path d="M24.84 16.1437L22.3145 20.4397H27.6765H32.7276H38.3564L41.0374 25.0001L46.244 16.1437H24.84Z" stroke="#053456" stroke-width="1.5" stroke-linecap="round" stroke-linejoin="round"/>
<path d="M19.6387 25.0001L17.1132 20.704L14.2985 15.9168L16.9796 11.3564H6.56641L17.2687 29.5604H22.3197L19.6387 25.0001Z" stroke="#053456" stroke-width="1.5" stroke-linecap="round" stroke-linejoin="round"/>
<path d="M43.4369 38.6436L32.7347 20.4397H27.6836L30.3646 25L32.8902 29.2961L35.7048 34.0833L33.0238 38.6436H43.4369Z" stroke="#053456" stroke-width="1.5" stroke-linecap="round" stroke-linejoin="round"/>
<path d="M41.0422 25L38.3612 20.4397H32.7324L43.4347 38.6436L46.2488 33.8564L41.0422 25Z" stroke="#053456" stroke-width="1.5" stroke-linecap="round" stroke-linejoin="round"/>
<path d="M22.1845 2.5L16.9779 11.3564L14.2969 15.9167L17.1115 20.7039L27.8137 2.5H22.1845Z" stroke="#053456" stroke-width="1.5" stroke-linecap="round" stroke-linejoin="round"/>
<path d="M43.4356 11.3564H33.0224H27.6603L24.8457 16.1437H46.2497L43.4356 11.3564Z" stroke="#053456" stroke-width="1.5" stroke-linecap="round" stroke-linejoin="round"/>
<path d="M32.8878 29.2961L22.1855 47.5001H27.8148L33.0214 38.6437L35.7024 34.0834L32.8878 29.2961Z" stroke="#053456" stroke-width="1.5" stroke-linecap="round" stroke-linejoin="round"/>
</svg>
