<svg width="52" height="52" viewBox="0 0 52 52" fill="none" xmlns="http://www.w3.org/2000/svg">
<g clip-path="url(#clip0_1923_2009)">
<path d="M43.712 37.6553L38.4205 36.1387L38.4226 36.1424L33.5259 38.6494L25.9176 42.5451L25.9102 46.7725L38.8147 40.165L43.713 37.6569L43.712 37.6553Z" stroke="white" stroke-width="1.5" stroke-linecap="round" stroke-linejoin="round"/>
<path d="M40.8594 32.9247L29.7441 14.479V21.7435L35.5679 31.4086L38.4185 36.1387L43.71 37.6553L40.8594 32.9247Z" stroke="white" stroke-width="1.5" stroke-linecap="round" stroke-linejoin="round"/>
<path d="M11.1377 32.9247L8.28711 37.6553L13.5786 36.1387L16.4292 31.4086L22.253 21.7435V14.479L11.1377 32.9247Z" stroke="white" stroke-width="1.5" stroke-linecap="round" stroke-linejoin="round"/>
<path d="M18.4071 38.6682L13.5622 36.1666L13.5788 36.1387L8.28732 37.6553L8.2793 37.6693L13.138 40.1785L25.9062 46.7725L25.9137 42.5451L18.4071 38.6682Z" stroke="white" stroke-width="1.5" stroke-linecap="round" stroke-linejoin="round"/>
<path d="M22.2544 29.7395L16.4307 31.4089L13.5801 36.139L25.9989 32.5798L22.2544 29.7395Z" stroke="white" stroke-width="1.5" stroke-linecap="round" stroke-linejoin="round"/>
<path d="M26.0013 1V8.26505V15.5296V32.5796L29.7458 29.7392V21.7435V14.479L40.861 32.9247L43.7116 37.6554L43.7127 37.657L38.8144 40.1651L25.9098 46.7726L25.9023 51L49.0031 39.172L26.0013 1Z" stroke="white" stroke-width="1.5" stroke-linecap="round" stroke-linejoin="round"/>
<path d="M3 39.172L25.9029 51L25.9104 46.7726L13.1422 40.1785L8.28347 37.6694L8.29149 37.6554L11.1421 32.9247L22.2573 14.479V21.7435V29.7392L26.0018 32.5796V15.5296V8.26505V1L3 39.172Z" stroke="white" stroke-width="1.5" stroke-linecap="round" stroke-linejoin="round"/>
<path d="M13.583 36.1387L13.5664 36.1667L18.4112 38.6683L26.0018 36.493V32.5796L13.583 36.1387Z" stroke="white" stroke-width="1.5" stroke-linecap="round" stroke-linejoin="round"/>
<path d="M35.5682 31.4089L29.7445 29.7395L26 32.5798L38.4189 36.139L35.5682 31.4089Z" stroke="white" stroke-width="1.5" stroke-linecap="round" stroke-linejoin="round"/>
<path d="M38.4189 36.1387L26 32.5796V36.493L33.5243 38.6495L38.421 36.1425L38.4189 36.1387Z" stroke="white" stroke-width="1.5" stroke-linecap="round" stroke-linejoin="round"/>
</g>
<defs>
<clipPath id="clip0_1923_2009">
<rect width="52" height="52" fill="white"/>
</clipPath>
</defs>
</svg>
