<svg width="52" height="52" viewBox="0 0 52 52" fill="none" xmlns="http://www.w3.org/2000/svg">
<g clip-path="url(#clip0_1923_1730)">
<path d="M45.4146 25.984C45.3853 14.1494 37.846 3.19345 22.7542 2.26172C17.0128 3.04137 11.7478 5.87345 7.93275 10.2343C4.11771 14.5952 2.01064 20.1899 2.00112 25.984C2.00011 25.9929 1.99978 26.002 2.00014 26.011C2.01304 29.4328 2.75509 32.8126 4.17682 35.9251C5.59855 39.0376 7.66732 41.8114 10.2453 44.0615C12.8232 46.3117 15.8511 47.9866 19.1273 48.9747C22.4034 49.9627 25.8525 50.2411 29.2447 49.7915C14.1245 48.8571 6.58495 37.7485 6.58495 26.011C6.58471 26.002 6.58492 25.9929 6.58559 25.984C6.62038 16.483 13.7187 9.03098 22.4708 9.03098C31.2225 9.03098 38.3208 16.483 38.3557 25.984C38.3563 25.9929 38.3566 26.002 38.3563 26.011C38.3514 29.2875 37.0453 32.428 34.7252 34.7416C32.4051 37.0553 29.261 38.3528 25.9845 38.3486C22.7079 38.3445 19.5671 37.0391 17.2529 34.7196C14.9387 32.4 13.6405 29.2563 13.6439 25.9797C13.6439 35.3804 20.7562 42.9965 29.5297 42.9965C38.3033 42.9965 45.4156 35.4143 45.4156 26.0136C45.4158 26.0037 45.4155 25.9938 45.4146 25.984Z" stroke="white" stroke-width="1.5" stroke-linecap="round" stroke-linejoin="round"/>
<path d="M49.9985 25.984C50.0156 22.5543 49.2933 19.1613 47.8807 16.0361C46.4682 12.9108 44.3986 10.1267 41.813 7.87348C39.2274 5.62022 36.1865 3.95073 32.8974 2.97873C29.6084 2.00673 26.1485 1.75507 22.7534 2.24088C37.8452 3.17262 45.3844 14.1494 45.4137 25.984C45.4147 25.9929 45.4151 26.002 45.4147 26.011C45.4147 35.4117 38.3024 43.0121 29.5289 43.0121C20.7553 43.0121 13.643 35.4221 13.643 26.0214C13.6429 26.0089 13.6435 25.9964 13.6447 25.984C13.6611 22.7181 14.9699 19.5916 17.2851 17.288C19.6002 14.9845 22.7333 13.6913 25.9992 13.6913C29.2652 13.6913 32.3982 14.9845 34.7134 17.288C37.0285 19.5916 38.3374 22.7181 38.3538 25.984H38.3548C38.32 16.483 31.2217 9.03098 22.4699 9.03098C13.7178 9.03098 6.61955 16.483 6.58473 25.984C6.58406 25.9929 6.58384 26.002 6.58408 26.011C6.58408 37.7485 14.1236 48.8467 29.2438 49.781C34.9921 49.0012 40.2628 46.164 44.0792 41.7953C47.8956 37.4265 49.9988 31.8223 49.9992 26.0214C49.9992 25.9986 49.9985 25.984 49.9985 25.984Z" stroke="white" stroke-width="1.5" stroke-linecap="round" stroke-linejoin="round"/>
</g>
<defs>
<clipPath id="clip0_1923_1730">
<rect width="52" height="52" fill="white"/>
</clipPath>
</defs>
</svg>
