<svg width="52" height="52" viewBox="0 0 52 52" fill="none" xmlns="http://www.w3.org/2000/svg">
<g clip-path="url(#clip0_1923_1948)">
<path d="M20.9992 20.2302V23.0115L18.4336 24.5019C19.1863 25.0495 19.88 25.6737 20.5037 26.3645L23.4992 24.6242V20.9111C22.647 20.7601 21.8102 20.5322 20.9992 20.2302Z" stroke="white" stroke-width="1.5" stroke-linecap="round" stroke-linejoin="round"/>
<path d="M18.25 12.8448L20.1763 13.9642C20.446 14.121 20.7217 14.2621 21 14.3953V8.30762L18.25 9.90653V12.8448Z" stroke="white" stroke-width="1.5" stroke-linecap="round" stroke-linejoin="round"/>
<path d="M10.6164 25.9006L8 27.4208V30.5638L13.3202 27.4729L10.6164 25.9006Z" stroke="white" stroke-width="1.5" stroke-linecap="round" stroke-linejoin="round"/>
<path d="M18.4995 39.4842V36.4658L13.2539 39.5128L15.8524 41.0222L18.4995 39.4842Z" stroke="white" stroke-width="1.5" stroke-linecap="round" stroke-linejoin="round"/>
<path d="M18.5004 36.4349C18.4992 35.4626 18.3611 34.4954 18.09 33.5615L7.94531 39.4548L18.5004 45.5819V42.5602L13.2549 39.5129L18.5004 36.4657L18.5004 36.4349Z" stroke="white" stroke-width="1.5" stroke-linecap="round" stroke-linejoin="round"/>
<path d="M23.9995 35.4558V36.2891L25.9995 35.1272V32.1086L23.832 33.3677C23.9414 34.0584 23.9974 34.7565 23.9995 35.4558Z" stroke="white" stroke-width="1.5" stroke-linecap="round" stroke-linejoin="round"/>
<path d="M20.9804 35.0249C20.8418 32.3531 19.7896 29.8097 17.9996 27.8198C17.3738 27.1233 16.6656 26.5055 15.8904 25.9799C15.6756 25.8348 15.4552 25.6964 15.2292 25.5647L3 18.4556V33.5557L5.50002 35.0813V22.926L13.3205 27.4728L13.3796 27.5072C15.671 28.8445 17.3581 31.013 18.0898 33.5614C18.3608 34.4953 18.499 35.4625 18.5002 36.4348V45.5818L7.94509 39.4547V42.4217L21.0002 50V35.6257C21.0002 35.4244 20.9906 35.2246 20.9804 35.0249Z" stroke="white" stroke-width="1.5" stroke-linecap="round" stroke-linejoin="round"/>
<path d="M13.3796 27.5072L13.3205 27.4729L8.00011 30.5636V24.3796L5.5 22.926V35.0813L15.5772 29.2271C14.9266 28.5563 14.1872 27.9776 13.3796 27.5072Z" stroke="white" stroke-width="1.5" stroke-linecap="round" stroke-linejoin="round"/>
<path d="M23.8328 33.3679C23.4275 30.7601 22.2711 28.3267 20.5047 26.3645C19.566 25.3328 18.4778 24.4474 17.2764 23.738L15.8083 22.8852L5.50002 16.897L3 18.4556L15.2292 25.5647C15.4552 25.6961 15.6756 25.8345 15.8904 25.9799C18.0774 27.4665 19.6935 29.6516 20.4737 32.1766C20.7602 33.1014 20.9304 34.0582 20.9804 35.0249C20.9906 35.2246 21.0002 35.4244 21.0002 35.6258V50L24.0002 48.7746V35.456C23.9982 34.7567 23.9422 34.0586 23.8328 33.3679Z" stroke="white" stroke-width="1.5" stroke-linecap="round" stroke-linejoin="round"/>
<path d="M12.8906 9.73008L15.7232 11.3761L21.0007 8.3077V14.3954C21.7984 14.7769 22.6372 15.0657 23.5008 15.2561V3.56665L12.8906 9.73008Z" stroke="white" stroke-width="1.5" stroke-linecap="round" stroke-linejoin="round"/>
<path d="M20.6228 20.088C19.9881 19.8328 19.3724 19.5328 18.7804 19.1901L18.25 18.8818V21.4664L21 23.0113V20.23C20.8741 20.1832 20.7476 20.1384 20.6228 20.088Z" stroke="white" stroke-width="1.5" stroke-linecap="round" stroke-linejoin="round"/>
<path d="M18.2505 21.4666L15.8086 22.8851L17.2767 23.7379C17.6757 23.9725 18.0623 24.2275 18.4349 24.5019L21.0005 23.0115L18.2505 21.4666Z" stroke="white" stroke-width="1.5" stroke-linecap="round" stroke-linejoin="round"/>
<path d="M31 20.2302V23.0115L33.5656 24.5019C32.813 25.0495 32.1192 25.6737 31.4955 26.3645L28.5 24.6242V20.9111C29.3522 20.7601 30.189 20.5322 31 20.2302Z" stroke="white" stroke-width="1.5" stroke-linecap="round" stroke-linejoin="round"/>
<path d="M33.75 12.8448L31.8237 13.9642C31.554 14.121 31.2783 14.2621 31 14.3953V8.30762L33.75 9.90653V12.8448Z" stroke="white" stroke-width="1.5" stroke-linecap="round" stroke-linejoin="round"/>
<path d="M41.3835 25.9006L43.9999 27.4208V30.5638L38.6797 27.4729L41.3835 25.9006Z" stroke="white" stroke-width="1.5" stroke-linecap="round" stroke-linejoin="round"/>
<path d="M33.5 39.4842V36.4658L38.7456 39.5128L36.1471 41.0222L33.5 39.4842Z" stroke="white" stroke-width="1.5" stroke-linecap="round" stroke-linejoin="round"/>
<path d="M33.5 36.4349C33.5012 35.4626 33.6393 34.4954 33.9103 33.5615L44.0551 39.4548L33.5 45.5819V42.5602L38.7455 39.5129L33.5 36.4657L33.5 36.4349Z" stroke="white" stroke-width="1.5" stroke-linecap="round" stroke-linejoin="round"/>
<path d="M26.0001 28.9658L23.1133 30.6428C23.447 31.5237 23.6881 32.4368 23.8327 33.3675L26.0001 32.1084L28.1675 33.3675C28.3121 32.4368 28.5532 31.5237 28.8869 30.6428L26.0001 28.9658Z" stroke="white" stroke-width="1.5" stroke-linecap="round" stroke-linejoin="round"/>
<path d="M28 35.4558V36.2891L26 35.1272V32.1086L28.1674 33.3677C28.058 34.0584 28.002 34.7565 28 35.4558Z" stroke="white" stroke-width="1.5" stroke-linecap="round" stroke-linejoin="round"/>
<path d="M31.0009 2L28.5009 3.56659L39.111 9.72999L31.8246 13.9643C31.5549 14.121 31.2792 14.2621 31.0009 14.3954C29.4398 15.1414 27.7313 15.5287 26.0008 15.5287C24.2704 15.5287 22.5618 15.1414 21.0008 14.3954C20.7224 14.2621 20.4468 14.121 20.1771 13.9643L12.8907 9.73001L23.5008 3.56661L21.0008 2.00002L7.57422 9.79978L18.2508 16.0041L18.7812 16.3123C20.2434 17.1533 21.8401 17.7355 23.5008 18.0332C23.6721 18.0635 23.8433 18.0938 24.0154 18.1178C25.3323 18.3059 26.6693 18.3059 27.9863 18.1178C28.1583 18.0938 28.3296 18.0635 28.5008 18.0332C30.1615 17.7355 31.7582 17.1533 33.2205 16.3123L33.7509 16.0041L44.4274 9.79978L31.0009 2Z" stroke="white" stroke-width="1.5" stroke-linecap="round" stroke-linejoin="round"/>
<path d="M33.7509 16.0041L33.2205 16.3124C31.7582 17.1533 30.1615 17.7355 28.5009 18.0332C28.3296 18.0635 28.1584 18.0938 27.9863 18.1178C26.6694 18.3059 25.3323 18.3059 24.0154 18.1178C23.8433 18.0938 23.6721 18.0635 23.5008 18.0332C21.8401 17.7355 20.2435 17.1533 18.7812 16.3124L18.2508 16.0041L7.57422 9.7998L7.69528 12.7481L18.2508 18.882L18.7812 19.1903C19.3732 19.533 19.9888 19.833 20.6235 20.0882C20.7484 20.1386 20.8749 20.1834 21.0008 20.2302C21.8118 20.5322 22.6486 20.7601 23.5008 20.9111C23.7973 20.9636 24.0949 21.0067 24.3934 21.0406C25.4612 21.1689 26.5405 21.1689 27.6082 21.0406C27.9068 21.007 28.2044 20.9639 28.5008 20.9111C29.3531 20.7601 30.1898 20.5322 31.0009 20.2302C31.1268 20.1834 31.2532 20.1386 31.3781 20.0882C32.0128 19.833 32.6285 19.533 33.2205 19.1903L33.7509 18.882L44.3064 12.7481L44.4274 9.7998L33.7509 16.0041Z" stroke="white" stroke-width="1.5" stroke-linecap="round" stroke-linejoin="round"/>
<path d="M31.0198 35.0249C31.1584 32.3531 32.2106 29.8097 34.0006 27.8198C34.6264 27.1233 35.3347 26.5055 36.1098 25.9799C36.3247 25.8348 36.5451 25.6964 36.771 25.5647L49.0002 18.4556V33.5557L46.5002 35.0813V22.926L38.6797 27.4728L38.6206 27.5072C36.3292 28.8445 34.6422 31.013 33.9104 33.5614C33.6394 34.4953 33.5012 35.4625 33.5001 36.4348V45.5818L44.0551 39.4547V42.4217L31 50V35.6257C31 35.4244 31.0096 35.2246 31.0198 35.0249Z" stroke="white" stroke-width="1.5" stroke-linecap="round" stroke-linejoin="round"/>
<path d="M38.6234 27.5072L38.6825 27.4729L44.0029 30.5636V24.3796L46.503 22.926V35.0813L36.4258 29.2271C37.0764 28.5563 37.8158 27.9776 38.6234 27.5072Z" stroke="white" stroke-width="1.5" stroke-linecap="round" stroke-linejoin="round"/>
<path d="M28.1674 33.3679C28.5728 30.7601 29.7292 28.3267 31.4955 26.3645C32.4342 25.3328 33.5224 24.4474 34.7238 23.738L36.1919 22.8852L46.5002 16.897L49.0003 18.4556L36.7711 25.5647C36.545 25.6961 36.3246 25.8345 36.1098 25.9799C33.9229 27.4665 32.3067 29.6516 31.5266 32.1766C31.2401 33.1014 31.0699 34.0582 31.0199 35.0249C31.0096 35.2246 31 35.4244 31 35.6258V50L28 48.7746V35.456C28.002 34.7567 28.058 34.0586 28.1674 33.3679Z" stroke="white" stroke-width="1.5" stroke-linecap="round" stroke-linejoin="round"/>
<path d="M39.1101 9.73008L36.2776 11.3761L31 8.3077V14.3954C30.2024 14.7769 29.3635 15.0657 28.5 15.2561V3.56665L39.1101 9.73008Z" stroke="white" stroke-width="1.5" stroke-linecap="round" stroke-linejoin="round"/>
<path d="M31.3773 20.088C32.012 19.8328 32.6276 19.5328 33.2196 19.1901L33.75 18.8818V21.4664L31 23.0113V20.23C31.1259 20.1832 31.2524 20.1384 31.3773 20.088Z" stroke="white" stroke-width="1.5" stroke-linecap="round" stroke-linejoin="round"/>
<path d="M33.75 21.4666L36.1919 22.8851L34.7238 23.7379C34.3248 23.9725 33.9383 24.2275 33.5656 24.5019L31 23.0115L33.75 21.4666Z" stroke="white" stroke-width="1.5" stroke-linecap="round" stroke-linejoin="round"/>
</g>
<defs>
<clipPath id="clip0_1923_1948">
<rect width="52" height="52" fill="white"/>
</clipPath>
</defs>
</svg>
