<svg width="50" height="50" viewBox="0 0 50 50" fill="none" xmlns="http://www.w3.org/2000/svg">
<path d="M14.4944 8.73598C14.3207 8.63583 14.1229 8.58303 13.9216 8.58301C13.718 8.58252 13.5179 8.63485 13.3415 8.73471C13.165 8.83457 13.0185 8.97843 12.9166 9.15177L12.0859 10.5667V27.9642L15.9332 30.1485V9.55289L14.4944 8.73598Z" stroke="#053456" stroke-width="1.5" stroke-linecap="round" stroke-linejoin="round"/>
<path d="M34.0703 19.8513V40.4469L35.5091 41.2638C35.6828 41.364 35.8805 41.4168 36.082 41.4168C36.2855 41.4173 36.4856 41.365 36.662 41.2651C36.8384 41.1653 36.985 41.0215 37.0868 40.8481L37.9175 39.4332V22.0357L34.0703 19.8513Z" stroke="#053456" stroke-width="1.5" stroke-linecap="round" stroke-linejoin="round"/>
<path d="M36.0818 45.2003C35.205 45.2003 34.3439 44.9727 33.5853 44.5404L31.2539 43.2167H17.0882C16.782 43.2163 16.4884 43.0966 16.2718 42.8836C16.0553 42.6706 15.9335 42.3819 15.9332 42.0807V34.5179L12.0859 32.3335V42.0807C12.0881 43.3848 12.6158 44.6348 13.5534 45.5569C14.4911 46.479 15.7622 46.998 17.0882 47.0002H32.9151C33.6679 47.0004 34.4109 46.8332 35.0886 46.511C35.7663 46.1888 36.3611 45.72 36.8285 45.1397C36.5815 45.1782 36.3319 45.1985 36.0818 45.2003Z" stroke="#053456" stroke-width="1.5" stroke-linecap="round" stroke-linejoin="round"/>
<path d="M36.8255 4.86067C36.3582 4.28036 35.7634 3.81155 35.0857 3.48937C34.408 3.16718 33.6649 2.99996 32.9122 3.00024H17.0853C16.3325 2.99997 15.5895 3.16719 14.9117 3.48938C14.234 3.81156 13.6392 4.28036 13.1719 4.86067C14.2909 4.68394 15.4376 4.89581 16.4151 5.45992L18.7466 6.78371H32.9122C33.2184 6.78405 33.512 6.90383 33.7285 7.11678C33.9451 7.32973 34.0669 7.61845 34.0672 7.9196V15.4824L37.9144 17.6668V7.91958C37.9152 6.80793 37.5312 5.72912 36.8255 4.86067Z" stroke="#053456" stroke-width="1.5" stroke-linecap="round" stroke-linejoin="round"/>
<path d="M44.9985 22.6315L44.1679 21.2166L37.9157 17.6667L34.0685 15.4823L28.8472 12.5178L25 14.7022L34.0685 19.8511L37.9157 22.0355L43.137 25L44.5757 24.1831C44.8407 24.0322 45.0341 23.7841 45.1134 23.4932C45.1926 23.2024 45.1513 22.8924 44.9985 22.6315Z" stroke="#053456" stroke-width="1.5" stroke-linecap="round" stroke-linejoin="round"/>
<path d="M15.9324 30.1491L12.0852 27.9648L6.86396 25.0002L5.4252 25.8171C5.29384 25.8917 5.1787 25.991 5.08635 26.1093C4.99401 26.2277 4.92628 26.3628 4.88702 26.5068C4.84776 26.6509 4.83774 26.8012 4.85754 26.9491C4.87734 27.097 4.92656 27.2396 5.00241 27.3688L5.83305 28.7837L12.0852 32.3335L15.9324 34.5179L21.1537 37.4824L25.0009 35.298L15.9324 30.1491Z" stroke="#053456" stroke-width="1.5" stroke-linecap="round" stroke-linejoin="round"/>
<path d="M48.6499 25.0002C48.2382 26.0367 47.4796 26.9042 46.4993 27.4599L44.1679 28.7837L37.9157 39.4332L37.085 40.8481C36.9831 41.0215 36.8366 41.1653 36.6602 41.2652C36.4837 41.365 36.2837 41.4173 36.0801 41.4169C35.8787 41.4168 35.6809 41.364 35.5072 41.2638L34.0685 40.4469L28.8472 37.4824L25 39.6669L31.2522 43.2167L33.5836 44.5404C34.7334 45.1892 36.0976 45.364 37.378 45.0266C38.6585 44.6892 39.751 43.867 40.4168 42.7398L48.3303 29.2605C48.7067 28.62 48.9309 27.9041 48.9863 27.1664C49.0416 26.4286 48.9266 25.6881 48.6499 25.0002Z" stroke="#053456" stroke-width="1.5" stroke-linecap="round" stroke-linejoin="round"/>
<path d="M18.7477 6.78397L16.4162 5.46018C15.2664 4.81139 13.9022 4.63659 12.6218 4.97399C11.3414 5.3114 10.2488 6.13357 9.58298 7.2608L1.66953 20.7401C1.29313 21.3806 1.06887 22.0965 1.01353 22.8342C0.958176 23.572 1.07317 24.3125 1.34991 25.0004C1.76165 23.9639 2.52018 23.0964 3.50049 22.5407L5.83195 21.2169L12.0841 10.5675L12.9148 9.15253C13.0167 8.97919 13.1632 8.83533 13.3396 8.73547C13.5161 8.63561 13.7162 8.58328 13.9198 8.58376C14.1211 8.58378 14.3188 8.63658 14.4926 8.73673L15.9313 9.55365L21.1526 12.5181L24.9998 10.3338L18.7477 6.78397Z" stroke="#053456" stroke-width="1.5" stroke-linecap="round" stroke-linejoin="round"/>
<path d="M12.0819 42.0808V39.4332L5.82974 28.7838L4.9991 27.3689C4.92325 27.2397 4.87402 27.0971 4.85423 26.9492C4.83443 26.8013 4.84444 26.651 4.88371 26.5069C4.92297 26.3628 4.9907 26.2277 5.08304 26.1094C5.17539 25.9911 5.29053 25.8918 5.42189 25.8172L6.86065 25.0003L12.0819 22.0358V17.667L5.82974 21.2169L3.49828 22.5406C2.35093 23.1944 1.51394 24.2689 1.17073 25.5285C0.827523 26.7881 1.0061 28.1302 1.66731 29.2606L9.58077 42.7398C9.95661 43.38 10.4747 43.9284 11.0964 44.344C11.718 44.7596 12.4272 45.0316 13.1708 45.1397C12.4651 44.2713 12.0811 43.1925 12.0819 42.0808Z" stroke="#053456" stroke-width="1.5" stroke-linecap="round" stroke-linejoin="round"/>
<path d="M32.9116 6.78418H31.2503L24.9982 10.334L21.1509 12.5183L15.9297 15.4829V19.8517L24.9982 14.7028L28.8454 12.5184L34.0666 9.55386V7.92005C34.0663 7.6189 33.9445 7.33018 33.728 7.11724C33.5114 6.9043 33.2178 6.78452 32.9116 6.78418Z" stroke="#053456" stroke-width="1.5" stroke-linecap="round" stroke-linejoin="round"/>
<path d="M24.9982 35.2981L21.1509 37.4825L15.9297 40.4471V42.0808C15.93 42.382 16.0518 42.6707 16.2684 42.8837C16.4849 43.0966 16.7785 43.2164 17.0847 43.2168H18.7459L24.9982 39.6669L28.8454 37.4825L34.0666 34.518V30.1492L24.9982 35.2981Z" stroke="#053456" stroke-width="1.5" stroke-linecap="round" stroke-linejoin="round"/>
<path d="M48.3316 20.7402L40.4181 7.26095C40.0423 6.62077 39.5242 6.0724 38.9025 5.65683C38.2808 5.24126 37.5717 4.96924 36.8281 4.86108C37.5338 5.72954 37.9178 6.80834 37.917 7.91999V10.5675L44.1692 21.2171L44.9998 22.632C45.1526 22.893 45.1939 23.2029 45.1146 23.4938C45.0354 23.7846 44.842 24.0327 44.577 24.1836L43.1382 25.0005L37.917 27.965V32.3338L44.1692 28.784L46.5006 27.4602C47.648 26.8064 48.485 25.7319 48.8282 24.4723C49.1714 23.2127 48.9928 21.8706 48.3316 20.7402Z" stroke="#053456" stroke-width="1.5" stroke-linecap="round" stroke-linejoin="round"/>
</svg>
