<svg width="40" height="40" viewBox="0 0 40 40" fill="none" xmlns="http://www.w3.org/2000/svg">
<g clip-path="url(#clip0_1923_52)">
<path d="M23.6283 19.5665C21.2635 18.8333 18.7359 18.8333 16.3711 19.5665C14.9857 19.9899 13.6681 20.6137 12.4592 21.4186C9.66615 23.2535 7.04492 26.1337 4.79884 30.0804L3.13643 33.0014L1 36.7555L5.28151 36.7606L8.74148 36.7647C13.2498 36.77 17.0305 35.9107 19.9997 34.3763C18.6992 33.7145 17.501 32.8646 16.4428 31.8532C13.9584 32.6682 11.3571 33.0585 8.74582 33.0081L7.41795 33.0065L8.01643 31.9549C9.28756 29.6235 10.9378 27.5254 12.898 25.7485C13.9014 24.8613 15.0323 24.1336 16.2521 23.5904C17.4297 23.0518 18.7073 22.7732 19.9997 22.7732C21.2921 22.7732 22.5697 23.0518 23.7473 23.5904C23.9133 22.2509 23.8732 20.8935 23.6283 19.5665Z" stroke="#053456" stroke-width="1.5" stroke-linecap="round" stroke-linejoin="round"/>
<path d="M27.541 21.4185C27.4126 17.9898 26.2539 14.1647 23.9431 10.126L22.1455 6.98436L20.0005 3.23535L17.8554 6.98433L16.0578 10.126C13.747 14.1647 12.5883 17.9898 12.46 21.4185C13.6688 20.6136 14.9864 19.9897 16.3719 19.5664C16.8974 16.8959 17.8785 14.3383 19.2711 12.0081L20.0005 10.7333L20.7299 12.0081C22.1224 14.3383 23.1035 16.8959 23.629 19.5664C23.8739 20.8934 23.9141 22.2508 23.7481 23.5902C23.5992 24.8627 23.1889 26.0895 22.5435 27.192C21.8981 28.2945 21.0319 29.2483 20.0005 29.9921C21.0857 30.7918 22.2851 31.4193 23.5573 31.8531C25.2951 30.2056 26.526 28.0859 27.1022 25.7484C27.4559 24.3344 27.6038 22.8757 27.541 21.4185Z" stroke="#053456" stroke-width="1.5" stroke-linecap="round" stroke-linejoin="round"/>
<path d="M36.8644 33.0015L35.202 30.0805C32.9559 26.1337 30.3347 23.2536 27.5416 21.4187C27.6044 22.8759 27.4566 24.3346 27.1028 25.7487C29.063 27.5255 30.7132 29.6236 31.9844 31.955L32.5828 33.0066L31.255 33.0082C28.6437 33.0586 26.0424 32.6683 23.558 31.8533C22.2857 31.4195 21.0863 30.792 20.0011 29.9924C18.9697 29.2486 18.1035 28.2948 17.4581 27.1923C16.8127 26.0898 16.4024 24.8629 16.2535 23.5905C15.0337 24.1337 13.9028 24.8614 12.8994 25.7487C13.4756 28.0862 14.7065 30.2059 16.4442 31.8533C17.5024 32.8647 18.7006 33.7146 20.0011 34.3764C22.9703 35.9108 26.751 36.7701 31.2593 36.7648L34.7193 36.7607L39.0008 36.7556L36.8644 33.0015Z" stroke="#053456" stroke-width="1.5" stroke-linecap="round" stroke-linejoin="round"/>
</g>
<defs>
<clipPath id="clip0_1923_52">
<rect width="40" height="40" fill="white"/>
</clipPath>
</defs>
</svg>
