<svg width="51" height="50" viewBox="0 0 51 50" fill="none" xmlns="http://www.w3.org/2000/svg">
<g clip-path="url(#clip0_1923_181)">
<path d="M12.3884 15.4058L5.1377 28.3045H12.5684H12.5731L19.8243 15.4058H12.3884Z" stroke="#053456" stroke-width="1.5" stroke-linecap="round" stroke-linejoin="round"/>
<path d="M27.3605 2L23.6431 8.61385L31.044 21.78L34.762 15.1662L27.3605 2Z" stroke="#053456" stroke-width="1.5" stroke-linecap="round" stroke-linejoin="round"/>
<path d="M12.5706 28.3105L12.5732 28.3047H12.5674L12.5706 28.3105Z" stroke="#053456" stroke-width="1.5" stroke-linecap="round" stroke-linejoin="round"/>
<path d="M23.6423 8.61377H1.5L8.85347 21.6954L12.3888 15.4057H19.8247L23.4754 21.78H31.0438L23.6423 8.61377Z" stroke="#053456" stroke-width="1.5" stroke-linecap="round" stroke-linejoin="round"/>
<path d="M5.21795 2L1.5 8.61385H23.6423L27.3603 2H5.21795Z" stroke="#053456" stroke-width="1.5" stroke-linecap="round" stroke-linejoin="round"/>
<path d="M23.5262 34.9183L19.7384 28.3045L23.4751 21.78L19.8244 15.4058L12.5732 28.3045L23.6447 48L30.9981 34.9183H23.5262Z" stroke="#053456" stroke-width="1.5" stroke-linecap="round" stroke-linejoin="round"/>
<path d="M12.5731 28.3047L12.571 28.3095L12.5684 28.3047H5.1377L16.2091 48.0002H23.6445L12.5731 28.3047Z" stroke="#053456" stroke-width="1.5" stroke-linecap="round" stroke-linejoin="round"/>
<path d="M34.7123 28.3047H19.7393L23.5271 34.9185H38.4297L34.7123 28.3047Z" stroke="#053456" stroke-width="1.5" stroke-linecap="round" stroke-linejoin="round"/>
<path d="M45.7843 8.61377L34.7129 28.3093L38.4282 34.9183L49.4997 15.2233L45.7843 8.61377Z" stroke="#053456" stroke-width="1.5" stroke-linecap="round" stroke-linejoin="round"/>
<path d="M31.0789 8.61377L34.7624 15.1661L31.0444 21.78H23.476L19.7393 28.3045H34.7123L45.7858 8.61377H31.0789Z" stroke="#053456" stroke-width="1.5" stroke-linecap="round" stroke-linejoin="round"/>
</g>
<defs>
<clipPath id="clip0_1923_181">
<rect width="50" height="50" fill="white" transform="translate(0.5)"/>
</clipPath>
</defs>
</svg>
