<svg width="50" height="50" viewBox="0 0 50 50" fill="none" xmlns="http://www.w3.org/2000/svg">
<g clip-path="url(#clip0_1914_337)">
<path d="M13.0545 33.102C12.0067 31.3888 11.1238 29.586 10.4172 27.7163C8.89402 30.1322 8.40288 32.7274 9.67268 34.7037C10.0213 35.2053 10.4817 35.6249 11.0201 35.9313C11.5585 36.2378 12.161 36.4234 12.7834 36.4745C12.6574 35.3438 12.7493 34.2002 13.0545 33.102Z" stroke="#053456" stroke-width="1.5" stroke-linecap="round" stroke-linejoin="round"/>
<path d="M2.01899 39.1256C1.96872 39.0229 1.91788 38.9149 1.86719 38.8085C1.91457 38.9166 1.96599 39.0217 2.01899 39.1256Z" stroke="#053456" stroke-width="1.5" stroke-linecap="round" stroke-linejoin="round"/>
<path d="M29.5201 16.1728C30.7683 16.439 31.9959 16.7888 33.194 17.2198C32.3024 13.6043 29.9411 11.1449 26.3849 11.1449C25.7352 11.1452 25.0875 11.2138 24.4531 11.3494C25.6629 11.648 26.7692 12.2517 27.6593 13.099C28.5494 13.9463 29.1915 15.007 29.5201 16.1728Z" stroke="#053456" stroke-width="1.5" stroke-linecap="round" stroke-linejoin="round"/>
<path d="M13.4812 24.253C13.0681 22.4822 12.7838 20.6856 12.6304 18.8763C12.6158 18.7261 12.609 18.5787 12.5983 18.4299C11.9167 8.98833 19.0058 2.5 26.6026 2.5H22.0689C14.3523 2.5 7.91735 9.44411 8.37235 18.9558C8.41634 19.7143 8.50278 20.4699 8.63127 21.2194C9.01034 23.4353 9.60826 25.6108 10.4168 27.7161C11.1235 29.5858 12.0063 31.3886 13.0542 33.1018C13.7631 34.2572 14.5681 35.3547 15.4612 36.3835C16.855 36.1138 18.2039 35.6602 19.4704 35.0357C17.7616 33.3773 16.3557 31.4504 15.3126 29.3368C14.5134 27.7115 13.8993 26.0069 13.4812 24.253Z" stroke="#053456" stroke-width="1.5" stroke-linecap="round" stroke-linejoin="round"/>
<path d="M44.4484 35.1442C43.5884 31.9536 41.8263 29.0584 39.3599 26.7839C37.6557 25.168 35.7027 23.818 33.5706 22.7821C33.3439 22.6705 33.1249 22.5548 32.8901 22.4476C31.8758 21.9899 30.8207 21.6223 29.7378 21.3492C26.1937 20.457 22.469 20.4881 18.9414 21.4394C19.1227 23.1696 19.64 24.851 20.466 26.3954C23.0479 25.4835 25.8701 25.4303 28.4867 26.2442C29.853 26.6907 31.1257 27.3704 32.2444 28.2513C34.0428 29.6635 35.4343 31.501 36.2842 33.5862C36.6472 34.4697 36.8712 35.4009 36.9489 36.3487C37.0875 38.3616 36.3498 40.0269 34.5685 40.6245C33.0318 41.1106 31.3886 41.1894 29.8098 40.8526C28.8413 41.6321 27.8258 42.3553 26.7685 43.0181C26.0511 43.468 25.3302 43.8853 24.6058 44.2699C28.3321 46.6062 32.7387 47.7138 37.1684 47.4275C38.4744 47.3922 39.7536 47.0604 40.9028 46.4589C44.8809 44.243 45.1293 38.0885 44.4484 35.1442Z" stroke="#053456" stroke-width="1.5" stroke-linecap="round" stroke-linejoin="round"/>
<path d="M34.2675 36.4126C32.9477 38.0419 31.4523 39.5304 29.8066 40.853C31.3854 41.1898 33.0286 41.1111 34.5653 40.6249C36.3466 40.0273 37.0842 38.362 36.9457 36.3491C36.0584 36.4696 35.1598 36.4909 34.2675 36.4126Z" stroke="#053456" stroke-width="1.5" stroke-linecap="round" stroke-linejoin="round"/>
<path d="M48.735 34.7666C48.5152 29.9743 46.2512 25.0023 40.5309 20.9914C39.417 20.2148 38.2489 19.5136 37.0352 18.8928C35.7954 18.2526 34.5126 17.6937 33.1955 17.2198C31.9974 16.7889 30.7698 16.4391 29.5216 16.1729C26.129 15.4365 22.6133 15.4077 19.2083 16.0884C18.96 16.9394 18.8345 17.8196 18.8353 18.7039C18.8159 19.6169 18.8503 20.5303 18.9381 21.4396C22.4657 20.4884 26.1905 20.4573 29.7345 21.3495C30.8174 21.6226 31.8725 21.9902 32.8868 22.4479C33.1217 22.555 33.3406 22.6708 33.5673 22.7824C35.6994 23.8183 37.6524 25.1683 39.3566 26.7842C41.823 29.0587 43.5851 31.9539 44.4451 35.1445C45.126 38.0887 44.8776 44.2433 40.8995 46.4591C44.2632 44.9 49.0356 41.32 48.735 34.7666Z" stroke="#053456" stroke-width="1.5" stroke-linecap="round" stroke-linejoin="round"/>
<path d="M26.6006 2.5C19.0037 2.5 11.9147 8.98833 12.5962 18.4299C12.607 18.5787 12.6138 18.7261 12.6284 18.8763C12.7818 20.6856 13.0661 22.4822 13.4792 24.253C13.8973 26.0069 14.5114 27.7115 15.3105 29.3368C16.3537 31.4504 17.7596 33.3773 19.4684 35.0357C20.819 34.3847 22.1079 33.6201 23.3202 32.7508C23.7675 32.4323 24.1963 32.0903 24.6049 31.7263C22.9471 30.1679 21.5497 28.3695 20.4627 26.3956C19.6366 24.8512 19.1193 23.1697 18.938 21.4396C18.8502 20.5303 18.8159 19.6169 18.8352 18.7038C18.8344 17.8195 18.9599 16.9393 19.2083 16.0883C19.5364 14.9021 20.2022 13.8289 21.1298 12.991C22.0573 12.1532 23.2093 11.5844 24.4545 11.3494C25.0889 11.2137 25.7367 11.1452 26.3863 11.1449C29.9425 11.1449 32.3039 13.6043 33.1954 17.2197C34.5126 17.6936 35.7953 18.2525 37.0351 18.8927C38.2489 19.5135 39.4169 20.2147 40.5308 20.9913C40.559 20.7342 40.5873 20.477 40.61 20.2156C41.3938 11.2031 34.3172 2.5 26.6006 2.5Z" stroke="#053456" stroke-width="1.5" stroke-linecap="round" stroke-linejoin="round"/>
<path d="M32.2388 28.2513C22.4246 44.0203 6.23555 45.0237 2.45682 39.8617C2.28996 39.628 2.14244 39.3819 2.01562 39.1257C3.02729 41.3307 4.45888 43.3315 6.23556 45.0237C9.949 48.7 17.3241 48.1455 24.6002 44.27C25.3233 43.8849 26.0442 43.4676 26.7629 43.0182C27.8201 42.3553 28.8357 41.6322 29.8042 40.8526C31.4499 39.5301 32.9453 38.0415 34.2651 36.4123C34.9948 35.5107 35.6672 34.5669 36.2786 33.5862C35.4287 31.5011 34.0372 29.6635 32.2388 28.2513Z" stroke="#053456" stroke-width="1.5" stroke-linecap="round" stroke-linejoin="round"/>
<path d="M28.4839 26.2442C27.6331 28.3304 26.3074 30.2042 24.6055 31.7262C24.1969 32.0902 23.7681 32.4322 23.3208 32.7507C22.1084 33.62 20.8196 34.3845 19.469 35.0355C18.2025 35.6601 16.8535 36.1136 15.4597 36.3834C14.5778 36.5522 13.6736 36.5828 12.7816 36.4742C12.1593 36.4231 11.5567 36.2375 11.0183 35.931C10.48 35.6245 10.0195 35.205 9.6709 34.7034C8.4011 32.727 8.89222 30.1319 10.4154 27.716C9.60683 25.6107 9.0089 23.4351 8.62983 21.2192C2.69781 26.4795 -0.0815471 34.3619 1.86669 38.8085C1.91738 38.9149 1.96822 39.0229 2.01849 39.1256C2.14612 39.3814 2.29361 39.6275 2.45968 39.8617C6.23839 45.0237 22.4274 44.0202 32.2416 28.2513C31.1229 27.3705 29.8503 26.6907 28.4839 26.2442Z" stroke="#053456" stroke-width="1.5" stroke-linecap="round" stroke-linejoin="round"/>
</g>
<defs>
<clipPath id="clip0_1914_337">
<rect width="50" height="50" fill="white"/>
</clipPath>
</defs>
</svg>
