<svg width="50" height="50" viewBox="0 0 50 50" fill="none" xmlns="http://www.w3.org/2000/svg">
<path d="M34.8768 33.6421H10.416L12.77 37.7611H37.2304L34.8768 33.6421Z" stroke="#053456" stroke-width="1.5" stroke-linecap="round" stroke-linejoin="round"/>
<path d="M27.354 12.2388L25 16.3578L37.2302 37.7613L39.5842 33.6422L27.354 12.2388Z" stroke="#053456" stroke-width="1.5" stroke-linecap="round" stroke-linejoin="round"/>
<path d="M36.7705 12.2388H32.0625L34.4165 16.3578L36.7705 12.2388Z" stroke="#053456" stroke-width="1.5" stroke-linecap="round" stroke-linejoin="round"/>
<path d="M22.6462 12.2388L10.416 33.6422H15.1235L27.3542 12.2388H22.6462Z" stroke="#053456" stroke-width="1.5" stroke-linecap="round" stroke-linejoin="round"/>
<path d="M10.416 25.4038H5.70801L8.06202 29.5229L10.416 25.4038Z" stroke="#053456" stroke-width="1.5" stroke-linecap="round" stroke-linejoin="round"/>
<path d="M17.9387 4L15.5847 8.11904L17.9387 12.2386L5.70801 33.6421L8.06202 37.7611L10.416 33.6421L22.6462 12.2386L17.9387 4Z" stroke="#053456" stroke-width="1.5" stroke-linecap="round" stroke-linejoin="round"/>
<path d="M30.1689 41.8809L32.523 45.9999L34.877 41.8809H30.1689Z" stroke="#053456" stroke-width="1.5" stroke-linecap="round" stroke-linejoin="round"/>
<path d="M10.4156 33.6424L8.06154 37.7615L5.70752 33.6424L8.06154 29.5229L5.70752 25.4038L1 33.6424L8.06154 46L12.7696 37.7615L10.4156 33.6424Z" stroke="#053456" stroke-width="1.5" stroke-linecap="round" stroke-linejoin="round"/>
<path d="M32.0616 4H17.9385L22.646 12.2386H27.354L25 8.11904H29.7075L32.0616 12.2386H36.7696L32.0616 4Z" stroke="#053456" stroke-width="1.5" stroke-linecap="round" stroke-linejoin="round"/>
<path d="M46.6457 29.5226H41.9382L29.7075 8.11914H25L39.5842 33.6422H48.9997L46.6457 29.5226Z" stroke="#053456" stroke-width="1.5" stroke-linecap="round" stroke-linejoin="round"/>
<path d="M41.9389 37.7612H12.7705L8.0625 45.9998H12.7705L15.124 41.8808H39.5849L41.9389 37.7612Z" stroke="#053456" stroke-width="1.5" stroke-linecap="round" stroke-linejoin="round"/>
<path d="M39.584 33.6421L37.23 37.7611H41.938L39.584 41.8807H34.8765L32.5225 45.9997H41.938L48.9996 33.6421H39.584Z" stroke="#053456" stroke-width="1.5" stroke-linecap="round" stroke-linejoin="round"/>
</svg>
