<svg width="50" height="50" viewBox="0 0 50 50" fill="none" xmlns="http://www.w3.org/2000/svg">
<path d="M15.3633 25.0162H15.3808L15.3723 25.0015L15.3633 25.0162Z" stroke="#053456" stroke-width="1.5" stroke-linecap="round" stroke-linejoin="round"/>
<path d="M22.8605 11.897L15.373 25.0009L15.3822 25.017L19.6445 25.0133L19.6527 24.9988L25.0001 15.6412L22.8605 11.897Z" stroke="#053456" stroke-width="1.5" stroke-linecap="round" stroke-linejoin="round"/>
<path d="M19.6455 25.0118H19.6607L19.6531 24.9985L19.6455 25.0118Z" stroke="#053456" stroke-width="1.5" stroke-linecap="round" stroke-linejoin="round"/>
<path d="M24.9999 8.15332L22.8604 11.897L28.2077 21.2552H32.4869L24.9999 8.15332Z" stroke="#053456" stroke-width="1.5" stroke-linecap="round" stroke-linejoin="round"/>
<path d="M19.6604 25.0137H19.6441L15.3818 25.0173L22.8591 38.1031L24.9997 34.3573L19.6604 25.0137Z" stroke="#053456" stroke-width="1.5" stroke-linecap="round" stroke-linejoin="round"/>
<path d="M32.4867 21.2549H21.7919L19.6523 24.9986L19.6605 25.0131L34.6267 25.0006L32.4867 21.2549Z" stroke="#053456" stroke-width="1.5" stroke-linecap="round" stroke-linejoin="round"/>
<path d="M37.8347 11.897L34.5549 17.6369L32.4873 21.2551L34.6274 25.0009L42.1153 11.897H37.8347Z" stroke="#053456" stroke-width="1.5" stroke-linecap="round" stroke-linejoin="round"/>
<path d="M28.2067 28.7446L22.8593 38.1028L15.382 25.017H15.3632L15.3729 25.0009L22.8603 11.897H18.7252L13.3053 21.3827L3.37241 4L1 8.15124L22.6275 45.9998L32.4878 28.7446H28.2067Z" stroke="#053456" stroke-width="1.5" stroke-linecap="round" stroke-linejoin="round"/>
<path d="M29.1344 8.15137L31.275 11.8971H42.1153L34.6273 25.001L19.6611 25.0135L21.7935 28.7447H32.4883L22.6279 45.9999H27.3728L49.0002 8.15137H29.1344Z" stroke="#053456" stroke-width="1.5" stroke-linecap="round" stroke-linejoin="round"/>
<path d="M10.0254 8.15137L12.1655 11.8971H18.7251H22.8602L24.9998 8.15344L10.0254 8.15137Z" stroke="#053456" stroke-width="1.5" stroke-linecap="round" stroke-linejoin="round"/>
<path d="M48.9994 8.15124L46.627 4H3.37207L13.3049 21.3827L15.445 17.637L10.0251 8.15124L24.9995 8.15331L32.4865 21.2552L34.554 17.637L29.1336 8.15124H48.9994Z" stroke="#053456" stroke-width="1.5" stroke-linecap="round" stroke-linejoin="round"/>
</svg>
