<svg width="120" height="120" viewBox="0 0 120 120" fill="none" xmlns="http://www.w3.org/2000/svg">
<g opacity="0.1" clip-path="url(#clip0_2007_2)">
<path d="M91.2314 21.6025C92.4936 22.9147 93.3287 24.5786 93.6267 26.3748C89.2645 25.5265 83.3348 26.8563 76.6886 29.9865C74.0005 27.5978 71.2996 25.3583 68.5859 23.2679C78.5588 18.3654 87.034 17.4051 91.2314 21.6025Z" stroke="#053456" stroke-width="1.5" stroke-linecap="round" stroke-linejoin="round"/>
<path d="M43.3093 90.0156C45.9972 92.4042 48.6981 94.6437 51.4119 96.7342C41.4391 101.637 32.9638 102.597 28.7665 98.3996C27.5042 97.0874 26.6691 95.4235 26.3711 93.6273C30.7334 94.4756 36.663 93.1458 43.3093 90.0156Z" stroke="#053456" stroke-width="1.5" stroke-linecap="round" stroke-linejoin="round"/>
<path d="M90.0137 76.6886C92.4023 74.0006 94.6418 71.2998 96.7322 68.5859C101.635 78.5589 102.595 87.0343 98.3976 91.2317C97.0854 92.494 95.4216 93.3291 93.6254 93.6271C94.4735 89.2648 93.1439 83.3351 90.0137 76.6886Z" stroke="#053456" stroke-width="1.5" stroke-linecap="round" stroke-linejoin="round"/>
<path d="M8.802 14.9469C16.648 7.10093 33.8335 10.6622 52.4973 22.4482C55.1318 24.1118 57.7881 25.9375 60.4663 27.925C63.1881 29.9454 65.9093 32.1239 68.6299 34.4604C71.5835 36.9997 74.5199 39.7074 77.4062 42.5939C80.3308 45.5184 83.0242 48.5019 85.4686 51.4856C83.5855 54.4281 81.5503 57.2705 79.3713 60.0011C73.6729 52.8268 67.1734 46.3272 59.9992 40.6288C57.2686 38.4497 54.4264 36.4145 51.484 34.5313C48.8575 32.8471 46.1281 31.3292 43.3117 29.9866C36.6654 26.8565 30.7358 25.5267 26.3735 26.375C24.5773 26.673 22.9136 27.5081 21.6013 28.7704C17.404 32.9678 18.3642 41.4431 23.2667 51.416C21.0543 54.2896 19.0236 57.1594 17.1752 60.0011C4.69784 40.8166 0.766008 22.983 8.802 14.9469Z" stroke="#053456" stroke-width="1.5" stroke-linecap="round" stroke-linejoin="round"/>
<path d="M34.531 68.5166C36.9754 71.5004 39.6687 74.4839 42.5934 77.4084C45.4796 80.2948 48.4161 83.0026 51.3697 85.5419C54.0836 87.8749 56.8048 90.0534 59.5333 92.0773C62.2046 94.06 64.8609 95.8856 67.5023 97.554C86.1661 109.34 103.352 112.901 111.198 105.055L105.054 111.199C97.0178 119.235 79.1845 115.303 60.0003 102.826C57.1586 100.977 54.297 98.9468 51.4154 96.7341C48.7084 94.6498 46.0076 92.4103 43.3128 90.0155C41.0053 87.965 38.7176 85.8105 36.4496 83.5522C34.1874 81.2899 32.0329 79.0021 29.9863 76.6887C31.3289 73.8723 32.8468 71.143 34.531 68.5166Z" stroke="#053456" stroke-width="1.5" stroke-linecap="round" stroke-linejoin="round"/>
<path d="M21.6035 28.7704C22.9157 27.5082 24.5794 26.673 26.3756 26.375C25.5275 30.7374 26.8571 36.6671 29.9873 43.3135C27.5987 46.0014 25.3592 48.7023 23.2688 51.416C18.3663 41.4432 17.4061 32.9678 21.6035 28.7704Z" stroke="#053456" stroke-width="1.5" stroke-linecap="round" stroke-linejoin="round"/>
<path d="M22.4461 67.503C24.1096 64.8684 25.9352 62.2121 27.9227 59.534C29.9431 56.812 32.1216 54.0907 34.4581 51.3702C36.9974 48.4164 39.7051 45.4801 42.5914 42.5938C45.5159 39.6692 48.4993 36.9757 51.4832 34.5312C54.4256 36.4144 57.2679 38.4496 59.9984 40.6287C52.8243 46.3271 46.3248 52.8267 40.6264 60.001C38.4474 62.7316 36.4122 65.5739 34.5292 68.5164C32.8449 71.1427 31.327 73.8721 29.9845 76.6885C26.8543 83.3351 25.5246 89.2647 26.3728 93.627C26.6708 95.4232 27.5059 97.0871 28.7681 98.3993C32.9655 102.597 41.4407 101.636 51.4136 96.7339C54.2871 98.9465 57.1487 100.977 59.9984 102.825C40.8143 115.303 22.981 119.235 14.945 111.199C7.09898 103.353 10.6603 86.1669 22.4461 67.503Z" stroke="#053456" stroke-width="1.5" stroke-linecap="round" stroke-linejoin="round"/>
<path d="M77.4054 77.4078C80.2918 74.5215 82.9995 71.5851 85.5387 68.6314C87.8717 65.9174 90.0502 63.1962 92.0741 60.4677C94.0568 57.7962 95.8823 55.1399 97.5507 52.4985C109.336 33.8346 112.898 16.6488 105.052 8.80273L111.196 14.9464C119.232 22.9825 115.3 40.8161 102.822 60.0006C100.974 62.8421 98.9436 65.7038 96.731 68.5854C94.6467 71.2925 92.4072 73.9934 90.0124 76.6881C87.9619 78.9958 85.8075 81.2836 83.5491 83.5515C81.2869 85.8137 78.9991 87.9682 76.686 90.0149C73.8695 88.6724 71.1401 87.1545 68.5137 85.4703C71.4975 83.0259 74.4809 80.3324 77.4054 77.4078Z" stroke="#053456" stroke-width="1.5" stroke-linecap="round" stroke-linejoin="round"/>
<path d="M40.6265 60.001C46.325 67.1752 52.8245 73.6748 59.9986 79.3733C62.7292 81.5523 65.5715 83.5875 68.5138 85.4707C71.1402 87.1549 73.8697 88.6728 76.6861 90.0153C83.3324 93.1455 89.262 94.4753 93.6243 93.627C95.4205 93.3291 97.0843 92.4939 98.3965 91.2316C102.594 87.0342 101.634 78.5588 96.7311 68.5859C98.9437 65.7123 100.974 62.8507 102.823 60.001C115.3 79.1854 119.232 97.019 111.196 105.055C103.35 112.901 86.1644 109.34 67.5006 97.5538C64.8661 95.8902 62.2097 94.0646 59.5316 92.077C56.8097 90.0567 54.0885 87.8782 51.368 85.5417C48.4144 83.0024 45.4779 80.2946 42.5916 77.4082C39.6671 74.4836 36.9736 71.5001 34.5293 68.5164C36.4124 65.5739 38.4475 62.7316 40.6265 60.001Z" stroke="#053456" stroke-width="1.5" stroke-linecap="round" stroke-linejoin="round"/>
<path d="M14.9465 8.803C22.9825 0.766979 40.8158 4.69878 60 17.1763C62.8417 19.0246 65.7033 21.0551 68.5849 23.2678C71.2919 25.3521 73.9927 27.5916 76.6875 29.9864C78.995 32.0371 81.2827 34.1915 83.5507 36.4497C85.8129 38.712 87.9673 40.9998 90.014 43.3132C88.6714 46.1296 87.1536 48.859 85.4693 51.4853C83.025 48.5016 80.3316 45.5181 77.4069 42.5935C74.5207 39.7072 71.5842 36.9994 68.6306 34.4601C65.9167 32.1271 63.1955 29.9486 60.467 27.9247C57.7957 25.9419 55.1394 24.1163 52.498 22.4479C33.8342 10.662 16.6488 7.10068 8.80273 14.9466L14.9465 8.803Z" stroke="#053456" stroke-width="1.5" stroke-linecap="round" stroke-linejoin="round"/>
<path d="M17.1752 60.0008C19.0235 57.1591 21.0542 54.2893 23.2666 51.4157C25.3511 48.7088 27.5906 46.0079 29.9852 43.3131C32.0357 41.0055 34.1901 38.7177 36.4485 36.4497C38.7108 34.1875 40.9985 32.033 43.3117 29.9863C46.1281 31.3289 48.8575 32.8468 51.4839 34.531C48.5001 36.9754 45.5166 39.669 42.5922 42.5935C39.7058 45.4799 36.9981 48.4162 34.4589 51.37C32.1259 54.0838 29.9474 56.8051 27.9234 59.5337C25.9408 62.205 24.1153 64.8614 22.4469 67.5027C10.6611 86.1666 7.09976 103.352 14.9457 111.199L8.80199 105.055C0.766016 97.0188 4.69784 79.1852 17.1752 60.0008Z" stroke="#053456" stroke-width="1.5" stroke-linecap="round" stroke-linejoin="round"/>
<path d="M79.3721 60.0009C81.5511 57.2703 83.5863 54.4279 85.4693 51.4854C87.1536 48.8591 88.6714 46.1297 90.014 43.3133C93.1442 36.6668 94.4738 30.7372 93.6257 26.3748C93.3276 24.5786 92.4925 22.9147 91.2303 21.6025C87.033 17.4051 78.5577 18.3654 68.5848 23.2679C65.7113 21.0553 62.8497 19.0248 60 17.1764C79.1842 4.69877 97.0175 0.766982 105.053 8.803C112.899 16.649 109.338 33.8349 97.5523 52.4988C95.8888 55.1334 94.0632 57.7898 92.0757 60.4679C90.0553 63.1899 87.8768 65.9111 85.5403 68.6317C83.001 71.5854 80.2933 74.5218 77.407 77.4081C74.4825 80.3327 71.4991 83.0262 68.5152 85.4705C65.5729 83.5874 62.7306 81.5522 60 79.3732C67.1741 73.6747 73.6736 67.1751 79.3721 60.0009Z" stroke="#053456" stroke-width="1.5" stroke-linecap="round" stroke-linejoin="round"/>
</g>
<defs>
<clipPath id="clip0_2007_2">
<rect width="120" height="120" fill="white"/>
</clipPath>
</defs>
</svg>
