<svg width="50" height="50" viewBox="0 0 50 50" fill="none" xmlns="http://www.w3.org/2000/svg">
<circle cx="25" cy="25" r="25" fill="#52B884"/>
<path d="M38.1436 21.1555L38.1467 21.1592L40.6221 23.6346L38.1436 21.1555Z" fill="white"/>
<path d="M44.0754 25.1432C44.0754 24.9775 44.023 24.8177 43.9288 24.6832C43.9018 24.6446 43.8732 24.6075 43.8393 24.5742L36.3873 17.1227C35.0189 15.7543 33.1995 15.0005 31.2646 15.0005C29.3292 15.0005 27.5098 15.7543 26.1414 17.1227C25.9905 17.2736 25.9058 17.4785 25.9058 17.6923C25.9058 17.9062 25.9905 18.11 26.1414 18.2619L26.7507 18.8718L33.0237 25.1448L28.1488 30.0193L26.1408 32.0266C25.99 32.1775 25.9053 32.3824 25.9053 32.5963C25.9053 32.6317 25.9111 32.6666 25.9159 32.7016C25.9392 32.8763 26.0154 33.0399 26.1408 33.1659C26.1483 33.1733 26.1562 33.1791 26.1636 33.1865C26.3441 33.3654 26.5315 33.5316 26.7247 33.6878C26.7306 33.6926 26.7359 33.6984 26.7422 33.7032C26.8978 33.8276 27.0577 33.9445 27.2208 34.0547C27.2282 34.0594 27.2356 34.0637 27.243 34.0684C27.2959 34.1039 27.351 34.1351 27.405 34.169C27.5363 34.2521 27.6691 34.331 27.8047 34.4046C27.8719 34.4411 27.9391 34.4755 28.0069 34.5094C28.1408 34.5766 28.2763 34.6391 28.414 34.6979C28.4743 34.7238 28.5336 34.7508 28.5945 34.7751C28.7888 34.8519 28.9852 34.9218 29.1842 34.9811C29.2175 34.9911 29.252 34.998 29.2853 35.0075C29.4552 35.0557 29.6262 35.097 29.7983 35.1325C29.8666 35.1462 29.9348 35.1579 30.0031 35.1701C30.1487 35.1955 30.2943 35.2166 30.4409 35.233C30.5076 35.2405 30.5749 35.2494 30.6416 35.2553C30.8401 35.2722 31.0391 35.2828 31.2387 35.2839C31.2472 35.2839 31.2556 35.2849 31.2641 35.2849C32.2275 35.2849 33.1894 35.0901 34.0909 34.7095C34.9252 34.3569 35.7082 33.8456 36.3868 33.1669L37.9792 31.5751L39.2846 30.2686L43.2692 26.284L43.8382 25.7144C43.9515 25.6011 44.0272 25.4577 44.0585 25.3031C44.0701 25.2496 44.0754 25.1967 44.0754 25.1432ZM35.2487 32.0261C35.2344 32.0404 35.219 32.0526 35.2047 32.0663C35.0978 32.1712 34.9888 32.2717 34.8755 32.3665C34.8273 32.4073 34.7759 32.4427 34.7267 32.4814C34.6447 32.5454 34.5631 32.61 34.4784 32.6688C34.4207 32.7085 34.3614 32.7439 34.3032 32.7815C34.2233 32.8329 34.1439 32.8842 34.0618 32.9313C33.9994 32.9668 33.9358 32.9991 33.8723 33.0319C33.7913 33.0743 33.7103 33.1161 33.6277 33.1542C33.5626 33.1844 33.4959 33.2114 33.4298 33.2389C33.3466 33.2733 33.2635 33.3072 33.1788 33.3374C33.1116 33.3617 33.0438 33.3834 32.9761 33.4051C32.8908 33.4321 32.8051 33.4581 32.7188 33.4808C32.6505 33.4988 32.5817 33.5158 32.5129 33.5311C32.425 33.5507 32.3371 33.5687 32.2487 33.5841C32.1804 33.5962 32.1121 33.6073 32.0433 33.6169C31.9528 33.6296 31.8623 33.6391 31.7712 33.647C31.704 33.6529 31.6368 33.6592 31.569 33.6629C31.4753 33.6677 31.3811 33.6693 31.2874 33.6693C31.2228 33.6698 31.1577 33.6709 31.0931 33.6688C30.9952 33.6656 30.8978 33.6582 30.7998 33.6502C30.739 33.6455 30.6781 33.6417 30.6177 33.6349C30.5135 33.6227 30.4092 33.6052 30.3054 33.5878C30.2525 33.5788 30.199 33.5719 30.1461 33.5613C30.0232 33.5364 29.9015 33.5057 29.7797 33.4724C29.7469 33.4634 29.713 33.457 29.6802 33.4475C29.5251 33.4019 29.3711 33.3506 29.2191 33.2918C29.2033 33.2855 29.1879 33.2776 29.172 33.2712C29.0386 33.2183 28.9063 33.1606 28.7766 33.0965C28.7279 33.0727 28.6813 33.0446 28.6331 33.0192C28.5394 32.9694 28.4457 32.9202 28.3541 32.8646C28.2065 32.7757 28.0625 32.6799 27.9216 32.5761C27.9111 32.5682 27.8999 32.5618 27.8894 32.5544L30.0709 30.3724L34.1619 26.2819L37.5768 29.6969L35.8739 31.3999L35.2487 32.0261ZM31.2646 16.6103C32.7702 16.6103 34.1846 17.1963 35.2492 18.2614L42.131 25.1432L38.7155 28.5587L27.8899 17.7326C28.8586 17.0042 30.0312 16.6103 31.2646 16.6103Z" fill="white"/>
<path d="M11.928 21.1592L11.9312 21.1555L9.45215 23.6346L11.928 21.1592Z" fill="white"/>
<path d="M24.1537 32.438C24.123 32.2829 24.0468 32.1394 23.9335 32.0262L21.8065 29.8997L17.0506 25.1443L23.3237 18.8713L23.9335 18.2615C24.0844 18.1101 24.1691 17.9057 24.1691 17.6919C24.1691 17.478 24.0844 17.2731 23.9335 17.1222C22.5651 15.7538 20.7456 15 18.8102 15C16.8754 15 15.0559 15.7538 13.6875 17.1222L6.23557 24.5737C6.20487 24.6049 6.1784 24.6393 6.15352 24.6742C6.05558 24.8103 6 24.9733 6 25.1427C6 25.3566 6.0847 25.5615 6.23557 25.7123L6.80517 26.282L10.7897 30.2665L12.0952 31.573L13.6875 33.1648C14.3667 33.844 15.1491 34.3549 15.9834 34.7074C16.8849 35.088 17.8468 35.2828 18.8102 35.2828C18.8187 35.2828 18.8272 35.2818 18.8357 35.2818C19.0347 35.2813 19.2343 35.2701 19.4328 35.2532C19.5 35.2474 19.5667 35.2389 19.6334 35.2315C19.78 35.2151 19.9256 35.1939 20.0717 35.1685C20.14 35.1563 20.2083 35.1447 20.2766 35.1309C20.4492 35.0955 20.6202 35.0536 20.7901 35.006C20.8234 34.9965 20.8573 34.9896 20.8907 34.98C21.0897 34.9208 21.2861 34.8509 21.4804 34.7741C21.5413 34.7503 21.6011 34.7228 21.6614 34.6968C21.7985 34.6386 21.9341 34.5761 22.068 34.5084C22.1357 34.474 22.2035 34.4396 22.2702 34.403C22.4057 34.3295 22.5386 34.25 22.6699 34.1675C22.7239 34.1336 22.7789 34.1023 22.8319 34.0669C22.8393 34.0621 22.8467 34.0579 22.8541 34.0531C23.0172 33.9435 23.177 33.8265 23.3327 33.7016C23.3385 33.6969 23.3438 33.691 23.3501 33.6863C23.5428 33.5312 23.7297 33.3649 23.9091 33.1871C23.9171 33.1791 23.9261 33.1728 23.9346 33.1643C24.0399 33.059 24.1108 32.9266 24.1452 32.7837C24.1601 32.7223 24.1701 32.6593 24.1701 32.5952C24.1696 32.5423 24.1643 32.4894 24.1537 32.438ZM21.2988 33.0971C21.1691 33.1606 21.0368 33.2183 20.9034 33.2718C20.8875 33.2781 20.8721 33.2861 20.8563 33.2924C20.7043 33.3512 20.5508 33.403 20.3957 33.448C20.3624 33.4576 20.329 33.4639 20.2957 33.4729C20.1744 33.5057 20.0532 33.537 19.9304 33.5613C19.8775 33.5719 19.824 33.5788 19.7705 33.5878C19.6668 33.6058 19.563 33.6233 19.4582 33.6349C19.3973 33.6418 19.3364 33.645 19.2756 33.6503C19.1782 33.6582 19.0802 33.6656 18.9828 33.6688C18.9182 33.6709 18.8531 33.6699 18.7885 33.6693C18.6948 33.6688 18.6006 33.6677 18.5069 33.663C18.4397 33.6593 18.3725 33.6534 18.3047 33.6471C18.2136 33.6392 18.1231 33.6296 18.0326 33.6169C17.9638 33.6074 17.8955 33.5963 17.8272 33.5841C17.7388 33.5688 17.6504 33.5507 17.563 33.5312C17.4942 33.5158 17.4254 33.4989 17.3571 33.4809C17.2708 33.4581 17.1851 33.4322 17.0993 33.4052C17.0316 33.3835 16.9638 33.3618 16.8966 33.3374C16.8119 33.3072 16.7288 33.2734 16.6456 33.2389C16.5795 33.2114 16.5133 33.1844 16.4482 33.1542C16.3656 33.1161 16.2846 33.0738 16.2036 33.0314C16.1401 32.9986 16.0766 32.9669 16.0141 32.9309C15.9321 32.8843 15.8526 32.8324 15.7727 32.781C15.714 32.7435 15.6547 32.708 15.5975 32.6683C15.5128 32.6095 15.4313 32.5449 15.3492 32.4809C15.3 32.4422 15.2486 32.4068 15.2005 32.366C15.0872 32.2718 14.9781 32.1707 14.8712 32.0659C14.8569 32.0516 14.8416 32.0399 14.8273 32.0256L14.2015 31.4004L12.4986 29.6975L15.9135 26.2825L20.2771 30.6456L22.186 32.5545C22.1749 32.5624 22.1633 32.5693 22.1527 32.5772C22.0129 32.6805 21.8689 32.7763 21.7218 32.8647C21.6302 32.9197 21.5365 32.9695 21.4428 33.0193C21.3941 33.0452 21.347 33.0733 21.2988 33.0971ZM14.8257 18.2615C15.8902 17.1964 17.3052 16.6103 18.8102 16.6103C20.0442 16.6103 21.2162 17.0042 22.1855 17.7321L11.3594 28.5582L7.94385 25.1427L14.8257 18.2615Z" fill="white"/>
</svg>
