<svg width="70" height="70" viewBox="0 0 70 70" fill="none" xmlns="http://www.w3.org/2000/svg">
<circle cx="35" cy="35" r="35" fill="white"/>
<path d="M53.3984 29.6177L53.4029 29.6229L56.8684 33.0883L53.3984 29.6177Z" fill="#52B884"/>
<path d="M61.7038 35.2006C61.7038 34.9686 61.6304 34.7448 61.4985 34.5565C61.4607 34.5024 61.4207 34.4506 61.3733 34.4039L50.9405 23.9719C49.0247 22.0561 46.4775 21.0007 43.7687 21.0007C41.0592 21.0007 38.512 22.0561 36.5962 23.9719C36.3849 24.1831 36.2664 24.4699 36.2664 24.7693C36.2664 25.0687 36.3849 25.3541 36.5962 25.5668L37.4492 26.4205L46.2315 35.2028L39.4065 42.027L36.5954 44.8373C36.3842 45.0486 36.2656 45.3354 36.2656 45.6348C36.2656 45.6845 36.2738 45.7333 36.2805 45.7823C36.3131 46.0268 36.4198 46.2558 36.5954 46.4322C36.6058 46.4426 36.6169 46.4508 36.6273 46.4611C36.88 46.7116 37.1424 46.9443 37.4129 47.163C37.421 47.1696 37.4284 47.1778 37.4373 47.1845C37.6552 47.3586 37.879 47.5224 38.1073 47.6766C38.1177 47.6832 38.1281 47.6892 38.1384 47.6958C38.2126 47.7455 38.2896 47.7892 38.3652 47.8366C38.549 47.953 38.735 48.0634 38.9248 48.1665C39.0189 48.2176 39.113 48.2658 39.2079 48.3132C39.3954 48.4073 39.5851 48.4948 39.7778 48.577C39.8623 48.6134 39.9453 48.6512 40.0305 48.6852C40.3025 48.7927 40.5775 48.8905 40.8561 48.9735C40.9028 48.9876 40.951 48.9973 40.9977 49.0106C41.2356 49.078 41.475 49.1358 41.7158 49.1855C41.8114 49.2048 41.907 49.2211 42.0026 49.2381C42.2064 49.2737 42.4102 49.3033 42.6155 49.3263C42.7089 49.3367 42.803 49.3493 42.8964 49.3574C43.1743 49.3811 43.453 49.396 43.7324 49.3975C43.7443 49.3975 43.7561 49.3989 43.768 49.3989C45.1168 49.3989 46.4634 49.1262 47.7255 48.5933C48.8936 48.0997 49.9897 47.3838 50.9398 46.4337L53.1691 44.2052L54.9967 42.3761L60.5751 36.7977L61.3718 36.0003C61.5304 35.8417 61.6364 35.6408 61.6801 35.4244C61.6964 35.3495 61.7038 35.2754 61.7038 35.2006ZM49.3464 44.8366C49.3264 44.8566 49.3049 44.8737 49.2849 44.8929C49.1352 45.0397 48.9825 45.1805 48.8239 45.3131C48.7565 45.3702 48.6846 45.4199 48.6156 45.474C48.5008 45.5636 48.3866 45.6541 48.2681 45.7363C48.1873 45.7919 48.1043 45.8416 48.0227 45.8942C47.9108 45.9661 47.7997 46.038 47.6848 46.1039C47.5973 46.1536 47.5084 46.1988 47.4195 46.2447C47.3061 46.304 47.1927 46.3626 47.0771 46.4159C46.9859 46.4582 46.8925 46.496 46.7999 46.5345C46.6835 46.5827 46.5672 46.6301 46.4486 46.6724C46.3545 46.7065 46.2596 46.7368 46.1647 46.7672C46.0454 46.805 45.9254 46.8413 45.8046 46.8732C45.709 46.8984 45.6126 46.9221 45.5163 46.9436C45.3932 46.971 45.2702 46.9962 45.1465 47.0177C45.0509 47.0348 44.9552 47.0503 44.8589 47.0637C44.7322 47.0814 44.6054 47.0948 44.478 47.1059C44.3839 47.1141 44.2897 47.123 44.1949 47.1281C44.0637 47.1348 43.9318 47.137 43.8006 47.137C43.7102 47.1378 43.619 47.1393 43.5286 47.1363C43.3915 47.1319 43.2551 47.1215 43.118 47.1104C43.0328 47.1037 42.9476 47.0985 42.8631 47.0889C42.7171 47.0718 42.5711 47.0474 42.4258 47.0229C42.3517 47.0103 42.2768 47.0007 42.2027 46.9859C42.0308 46.951 41.8603 46.908 41.6899 46.8614C41.6439 46.8488 41.5965 46.8398 41.5505 46.8265C41.3334 46.7628 41.1177 46.6909 40.905 46.6086C40.8828 46.5997 40.8613 46.5886 40.8391 46.5797C40.6523 46.5056 40.467 46.4248 40.2855 46.3351C40.2173 46.3018 40.1521 46.2625 40.0846 46.2269C39.9534 46.1573 39.8223 46.0884 39.694 46.0105C39.4873 45.886 39.2857 45.7519 39.0886 45.6066C39.0737 45.5955 39.0582 45.5866 39.0433 45.5762L42.0975 42.5213L47.8249 36.7947L52.6058 41.5757L50.2216 43.9599L49.3464 44.8366ZM43.7687 23.2545C45.8765 23.2545 47.8567 24.0749 49.3471 25.566L58.9817 35.2006L54.2 39.9823L39.0441 24.8257C40.4003 23.8059 42.0419 23.2545 43.7687 23.2545Z" fill="#52B884"/>
<path d="M16.7006 29.6229L16.705 29.6177L13.2344 33.0883L16.7006 29.6229Z" fill="#52B884"/>
<path d="M33.8136 45.4132C33.7706 45.1961 33.6639 44.9952 33.5053 44.8366L30.5275 41.8595L23.8693 35.2021L32.6516 26.4198L33.5053 25.566C33.7165 25.3541 33.8351 25.068 33.8351 24.7686C33.8351 24.4692 33.7165 24.1824 33.5053 23.9711C31.5895 22.0554 29.0423 21 26.3328 21C23.624 21 21.0768 22.0554 19.161 23.9711L8.72824 34.4032C8.68525 34.4469 8.6482 34.495 8.61336 34.5439C8.47626 34.7344 8.39844 34.9627 8.39844 35.1998C8.39844 35.4993 8.51702 35.7861 8.72824 35.9973L9.52568 36.7947L15.1041 42.3731L16.9317 44.2022L19.161 46.4308C20.1118 47.3816 21.2072 48.0968 22.3752 48.5904C23.6373 49.1232 24.9839 49.396 26.3328 49.396C26.3446 49.396 26.3565 49.3945 26.3684 49.3945C26.647 49.3938 26.9264 49.3782 27.2043 49.3545C27.2985 49.3463 27.3918 49.3345 27.4852 49.3241C27.6905 49.3011 27.8943 49.2715 28.0989 49.2359C28.1945 49.2189 28.2901 49.2026 28.3857 49.1833C28.6273 49.1336 28.8667 49.0751 29.1046 49.0084C29.1513 48.995 29.1987 48.9854 29.2454 48.9721C29.524 48.8891 29.799 48.7912 30.071 48.6838C30.1562 48.6504 30.24 48.6119 30.3244 48.5756C30.5164 48.494 30.7061 48.4066 30.8936 48.3117C30.9885 48.2636 31.0834 48.2154 31.1767 48.1643C31.3665 48.0612 31.5525 47.9501 31.7363 47.8344C31.8119 47.787 31.8889 47.7433 31.9631 47.6936C31.9734 47.687 31.9838 47.681 31.9942 47.6744C32.2224 47.521 32.4463 47.3572 32.6642 47.1823C32.6723 47.1756 32.6797 47.1674 32.6886 47.1608C32.9584 46.9436 33.22 46.7109 33.4712 46.4619C33.4824 46.4508 33.495 46.4419 33.5068 46.43C33.6543 46.2826 33.7536 46.0973 33.8018 45.8972C33.8225 45.8112 33.8366 45.723 33.8366 45.6333C33.8359 45.5592 33.8285 45.4851 33.8136 45.4132ZM29.8168 46.3359C29.6352 46.4248 29.4499 46.5056 29.2632 46.5805C29.2409 46.5894 29.2194 46.6005 29.1972 46.6094C28.9845 46.6916 28.7696 46.7643 28.5524 46.8273C28.5057 46.8406 28.459 46.8495 28.4124 46.8621C28.2426 46.908 28.0729 46.9518 27.901 46.9859C27.8269 47.0007 27.752 47.0103 27.6772 47.0229C27.5319 47.0481 27.3866 47.0726 27.2399 47.0889C27.1547 47.0985 27.0695 47.103 26.9842 47.1104C26.8479 47.1215 26.7108 47.1319 26.5744 47.1363C26.484 47.1393 26.3928 47.1378 26.3024 47.137C26.1712 47.1363 26.0393 47.1348 25.9081 47.1282C25.814 47.123 25.7199 47.1148 25.625 47.1059C25.4975 47.0948 25.3708 47.0815 25.2441 47.0637C25.1477 47.0503 25.0521 47.0348 24.9565 47.0177C24.8328 46.9962 24.709 46.971 24.5867 46.9436C24.4904 46.9221 24.394 46.8984 24.2984 46.8732C24.1776 46.8414 24.0575 46.805 23.9375 46.7672C23.8426 46.7368 23.7478 46.7065 23.6536 46.6724C23.5351 46.6301 23.4187 46.5827 23.3023 46.5345C23.2097 46.496 23.1171 46.4582 23.0259 46.4159C22.9103 46.3626 22.7969 46.3033 22.6835 46.244C22.5946 46.1981 22.5056 46.1536 22.4182 46.1032C22.3033 46.038 22.1921 45.9654 22.0802 45.8935C21.998 45.8408 21.915 45.7912 21.8349 45.7356C21.7163 45.6533 21.6022 45.5629 21.4873 45.4732C21.4184 45.4191 21.3465 45.3695 21.2791 45.3124C21.1205 45.1805 20.9678 45.0389 20.8181 44.8922C20.7981 44.8722 20.7766 44.8559 20.7566 44.8359L19.8806 43.9606L17.4964 41.5764L22.2774 36.7955L28.3864 42.9038L31.0589 45.5763C31.0433 45.5874 31.027 45.597 31.0122 45.6081C30.8165 45.7526 30.615 45.8868 30.4089 46.0106C30.2807 46.0876 30.1495 46.1573 30.0184 46.227C29.9502 46.2633 29.8842 46.3026 29.8168 46.3359ZM20.7544 25.566C22.2448 24.0749 24.2258 23.2545 26.3328 23.2545C28.0603 23.2545 29.7012 23.8059 31.0582 24.8249L15.9015 39.9815L11.1198 35.1998L20.7544 25.566Z" fill="#52B884"/>
</svg>
