<svg width="40" height="40" viewBox="0 0 40 40" fill="none" xmlns="http://www.w3.org/2000/svg">
<path d="M29.1665 35C34.2292 35 38.3332 30.8959 38.3332 25.8333C38.3332 22.094 36.3866 18.476 33.4813 17.7778C32.3607 17.5085 31.4682 16.0704 31.6599 14.4286C31.9166 12.2311 33.9038 10.011 37.8385 8.26145C38.7145 7.8719 38.3477 6.55401 37.3964 6.67312C27.1421 7.95694 20.0341 14.6421 20 24.1003C19.9999 30.6049 23.8429 35 29.1665 35Z" fill="#52B884"/>
<path d="M9.16655 35C14.2292 35 18.3332 30.8959 18.3332 25.8333C18.3332 22.094 16.3866 18.476 13.4813 17.7778C12.3607 17.5085 11.4682 16.0704 11.6599 14.4286C11.9166 12.2311 13.9038 10.011 17.8385 8.26145C18.7145 7.8719 18.3477 6.55401 17.3964 6.67312C7.14208 7.95694 0.0341 14.6421 2.94371e-09 24.1003C-0.000122814 30.6049 3.84286 35 9.16655 35Z" fill="#52B884"/>
</svg>
